<svg height="537" width="1048" xmlns="http://www.w3.org/2000/svg" xmlns:xlink="http://www.w3.org/1999/xlink"><linearGradient id="a" x1="0%" y1="109.209%" y2="0%"><stop offset="0" stop-color="#58191f" stop-opacity=".5"/><stop offset="1" stop-color="#ea3f4f"/></linearGradient><linearGradient id="b" x1="0%" y1="109.209%" y2="0%"><stop offset="0" stop-color="#58191f"/><stop offset="1" stop-color="#ea3f4f"/></linearGradient><linearGradient id="c" x1="0%" y1="109.209%" y2="0%"><stop offset="0" stop-color="#1a1718"/><stop offset="1" stop-color="#33393d"/></linearGradient><filter id="d" height="245.6%" width="245.4%" x="-72.7%" y="-72.8%"><feGaussianBlur in="SourceGraphic" stdDeviation="5.579"/></filter><filter id="e" height="245.6%" width="245.4%" x="-72.7%" y="-72.8%"><feGaussianBlur in="SourceGraphic" stdDeviation="5.579"/></filter><filter id="f" height="245.6%" width="245.4%" x="-72.7%" y="-72.8%"><feGaussianBlur in="SourceGraphic" stdDeviation="5.579"/></filter><filter id="g" height="245.6%" width="245.4%" x="-72.7%" y="-72.8%"><feGaussianBlur in="SourceGraphic" stdDeviation="5.579"/></filter><filter id="h" height="245.6%" width="245.4%" x="-72.7%" y="-72.8%"><feGaussianBlur in="SourceGraphic" stdDeviation="5.579"/></filter><filter id="i" height="245.6%" width="245.4%" x="-72.7%" y="-72.8%"><feGaussianBlur in="SourceGraphic" stdDeviation="5.579"/></filter><linearGradient id="j" x1="60.87%" x2="60.87%" y1="0%" y2="97.07%"><stop offset="0" stop-color="#ea3f4f"/><stop offset="1" stop-color="#440b0b"/></linearGradient><filter id="k" height="245.6%" width="245.4%" x="-72.7%" y="-72.8%"><feGaussianBlur in="SourceGraphic" stdDeviation="5.579"/></filter><filter id="l" height="245.6%" width="245.4%" x="-72.7%" y="-72.8%"><feGaussianBlur in="SourceGraphic" stdDeviation="5.579"/></filter><filter id="m" height="245.6%" width="245.4%" x="-72.7%" y="-72.8%"><feGaussianBlur in="SourceGraphic" stdDeviation="5.579"/></filter><g fill="none" fill-rule="evenodd"><g transform="translate(500)"><path d="m412.925 377.393 91.301-117.644" stroke="url(#a)"/><path d="m411.775 113.16 90.725 146.59m-97.91-171.4-114.714 128.207m113.276-109.527-130.957 354.926m233.88-223.572-203.66-4.902m101.435-164.552-131.247-23.572" opacity=".5" stroke="url(#b)" stroke-width="1.438"/><path d="m272.195 437.528-17.695-203.028" stroke="url(#a)" stroke-width="1.438"/><path d="m245.571 206.898-6.296-132.798m7.016 153.634-183.484-49.575m-47.49-20.117 357.358 209.011m-357.358-209.011 227.183 281.458" opacity=".5" stroke="url(#b)" stroke-width="1.438"/><g transform="translate(0 136)"><path d="m90.988 37.145v-10.884h-4.238v4.24c-.378-.26-.773-.517-1.198-.758l-25.596-14.627c-8.076-4.615-22.182-4.037-31.507 1.291l-20.369 11.64v-.922h-8.08v11.358h.013c.016 2.914 1.805 5.696 5.443 7.775l25.597 14.625c8.076 4.618 22.181 4.037 31.506-1.291l20.73-11.846c5.302-3.028 7.914-6.94 7.699-10.6" fill="url(#c)"/><path d="m83.285 35.746-20.73 11.846c-9.325 5.328-23.43 5.909-31.506 1.291l-25.597-14.625c-8.076-4.615-7.062-12.675 2.263-18.005l20.73-11.846c9.325-5.328 23.43-5.906 31.505-1.291l25.597 14.627c8.076 4.615 7.062 12.673-2.263 18.003" fill="#424448"/></g><g transform="translate(457 209)"><path d="m90.988 37.145v-10.884h-4.238v4.24c-.378-.26-.773-.517-1.198-.758l-25.596-14.627c-8.076-4.615-22.182-4.037-31.507 1.291l-20.369 11.64v-.922h-8.08v11.358h.013c.016 2.914 1.805 5.696 5.443 7.775l25.597 14.625c8.076 4.618 22.181 4.037 31.506-1.291l20.73-11.846c5.302-3.028 7.914-6.94 7.699-10.6" fill="url(#c)"/><path d="m83.285 35.746-20.73 11.846c-9.325 5.328-23.43 5.909-31.506 1.291l-25.597-14.625c-8.076-4.615-7.062-12.675 2.263-18.005l20.73-11.846c9.325-5.328 23.43-5.906 31.505-1.291l25.597 14.627c8.076 4.615 7.062 12.673-2.263 18.003" fill="#424448"/></g><g transform="translate(366 55)"><path d="m90.988 37.145v-10.884h-4.238v4.24c-.378-.26-.773-.517-1.198-.758l-25.596-14.627c-8.076-4.615-22.182-4.037-31.507 1.291l-20.369 11.64v-.922h-8.08v11.358h.013c.016 2.914 1.805 5.696 5.443 7.775l25.597 14.625c8.076 4.618 22.181 4.037 31.506-1.291l20.73-11.846c5.302-3.028 7.914-6.94 7.699-10.6" fill="url(#c)"/><path d="m83.285 35.746-20.73 11.846c-9.325 5.328-23.43 5.909-31.506 1.291l-25.597-14.625c-8.076-4.615-7.062-12.675 2.263-18.005l20.73-11.846c9.325-5.328 23.43-5.906 31.505-1.291l25.597 14.627c8.076 4.615 7.062 12.673-2.263 18.003" fill="#424448"/></g><g transform="translate(221 410)"><path d="m90.988 37.145v-10.884h-4.238v4.24c-.378-.26-.773-.517-1.198-.758l-25.596-14.627c-8.076-4.615-22.182-4.037-31.507 1.291l-20.369 11.64v-.922h-8.08v11.358h.013c.016 2.914 1.805 5.696 5.443 7.775l25.597 14.625c8.076 4.618 22.181 4.037 31.506-1.291l20.73-11.846c5.302-3.028 7.914-6.94 7.699-10.6" fill="url(#c)"/><path d="m83.285 35.746-20.73 11.846c-9.325 5.328-23.43 5.909-31.506 1.291l-25.597-14.625c-8.076-4.615-7.062-12.675 2.263-18.005l20.73-11.846c9.325-5.328 23.43-5.906 31.505-1.291l25.597 14.627c8.076 4.615 7.062 12.673-2.263 18.003" fill="#424448"/></g><g transform="translate(236 188)"><path d="m90.988 37.145v-10.884h-4.238v4.24c-.378-.26-.773-.517-1.198-.758l-25.596-14.627c-8.076-4.615-22.182-4.037-31.507 1.291l-20.369 11.64v-.922h-8.08v11.358h.013c.016 2.914 1.805 5.696 5.443 7.775l25.597 14.625c8.076 4.618 22.181 4.037 31.506-1.291l20.73-11.846c5.302-3.028 7.914-6.94 7.699-10.6" fill="url(#c)"/><path d="m83.285 35.746-20.73 11.846c-9.325 5.328-23.43 5.909-31.506 1.291l-25.597-14.625c-8.076-4.615-7.062-12.675 2.263-18.005l20.73-11.846c9.325-5.328 23.43-5.906 31.505-1.291l25.597 14.627c8.076 4.615 7.062 12.673-2.263 18.003" fill="#424448"/></g><g fill="#ea3f4f"><g transform="translate(112 280)"><ellipse cx="12.053" cy="11.678" filter="url(#d)" opacity=".5" rx="11.513" ry="11.496"/><ellipse cx="12.053" cy="11.678" rx="5.756" ry="5.748"/></g><g transform="translate(176 199)"><ellipse cx="12.008" cy="12.209" filter="url(#e)" opacity=".5" rx="11.513" ry="11.496"/><ellipse cx="12.008" cy="12.209" rx="5.756" ry="5.748"/></g><g transform="translate(251.2 318.228)"><ellipse cx="11.64" cy="12.248" filter="url(#f)" opacity=".5" rx="11.513" ry="11.496"/><ellipse cx="11.64" cy="12.248" rx="5.756" ry="5.748"/></g><g transform="translate(448 306)"><ellipse cx="11.513" cy="11.496" filter="url(#g)" opacity=".5" rx="11.513" ry="11.496"/><ellipse cx="10.756" cy="11.748" rx="5.756" ry="5.748"/></g><g transform="translate(337 48)"><ellipse cx="12.186" cy="11.508" filter="url(#h)" opacity=".5" rx="11.513" ry="11.496"/><ellipse cx="12.106" cy="11.743" rx="5.756" ry="5.748"/></g></g><g transform="translate(200.75)"><ellipse cx="39.1" cy="39.06" fill="#ea3f4f" rx="38.813" ry="38.773" stroke="#c3444f" stroke-opacity=".4" stroke-width=".575"/><path d="m49.481 36.777-16.258-10.115c-.48-.283-1.077-.236-1.528-.236-1.803 0-1.795 1.375-1.795 1.723v20.674c0 .294-.008 1.723 1.795 1.723.45 0 1.048.047 1.528-.236l16.258-10.115c1.334-.784 1.104-1.709 1.104-1.709s.23-.925-1.104-1.71z" fill="#ebe0e1" fill-rule="nonzero"/></g><g transform="translate(359 339)"><ellipse cx="39.1" cy="39.06" fill="#ea3f4f" rx="38.813" ry="38.773" stroke="#c3444f" stroke-opacity=".4" stroke-width=".575"/><path d="m48.529 34.322v12.458h-.036a4.632 4.632 0 0 1 -4.598 5.208 4.632 4.632 0 0 1 -4.635-4.63 4.632 4.632 0 0 1 4.634-4.63c.845 0 1.636.226 2.317.62v-7.738l-12.164 2.292v9.456h-.036a4.632 4.632 0 0 1 -4.598 5.208 4.632 4.632 0 0 1 -4.634-4.63 4.632 4.632 0 0 1 4.634-4.629c.844 0 1.635.226 2.317.62v-11.582c0-1.278 1.02-2.506 2.274-2.743l12.25-2.308c1.256-.236 2.275.607 2.275 1.886z" fill="#ebe0e1"/></g><g fill="#ea3f4f" transform="translate(125.85 86.163)"><ellipse cx="11.64" cy="12.248" filter="url(#i)" opacity=".5" rx="11.513" ry="11.496"/><ellipse cx="11.64" cy="12.248" rx="5.756" ry="5.748"/></g><path d="m203.625 49.974-131.675 98.226" opacity=".5" stroke="url(#b)" stroke-width="1.15"/><g transform="translate(226 449)"><path d="m2.049.708c.706.418 1.284 1.427 1.284 2.241 0 .813-.578 1.146-1.284.74-.706-.409-1.284-1.414-1.284-2.24 0-.827.578-1.159 1.284-.74" fill="#ea3f4f"/><path d="m5.409 3.145c.706.418 1.284 1.427 1.284 2.241 0 .813-.578 1.146-1.284.74-.706-.408-1.284-1.415-1.284-2.241s.578-1.158 1.284-.74m3.54 2.031c.708.418 1.285 1.427 1.285 2.24 0 .814-.577 1.147-1.284.74-.706-.407-1.284-1.415-1.284-2.24 0-.826.578-1.159 1.284-.74" fill="#fff"/></g><g transform="translate(4 174)"><path d="m2.049.708c.706.418 1.284 1.427 1.284 2.241 0 .813-.578 1.146-1.284.74-.706-.409-1.284-1.414-1.284-2.24 0-.827.578-1.159 1.284-.74" fill="#ea3f4f"/><path d="m5.409 3.145c.706.418 1.284 1.427 1.284 2.241 0 .813-.578 1.146-1.284.74-.706-.408-1.284-1.415-1.284-2.241s.578-1.158 1.284-.74m3.54 2.031c.708.418 1.285 1.427 1.285 2.24 0 .814-.577 1.147-1.284.74-.706-.407-1.284-1.415-1.284-2.24 0-.826.578-1.159 1.284-.74" fill="#fff"/></g><g transform="translate(239 225)"><path d="m2.049.708c.706.418 1.284 1.427 1.284 2.241 0 .813-.578 1.146-1.284.74-.706-.409-1.284-1.414-1.284-2.24 0-.827.578-1.159 1.284-.74" fill="#ea3f4f"/><path d="m5.409 3.145c.706.418 1.284 1.427 1.284 2.241 0 .813-.578 1.146-1.284.74-.706-.408-1.284-1.415-1.284-2.241s.578-1.158 1.284-.74m3.54 2.031c.708.418 1.285 1.427 1.285 2.24 0 .814-.577 1.147-1.284.74-.706-.407-1.284-1.415-1.284-2.24 0-.826.578-1.159 1.284-.74" fill="#fff"/></g><g transform="translate(370 94)"><path d="m2.049.708c.706.418 1.284 1.427 1.284 2.241 0 .813-.578 1.146-1.284.74-.706-.409-1.284-1.414-1.284-2.24 0-.827.578-1.159 1.284-.74" fill="#ea3f4f"/><path d="m5.409 3.145c.706.418 1.284 1.427 1.284 2.241 0 .813-.578 1.146-1.284.74-.706-.408-1.284-1.415-1.284-2.241s.578-1.158 1.284-.74m3.54 2.031c.708.418 1.285 1.427 1.285 2.24 0 .814-.577 1.147-1.284.74-.706-.407-1.284-1.415-1.284-2.24 0-.826.578-1.159 1.284-.74" fill="#fff"/></g><g transform="translate(461 248)"><path d="m2.049.708c.706.418 1.284 1.427 1.284 2.241 0 .813-.578 1.146-1.284.74-.706-.409-1.284-1.414-1.284-2.24 0-.827.578-1.159 1.284-.74" fill="#ea3f4f"/><path d="m5.409 3.145c.706.418 1.284 1.427 1.284 2.241 0 .813-.578 1.146-1.284.74-.706-.408-1.284-1.415-1.284-2.241s.578-1.158 1.284-.74m3.54 2.031c.708.418 1.285 1.427 1.285 2.24 0 .814-.577 1.147-1.284.74-.706-.407-1.284-1.415-1.284-2.24 0-.826.578-1.159 1.284-.74" fill="#fff"/></g></g><g transform="translate(476 20)"><path d="m225.71 43.575c-11.99 0-21.71-9.755-21.71-21.788 0-12.032 9.72-21.787 21.71-21.787s21.711 9.755 21.711 21.787c0 12.033-9.72 21.788-21.71 21.788zm0-1.32c11.264 0 20.395-9.164 20.395-20.468 0-11.303-9.13-20.467-20.394-20.467s-20.395 9.164-20.395 20.467c0 11.304 9.13 20.467 20.395 20.467z" fill="#ecf8f5" fill-rule="nonzero"/><ellipse cx="226.263" cy="21.282" fill="#fff" fill-rule="nonzero" rx="5.263" ry="5.282"/><path d="m13.91 12.938v11.648c-.008 1.148-.262 2.148-.762 3a4.991 4.991 0 0 1 -2.115 1.963c-.91.457-1.955.685-3.135.685-1.796 0-3.236-.49-4.318-1.47s-1.642-2.338-1.682-4.073v-11.753h1.43v11.542c0 1.438.41 2.553 1.23 3.346s1.934 1.19 3.34 1.19c1.407 0 2.518-.399 3.334-1.196.817-.797 1.225-1.906 1.225-3.328v-11.555h1.453zm10.785 13.84c0-.696-.279-1.255-.838-1.676-.558-.422-1.4-.752-2.525-.99-1.125-.239-1.998-.512-2.62-.821-.62-.309-1.081-.686-1.382-1.13-.3-.446-.451-.985-.451-1.618 0-1 .418-1.826 1.254-2.479.836-.652 1.906-.978 3.21-.978 1.415 0 2.55.35 3.405 1.049.856.699 1.283 1.611 1.283 2.736h-1.406c0-.742-.31-1.36-.932-1.851-.62-.493-1.404-.739-2.35-.739-.921 0-1.661.205-2.22.615s-.838.944-.838 1.6c0 .633.233 1.123.697 1.47.465.348 1.313.667 2.543.956s2.153.598 2.766.926 1.068.722 1.365 1.183.446 1.02.446 1.676c0 1.07-.432 1.926-1.295 2.566-.864.641-1.99.961-3.381.961-1.477 0-2.674-.357-3.592-1.072s-1.377-1.619-1.377-2.713h1.406c.055.82.4 1.46 1.037 1.916.637.457 1.479.686 2.526.686.976 0 1.765-.215 2.367-.645s.902-.972.902-1.629zm8.97 3.456c-1.08 0-2.054-.265-2.925-.797-.87-.53-1.549-1.271-2.033-2.22-.484-.95-.727-2.014-.727-3.194v-.503c0-1.22.237-2.317.71-3.293.472-.977 1.13-1.745 1.974-2.303a4.871 4.871 0 0 1 2.742-.838c1.54 0 2.76.525 3.662 1.576.903 1.05 1.354 2.486 1.354 4.307v.785h-9.047v.27c0 1.437.412 2.634 1.236 3.591.825.957 1.862 1.436 3.112 1.436.75 0 1.412-.137 1.986-.41.574-.274 1.096-.711 1.564-1.313l.88.668c-1.032 1.492-2.528 2.238-4.489 2.238zm-.259-11.953c-1.054 0-1.943.387-2.666 1.16-.722.774-1.162 1.813-1.318 3.118h7.605v-.153c-.039-1.219-.386-2.21-1.043-2.976-.656-.766-1.515-1.149-2.578-1.149zm13.106.235a5.238 5.238 0 0 0 -.95-.082c-.875 0-1.615.244-2.22.732-.606.488-1.037 1.197-1.295 2.127v8.707h-1.395v-12.68h1.371l.024 2.016c.742-1.5 1.933-2.25 3.574-2.25.39 0 .7.05.926.152zm9.308 8.261c0-.695-.279-1.254-.838-1.675-.558-.422-1.4-.752-2.525-.99-1.125-.239-1.998-.512-2.62-.821-.62-.309-1.081-.686-1.382-1.13-.3-.446-.451-.985-.451-1.618 0-1 .418-1.826 1.254-2.479.836-.652 1.906-.978 3.21-.978 1.415 0 2.55.35 3.405 1.049.856.699 1.283 1.611 1.283 2.736h-1.406c0-.742-.31-1.36-.932-1.851-.62-.493-1.404-.739-2.35-.739-.921 0-1.661.205-2.22.615s-.838.944-.838 1.6c0 .633.233 1.123.697 1.47.465.348 1.313.667 2.543.956s2.153.598 2.766.926 1.068.722 1.365 1.183.446 1.02.446 1.676c0 1.07-.432 1.926-1.295 2.566-.864.641-1.99.961-3.381.961-1.477 0-2.674-.357-3.592-1.072s-1.377-1.619-1.377-2.713h1.406c.055.82.4 1.46 1.037 1.916.637.457 1.479.686 2.526.686.976 0 1.765-.215 2.367-.645s.902-.972.902-1.629z" fill="#fff"/><path d="m227.5 21.5h-163" stroke="#fff" stroke-dasharray="6" stroke-linecap="square"/></g><g transform="translate(765 392)"><path d="m134.71 44.428c-11.99 0-21.71-9.754-21.71-21.787s9.72-21.787 21.71-21.787 21.711 9.754 21.711 21.787-9.72 21.787-21.71 21.787zm0-1.32c11.264 0 20.395-9.164 20.395-20.467 0-11.304-9.13-20.467-20.394-20.467s-20.395 9.163-20.395 20.467c0 11.303 9.13 20.467 20.395 20.467z" fill="#ecf8f5" fill-rule="nonzero"/><ellipse cx="135.014" cy="23.88" fill="#fff" fill-rule="nonzero" rx="5.263" ry="5.282"/><path d="m11.367 139.219h-7.746l-1.758 4.781h-1.511l6.457-17.063h1.37l6.459 17.063h-1.5l-1.77-4.781zm-7.3-1.23h6.843l-3.422-9.294-3.422 9.293zm18.109-5.473a5.238 5.238 0 0 0 -.95-.082c-.874 0-1.615.244-2.22.732-.606.488-1.037 1.197-1.295 2.127v8.707h-1.395v-12.68h1.372l.023 2.016c.742-1.5 1.934-2.25 3.574-2.25.39 0 .7.05.926.152zm4.48-4.442v3.246h2.625v1.149h-2.625v8.449c0 .703.127 1.227.381 1.57.254.344.678.516 1.272.516.234 0 .613-.04 1.136-.117l.059 1.148c-.367.133-.867.2-1.5.2-.961 0-1.66-.28-2.098-.839-.437-.558-.656-1.38-.656-2.466v-8.461h-2.332v-1.149h2.332v-3.246zm6.602 15.926h-1.406v-12.68h1.406zm-1.653-16.348a.95.95 0 0 1 .258-.673c.172-.184.407-.276.703-.276.297 0 .534.092.71.276a.938.938 0 0 1 .263.673.918.918 0 0 1 -.264.668c-.175.18-.412.27-.709.27-.296 0-.53-.09-.703-.27a.929.929 0 0 1 -.258-.668zm12.555 13.125c0-.695-.28-1.254-.838-1.675-.558-.422-1.4-.752-2.525-.99-1.125-.239-1.998-.512-2.62-.821-.62-.309-1.081-.686-1.382-1.13-.3-.446-.451-.985-.451-1.618 0-1 .418-1.826 1.254-2.479.836-.652 1.906-.978 3.21-.978 1.415 0 2.55.35 3.405 1.049s1.283 1.611 1.283 2.736h-1.406c0-.742-.31-1.36-.932-1.851-.62-.493-1.404-.739-2.35-.739-.921 0-1.662.205-2.22.615-.559.41-.838.944-.838 1.6 0 .633.232 1.123.697 1.47.465.348 1.313.667 2.543.956s2.153.598 2.766.926 1.068.722 1.365 1.183.445 1.02.445 1.676c0 1.07-.431 1.926-1.295 2.566-.863.641-1.99.961-3.38.961-1.477 0-2.674-.357-3.592-1.072s-1.377-1.619-1.377-2.713h1.406c.055.82.4 1.46 1.037 1.916.637.457 1.479.686 2.526.686.976 0 1.765-.215 2.367-.645.601-.43.902-.972.902-1.629zm6.238-12.703v3.246h2.625v1.149h-2.625v8.449c0 .703.127 1.227.381 1.57.254.344.678.516 1.272.516.234 0 .613-.04 1.136-.117l.06 1.148c-.368.133-.868.2-1.5.2-.962 0-1.661-.28-2.099-.839-.437-.558-.656-1.38-.656-2.466v-8.461h-2.332v-1.149h2.332v-3.246zm12.625 12.703c0-.695-.279-1.254-.837-1.675-.559-.422-1.4-.752-2.526-.99-1.125-.239-1.998-.512-2.619-.821s-1.082-.686-1.383-1.13c-.3-.446-.451-.985-.451-1.618 0-1 .418-1.826 1.254-2.479.836-.652 1.906-.978 3.21-.978 1.415 0 2.55.35 3.405 1.049.856.699 1.283 1.611 1.283 2.736h-1.406c0-.742-.31-1.36-.932-1.851-.62-.493-1.404-.739-2.35-.739-.921 0-1.661.205-2.22.615-.558.41-.838.944-.838 1.6 0 .633.233 1.123.698 1.47.464.348 1.312.667 2.543.956 1.23.289 2.152.598 2.765.926s1.068.722 1.365 1.183.446 1.02.446 1.676c0 1.07-.432 1.926-1.295 2.566-.864.641-1.99.961-3.381.961-1.477 0-2.674-.357-3.592-1.072s-1.377-1.619-1.377-2.713h1.406c.055.82.4 1.46 1.038 1.916.636.457 1.478.686 2.525.686.976 0 1.766-.215 2.367-.645.602-.43.902-.972.902-1.629z" fill="#fff"/><path d="m135 25v114h-58" stroke="#fff" stroke-dasharray="6" stroke-linecap="square"/></g><g transform="translate(0 58)"><g transform="translate(214 51)"><g transform="translate(0 239)"><path d="m21.398 37.838h-21.398v26.956h.032c.011 9.5 6.651 19.016 19.913 26.287 26.438 14.494 69.17 14.568 95.443.164 13.77-7.551 20.283-17.582 19.557-27.504v-25.976h-11.967v6.331c-2.301-1.822-4.928-3.556-7.89-5.182-13.268-7.274-30.641-10.914-47.974-10.914-16.452-.002-32.868 3.278-45.717 9.838" fill="url(#b)"/><path d="m66.525 0c-17.017.08-33.958 3.856-46.903 11.335-26.278 15.185-26.146 39.875.298 55.155 26.443 15.279 69.182 15.356 95.46.173 13.075-7.554 19.61-17.464 19.62-27.397v-.052c-.011-10.012-6.657-20.043-19.92-27.706-13.138-7.59-30.289-11.428-47.45-11.508z" fill="#ea3f4f" stroke="#ea3f4f" stroke-width="1.57"/></g><path d="m123.186 199.138c13.673-29.585 15.16-74.385 3.333-99.982l-37.693-81.577c-11.694-25.294-31.92-22.155-45.486 7.215l-30.526 66.062c-13.673 29.586-15.16 74.385-3.333 99.983l37.693 81.576c11.692 25.304 31.917 22.16 45.486-7.215z" fill="url(#j)" opacity=".297" stroke="#c3444f" stroke-opacity=".4"/></g><g stroke="#ea3f4f" stroke-width="1.57"><path d="m279.525 230c-17.017.08-33.958 3.856-46.903 11.335-26.278 15.185-26.146 39.876.298 55.155 26.443 15.279 69.182 15.356 95.46.173 13.075-7.554 19.61-17.464 19.62-27.397v-.052c-.011-10.012-6.657-20.043-19.92-27.706-13.137-7.59-30.288-11.428-47.45-11.508z"/><path d="m279.525 180c-17.017.08-33.958 3.856-46.903 11.335-26.278 15.185-26.146 39.876.298 55.155 26.443 15.279 69.182 15.356 95.46.173 13.075-7.554 19.61-17.464 19.62-27.397v-.052c-.011-10.012-6.657-20.043-19.92-27.706-13.137-7.59-30.288-11.428-47.45-11.508z"/><path d="m279.525 131c-17.017.08-33.958 3.856-46.903 11.335-26.278 15.185-26.146 39.876.298 55.155 26.443 15.279 69.182 15.356 95.46.173 13.075-7.554 19.61-17.464 19.62-27.397v-.052c-.011-10.012-6.657-20.043-19.92-27.706-13.137-7.59-30.288-11.428-47.45-11.508z"/><path d="m279.525 81c-17.017.08-33.958 3.856-46.903 11.335-26.278 15.185-26.146 39.876.298 55.155 26.443 15.279 69.182 15.356 95.46.173 13.075-7.554 19.61-17.464 19.62-27.397v-.052c-.011-10.012-6.657-20.043-19.92-27.706-13.137-7.59-30.288-11.428-47.45-11.508z"/></g><g transform="translate(2 314)"><path d="m279.71 44.428c-11.99 0-21.71-9.754-21.71-21.787s9.72-21.787 21.71-21.787 21.711 9.754 21.711 21.787-9.72 21.787-21.71 21.787zm0-1.32c11.264 0 20.395-9.164 20.395-20.467 0-11.304-9.13-20.467-20.394-20.467s-20.395 9.163-20.395 20.467c0 11.303 9.13 20.467 20.395 20.467z" fill="#ecf8f5" fill-rule="nonzero"/><ellipse cx="280.014" cy="22.88" fill="#fff" fill-rule="nonzero" rx="5.263" ry="5.282"/><path d="m13.91 11.938v11.648c-.008 1.148-.262 2.148-.762 3a4.991 4.991 0 0 1 -2.115 1.963c-.91.457-1.955.685-3.135.685-1.796 0-3.236-.49-4.318-1.47s-1.642-2.338-1.682-4.073v-11.753h1.43v11.542c0 1.438.41 2.553 1.23 3.346s1.934 1.19 3.34 1.19c1.407 0 2.518-.399 3.334-1.196.817-.797 1.225-1.906 1.225-3.328v-11.555h1.453zm10.785 13.84c0-.696-.279-1.255-.838-1.676-.558-.422-1.4-.752-2.525-.99-1.125-.239-1.998-.512-2.62-.821-.62-.309-1.081-.686-1.382-1.13-.3-.446-.451-.985-.451-1.618 0-1 .418-1.826 1.254-2.479.836-.652 1.906-.978 3.21-.978 1.415 0 2.55.35 3.405 1.049.856.699 1.283 1.611 1.283 2.736h-1.406c0-.742-.31-1.36-.932-1.851-.62-.493-1.404-.739-2.35-.739-.921 0-1.661.205-2.22.615s-.838.944-.838 1.6c0 .633.233 1.123.697 1.47.465.348 1.313.667 2.543.956s2.153.598 2.766.926 1.068.722 1.365 1.183.446 1.02.446 1.676c0 1.07-.432 1.926-1.295 2.566-.864.641-1.99.961-3.381.961-1.477 0-2.674-.357-3.592-1.072s-1.377-1.619-1.377-2.713h1.406c.055.82.4 1.46 1.037 1.916.637.457 1.479.686 2.526.686.976 0 1.765-.215 2.367-.645s.902-.972.902-1.629zm8.97 3.456c-1.08 0-2.054-.265-2.925-.797-.87-.53-1.549-1.271-2.033-2.22-.484-.95-.727-2.014-.727-3.194v-.503c0-1.22.237-2.317.71-3.293.472-.977 1.13-1.745 1.974-2.303a4.871 4.871 0 0 1 2.742-.838c1.54 0 2.76.525 3.662 1.576.903 1.05 1.354 2.486 1.354 4.307v.785h-9.047v.27c0 1.437.412 2.634 1.236 3.591.825.957 1.862 1.436 3.112 1.436.75 0 1.412-.137 1.986-.41.574-.274 1.096-.711 1.564-1.313l.88.668c-1.032 1.492-2.528 2.238-4.489 2.238zm-.259-11.953c-1.054 0-1.943.387-2.666 1.16-.722.774-1.162 1.813-1.318 3.118h7.605v-.153c-.039-1.219-.386-2.21-1.043-2.976-.656-.766-1.515-1.149-2.578-1.149zm13.106.235a5.238 5.238 0 0 0 -.95-.082c-.875 0-1.615.244-2.22.732-.606.488-1.037 1.197-1.295 2.127v8.707h-1.395v-12.68h1.371l.024 2.016c.742-1.5 1.933-2.25 3.574-2.25.39 0 .7.05.926.152zm9.308 8.261c0-.695-.279-1.254-.838-1.675-.558-.422-1.4-.752-2.525-.99-1.125-.239-1.998-.512-2.62-.821-.62-.309-1.081-.686-1.382-1.13-.3-.446-.451-.985-.451-1.618 0-1 .418-1.826 1.254-2.479.836-.652 1.906-.978 3.21-.978 1.415 0 2.55.35 3.405 1.049.856.699 1.283 1.611 1.283 2.736h-1.406c0-.742-.31-1.36-.932-1.851-.62-.493-1.404-.739-2.35-.739-.921 0-1.661.205-2.22.615s-.838.944-.838 1.6c0 .633.233 1.123.697 1.47.465.348 1.313.667 2.543.956s2.153.598 2.766.926 1.068.722 1.365 1.183.446 1.02.446 1.676c0 1.07-.432 1.926-1.295 2.566-.864.641-1.99.961-3.381.961-1.477 0-2.674-.357-3.592-1.072s-1.377-1.619-1.377-2.713h1.406c.055.82.4 1.46 1.037 1.916.637.457 1.479.686 2.526.686.976 0 1.765-.215 2.367-.645s.902-.972.902-1.629z" fill="#fff"/><path d="m281.5 23.5h-219.057" stroke="#fff" stroke-dasharray="6" stroke-linecap="square"/></g><g transform="translate(0 168)"><path d="m280.71 44.428c-11.99 0-21.71-9.754-21.71-21.787s9.72-21.787 21.71-21.787 21.711 9.754 21.711 21.787-9.72 21.787-21.71 21.787zm0-1.32c11.264 0 20.395-9.164 20.395-20.467 0-11.304-9.13-20.467-20.394-20.467s-20.395 9.163-20.395 20.467c0 11.303 9.13 20.467 20.395 20.467z" fill="#ecf8f5" fill-rule="nonzero"/><ellipse cx="281.014" cy="22.88" fill="#fff" fill-rule="nonzero" rx="5.263" ry="5.282"/><path d="m4.066 11.938 6.293 15.058 6.317-15.058h1.922v17.062h-1.442v-7.43l.117-7.617-6.351 15.047h-1.113l-6.329-14.988.118 7.511v7.477h-1.442v-17.063h1.91zm19.598 17.062h-1.406v-12.68h1.406zm-1.652-16.348a.95.95 0 0 1 .258-.673c.171-.184.406-.276.703-.276s.533.092.709.276a.938.938 0 0 1 .263.673.918.918 0 0 1 -.263.668c-.176.18-.412.27-.71.27-.296 0-.53-.09-.702-.27a.929.929 0 0 1 -.258-.668zm4.398 9.891c0-1.969.44-3.537 1.319-4.705.878-1.168 2.072-1.752 3.58-1.752 1.71 0 3.015.676 3.914 2.027v-7.113h1.394v18h-1.312l-.059-1.688c-.898 1.282-2.219 1.922-3.96 1.922-1.462 0-2.64-.588-3.534-1.763-.895-1.176-1.342-2.764-1.342-4.764zm1.418.246c0 1.617.324 2.893.973 3.826.648.934 1.562 1.4 2.742 1.4 1.727 0 2.953-.761 3.68-2.285v-5.953c-.727-1.648-1.946-2.472-3.657-2.472-1.18 0-2.097.463-2.753 1.388-.657.926-.985 2.291-.985 4.096zm11.418-.246c0-1.969.44-3.537 1.318-4.705.88-1.168 2.073-1.752 3.58-1.752 1.711 0 3.016.676 3.915 2.027v-7.113h1.394v18h-1.312l-.059-1.688c-.898 1.282-2.219 1.922-3.96 1.922-1.462 0-2.64-.588-3.534-1.763-.895-1.176-1.342-2.764-1.342-4.764zm1.418.246c0 1.617.324 2.893.973 3.826.648.934 1.562 1.4 2.742 1.4 1.726 0 2.953-.761 3.68-2.285v-5.953c-.727-1.648-1.946-2.472-3.657-2.472-1.18 0-2.097.463-2.754 1.388-.656.926-.984 2.291-.984 4.096zm13.55 6.211h-1.404v-18h1.406v18zm8.22.234c-1.079 0-2.053-.265-2.924-.797-.871-.53-1.55-1.271-2.033-2.22-.485-.95-.727-2.014-.727-3.194v-.503c0-1.22.236-2.317.709-3.293.473-.977 1.13-1.745 1.975-2.303a4.871 4.871 0 0 1 2.742-.838c1.539 0 2.76.525 3.662 1.576.902 1.05 1.353 2.486 1.353 4.307v.785h-9.046v.27c0 1.437.412 2.634 1.236 3.591s1.861 1.436 3.111 1.436c.75 0 1.412-.137 1.987-.41.574-.274 1.095-.711 1.564-1.313l.879.668c-1.031 1.492-2.527 2.238-4.488 2.238zm-.258-11.953c-1.055 0-1.944.387-2.666 1.16-.723.774-1.162 1.813-1.319 3.118h7.606v-.153c-.04-1.219-.387-2.21-1.043-2.976s-1.516-1.149-2.578-1.149zm8.523-.96.047 2.062c.469-.766 1.055-1.34 1.758-1.723s1.484-.574 2.344-.574c2 0 3.27.82 3.808 2.46a4.76 4.76 0 0 1 1.817-1.821 5.032 5.032 0 0 1 2.507-.64c2.72 0 4.106 1.485 4.16 4.454v8.461h-1.406v-8.355c-.007-1.133-.252-1.973-.732-2.52s-1.264-.82-2.35-.82c-1.007.015-1.859.341-2.554.978-.696.637-1.082 1.412-1.16 2.326v8.391h-1.408v-8.46c-.008-1.087-.263-1.897-.767-2.433-.504-.535-1.28-.802-2.326-.802-.883 0-1.641.252-2.274.756-.633.503-1.101 1.251-1.406 2.244v8.695h-1.406v-12.68h1.347zm27.496 12.679c-.14-.398-.23-.988-.27-1.77a4.89 4.89 0 0 1 -1.88 1.483 5.76 5.76 0 0 1 -2.42.521c-1.219 0-2.205-.34-2.959-1.02-.754-.679-1.13-1.538-1.13-2.577 0-1.235.513-2.211 1.54-2.93 1.028-.719 2.46-1.078 4.295-1.078h2.543v-1.442c0-.906-.28-1.619-.838-2.138-.558-.52-1.373-.78-2.443-.78-.977 0-1.785.25-2.426.75-.64.5-.96 1.102-.96 1.805l-1.407-.012c0-1.007.469-1.88 1.406-2.619.938-.738 2.09-1.107 3.457-1.107 1.414 0 2.53.353 3.346 1.06.816.708 1.236 1.694 1.26 2.96v6c0 1.226.128 2.144.386 2.753v.141zm-4.406-1.008c.938 0 1.775-.226 2.514-.68.738-.453 1.275-1.058 1.611-1.816v-2.789h-2.508c-1.398.016-2.492.272-3.281.768-.79.496-1.184 1.177-1.184 2.045 0 .71.264 1.3.791 1.77.528.468 1.213.702 2.057.702zm10.094-11.672.047 2.168c.476-.781 1.07-1.377 1.78-1.787a4.63 4.63 0 0 1 2.356-.615c1.36 0 2.371.383 3.036 1.148.664.766 1 1.914 1.007 3.446v8.32h-1.394v-8.332c-.008-1.133-.248-1.977-.72-2.531-.474-.555-1.23-.832-2.268-.832-.868 0-1.635.271-2.303.814s-1.162 1.276-1.483 2.197v8.684h-1.394v-12.68z" fill="#fff"/><path d="m282.5 23.5h-165.003" stroke="#fff" stroke-dasharray="6" stroke-linecap="square"/></g><g transform="translate(214)"><path d="m21.398 37.838h-21.398v26.956h.032c.011 9.5 6.651 19.016 19.913 26.287 26.438 14.494 69.17 14.568 95.443.164 13.77-7.551 20.283-17.582 19.557-27.504v-25.976h-11.967v6.331c-2.301-1.822-4.928-3.556-7.89-5.182-13.268-7.274-30.641-10.914-47.974-10.914-16.452-.002-32.868 3.278-45.717 9.838" fill="url(#b)"/><path d="m66.525 0c-17.017.08-33.958 3.856-46.903 11.335-26.278 15.185-26.146 39.875.298 55.155 26.443 15.279 69.182 15.356 95.46.173 13.075-7.554 19.61-17.464 19.62-27.397v-.052c-.011-10.012-6.657-20.043-19.92-27.706-13.138-7.59-30.289-11.428-47.45-11.508z" fill="#ea3f4f" stroke="#ea3f4f" stroke-width="1.57"/></g><g fill="#ea3f4f" transform="translate(332 194)"><ellipse cx="11.64" cy="12.248" filter="url(#k)" opacity=".5" rx="11.513" ry="11.496"/><ellipse cx="11.64" cy="12.248" rx="5.756" ry="5.748"/></g><g fill="#ea3f4f" transform="translate(202 104)"><ellipse cx="11.64" cy="12.248" filter="url(#l)" opacity=".5" rx="11.513" ry="11.496"/><ellipse cx="11.64" cy="12.248" rx="5.756" ry="5.748"/></g><g fill="#ea3f4f" transform="translate(232 224)"><ellipse cx="11.64" cy="12.248" filter="url(#m)" opacity=".5" rx="11.513" ry="11.496"/><ellipse cx="11.64" cy="12.248" rx="5.756" ry="5.748"/></g><g transform="translate(0 17)"><path d="m280.71 44.428c-11.99 0-21.71-9.754-21.71-21.787s9.72-21.787 21.71-21.787 21.711 9.754 21.711 21.787-9.72 21.787-21.71 21.787zm0-1.32c11.264 0 20.395-9.164 20.395-20.467 0-11.304-9.13-20.467-20.394-20.467s-20.395 9.163-20.395 20.467c0 11.303 9.13 20.467 20.395 20.467z" fill="#ecf8f5" fill-rule="nonzero"/><ellipse cx="281.014" cy="22.88" fill="#fff" fill-rule="nonzero" rx="5.263" ry="5.282"/><path d="m276.5 23.5h-200" stroke="#fff" stroke-dasharray="6" stroke-linecap="square"/><path d="m11.367 23.219h-7.746l-1.758 4.781h-1.511l6.457-17.063h1.37l6.459 17.063h-1.5l-1.77-4.781zm-7.3-1.23h6.843l-3.422-9.294-3.422 9.293zm18.109-5.473a5.238 5.238 0 0 0 -.95-.082c-.874 0-1.615.244-2.22.732-.606.488-1.037 1.197-1.295 2.127v8.707h-1.395v-12.68h1.372l.023 2.016c.742-1.5 1.934-2.25 3.574-2.25.39 0 .7.05.926.152zm4.48-4.442v3.246h2.625v1.149h-2.625v8.449c0 .703.127 1.227.381 1.57.254.344.678.516 1.272.516.234 0 .613-.04 1.136-.117l.059 1.148c-.367.133-.867.2-1.5.2-.961 0-1.66-.28-2.098-.839-.437-.558-.656-1.38-.656-2.466v-8.461h-2.332v-1.149h2.332v-3.246zm6.602 15.926h-1.406v-12.68h1.406zm-1.653-16.348a.95.95 0 0 1 .258-.673c.172-.184.407-.276.703-.276.297 0 .534.092.71.276a.938.938 0 0 1 .263.673.918.918 0 0 1 -.264.668c-.175.18-.412.27-.709.27-.296 0-.53-.09-.703-.27a.929.929 0 0 1 -.258-.668zm12.555 13.125c0-.695-.28-1.254-.838-1.675-.558-.422-1.4-.752-2.525-.99-1.125-.239-1.998-.512-2.62-.821-.62-.309-1.081-.686-1.382-1.13-.3-.446-.451-.985-.451-1.618 0-1 .418-1.826 1.254-2.479.836-.652 1.906-.978 3.21-.978 1.415 0 2.55.35 3.405 1.049s1.283 1.611 1.283 2.736h-1.406c0-.742-.31-1.36-.932-1.851-.62-.493-1.404-.739-2.35-.739-.921 0-1.662.205-2.22.615-.559.41-.838.944-.838 1.6 0 .633.232 1.123.697 1.47.465.348 1.313.667 2.543.956s2.153.598 2.766.926 1.068.722 1.365 1.183.445 1.02.445 1.676c0 1.07-.431 1.926-1.295 2.566-.863.641-1.99.961-3.38.961-1.477 0-2.674-.357-3.592-1.072s-1.377-1.619-1.377-2.713h1.406c.055.82.4 1.46 1.037 1.916.637.457 1.479.686 2.526.686.976 0 1.765-.215 2.367-.645.601-.43.902-.972.902-1.629zm6.238-12.703v3.246h2.625v1.149h-2.625v8.449c0 .703.127 1.227.381 1.57.254.344.678.516 1.272.516.234 0 .613-.04 1.136-.117l.06 1.148c-.368.133-.868.2-1.5.2-.962 0-1.661-.28-2.099-.839-.437-.558-.656-1.38-.656-2.466v-8.461h-2.332v-1.149h2.332v-3.246zm12.625 12.703c0-.695-.279-1.254-.837-1.675-.559-.422-1.4-.752-2.526-.99-1.125-.239-1.998-.512-2.619-.821s-1.082-.686-1.383-1.13c-.3-.446-.451-.985-.451-1.618 0-1 .418-1.826 1.254-2.479.836-.652 1.906-.978 3.21-.978 1.415 0 2.55.35 3.405 1.049.856.699 1.283 1.611 1.283 2.736h-1.406c0-.742-.31-1.36-.932-1.851-.62-.493-1.404-.739-2.35-.739-.921 0-1.661.205-2.22.615-.558.41-.838.944-.838 1.6 0 .633.233 1.123.698 1.47.464.348 1.312.667 2.543.956 1.23.289 2.152.598 2.765.926s1.068.722 1.365 1.183.446 1.02.446 1.676c0 1.07-.432 1.926-1.295 2.566-.864.641-1.99.961-3.381.961-1.477 0-2.674-.357-3.592-1.072s-1.377-1.619-1.377-2.713h1.406c.055.82.4 1.46 1.038 1.916.636.457 1.478.686 2.525.686.976 0 1.766-.215 2.367-.645.602-.43.902-.972.902-1.629z" fill="#fff"/></g></g></g></svg>