<?xml version="1.0" encoding="UTF-8"?>
<svg width="29px" height="29px" viewBox="0 0 29 29" version="1.1" xmlns="http://www.w3.org/2000/svg" xmlns:xlink="http://www.w3.org/1999/xlink">
    <!-- Generator: Sketch Beta 52 (66869) - http://www.bohemiancoding.com/sketch -->
    <title>Fill 1</title>
    <desc>Created with Sketch Beta.</desc>
    <g id="UI" stroke="none" stroke-width="1" fill="none" fill-rule="evenodd">
        <g id="About" transform="translate(-216.000000, -2448.000000)" fill="#FFFFFF">
            <path d="M235.333333,2462.5 C235.333333,2461.1658 234.861328,2460.02669 233.917318,2459.08268 C232.973307,2458.13867 231.834202,2457.66667 230.5,2457.66667 C229.1658,2457.66667 228.026693,2458.13867 227.082682,2459.08268 C226.138672,2460.02669 225.666667,2461.1658 225.666667,2462.5 C225.666667,2463.8342 226.138672,2464.97331 227.082682,2465.91732 C228.026693,2466.86133 229.1658,2467.33333 230.5,2467.33333 C231.834202,2467.33333 232.973307,2466.86133 233.917318,2465.91732 C234.861328,2464.97331 235.333333,2463.8342 235.333333,2462.5 Z M237.938802,2462.5 C237.938802,2464.56424 237.215067,2466.3201 235.767578,2467.76758 C234.320089,2469.21506 232.56423,2469.9388 230.5,2469.9388 C228.435765,2469.9388 226.679905,2469.21506 225.232422,2467.76758 C223.78494,2466.3201 223.061198,2464.56424 223.061198,2462.5 C223.061198,2460.43577 223.78494,2458.67991 225.232422,2457.23242 C226.679905,2455.78493 228.435765,2455.0612 230.5,2455.0612 C232.56423,2455.0612 234.320089,2455.78493 235.767578,2457.23242 C237.215067,2458.67991 237.938802,2460.43577 237.938802,2462.5 Z M239.977865,2454.75911 C239.977865,2455.23741 239.807943,2455.64648 239.468099,2455.98633 C239.128255,2456.32617 238.719178,2456.49609 238.240885,2456.49609 C237.762593,2456.49609 237.353516,2456.32617 237.013672,2455.98633 C236.673828,2455.64648 236.503906,2455.23741 236.503906,2454.75911 C236.503906,2454.28082 236.673828,2453.87174 237.013672,2453.5319 C237.353516,2453.19206 237.762593,2453.02214 238.240885,2453.02214 C238.719178,2453.02214 239.128255,2453.19206 239.468099,2453.5319 C239.807943,2453.87174 239.977865,2454.28082 239.977865,2454.75911 Z M230.5,2450.60547 C230.411894,2450.60547 229.930448,2450.60232 229.055664,2450.59603 C228.180882,2450.58974 227.516927,2450.58974 227.063802,2450.59603 C226.610677,2450.60232 226.003365,2450.6212 225.241862,2450.65267 C224.480361,2450.68414 223.832141,2450.74707 223.297201,2450.84147 C222.762262,2450.93587 222.312282,2451.05231 221.947266,2451.19076 C221.317926,2451.44249 220.764105,2451.80751 220.285807,2452.28581 C219.807509,2452.7641 219.442491,2453.31793 219.190755,2453.94727 C219.052301,2454.31228 218.935872,2454.76227 218.841471,2455.2972 C218.74707,2455.83213 218.684137,2456.48037 218.652669,2457.24186 C218.621202,2458.00336 218.602321,2458.61068 218.596029,2459.0638 C218.589736,2459.51693 218.589736,2460.18089 218.596029,2461.05566 C218.602321,2461.93045 218.605469,2462.41189 218.605469,2462.5 C218.605469,2462.58811 218.602321,2463.06955 218.596029,2463.94434 C218.589736,2464.81912 218.589736,2465.48307 218.596029,2465.9362 C218.602321,2466.38932 218.621202,2466.99664 218.652669,2467.75814 C218.684137,2468.51964 218.74707,2469.16786 218.841471,2469.7028 C218.935872,2470.23774 219.052301,2470.68772 219.190755,2471.05273 C219.442491,2471.68208 219.807509,2472.23589 220.285807,2472.71419 C220.764105,2473.19249 221.317926,2473.55751 221.947266,2473.80924 C222.312282,2473.9477 222.762262,2474.06413 223.297201,2474.15853 C223.832141,2474.25293 224.480361,2474.31586 225.241862,2474.34733 C226.003365,2474.3788 226.610677,2474.39768 227.063802,2474.40397 C227.516927,2474.41027 228.180882,2474.41027 229.055664,2474.40397 C229.930448,2474.39768 230.411894,2474.39453 230.5,2474.39453 C230.588108,2474.39453 231.069554,2474.39768 231.944336,2474.40397 C232.819113,2474.41027 233.483073,2474.41027 233.936198,2474.40397 C234.389323,2474.39768 234.996643,2474.3788 235.758138,2474.34733 C236.519633,2474.31586 237.167867,2474.25293 237.702799,2474.15853 C238.237732,2474.06413 238.687723,2473.9477 239.052734,2473.80924 C239.682068,2473.55751 240.2359,2473.19249 240.714193,2472.71419 C241.192485,2472.23589 241.557515,2471.68208 241.809245,2471.05273 C241.947693,2470.68772 242.064128,2470.23774 242.158529,2469.7028 C242.25293,2469.16786 242.315857,2468.51964 242.347331,2467.75814 C242.378804,2466.99664 242.397684,2466.38932 242.403971,2465.9362 C242.410258,2465.48307 242.410258,2464.81912 242.403971,2463.94434 C242.397684,2463.06955 242.394531,2462.58811 242.394531,2462.5 C242.394531,2462.41189 242.397684,2461.93045 242.403971,2461.05566 C242.410258,2460.18089 242.410258,2459.51693 242.403971,2459.0638 C242.397684,2458.61068 242.378804,2458.00336 242.347331,2457.24186 C242.315857,2456.48037 242.25293,2455.83213 242.158529,2455.2972 C242.064128,2454.76227 241.947693,2454.31228 241.809245,2453.94727 C241.557515,2453.31793 241.192485,2452.7641 240.714193,2452.28581 C240.2359,2451.80751 239.682068,2451.44249 239.052734,2451.19076 C238.687723,2451.05231 238.237732,2450.93587 237.702799,2450.84147 C237.167867,2450.74707 236.519633,2450.68414 235.758138,2450.65267 C234.996643,2450.6212 234.389323,2450.60232 233.936198,2450.59603 C233.483073,2450.58974 232.819113,2450.58974 231.944336,2450.59603 C231.069554,2450.60232 230.588108,2450.60547 230.5,2450.60547 Z M245,2462.5 C245,2465.38238 244.968527,2467.37739 244.905599,2468.48503 C244.779725,2471.10308 243.999349,2473.12956 242.564453,2474.56445 C241.129557,2475.99935 239.103088,2476.77973 236.485026,2476.9056 C235.377381,2476.96853 233.382385,2477 230.5,2477 C227.617623,2477 225.622613,2476.96853 224.514974,2476.9056 C221.896918,2476.77973 219.870443,2475.99935 218.435547,2474.56445 C217.000651,2473.12956 216.22027,2471.10308 216.094401,2468.48503 C216.031468,2467.37739 216,2465.38238 216,2462.5 C216,2459.61762 216.031468,2457.62262 216.094401,2456.51497 C216.22027,2453.89691 217.000651,2451.87044 218.435547,2450.43555 C219.870443,2449.00065 221.896918,2448.22028 224.514974,2448.0944 C225.622613,2448.03147 227.617623,2448 230.5,2448 C233.382385,2448 235.377381,2448.03147 236.485026,2448.0944 C239.103088,2448.22028 241.129557,2449.00065 242.564453,2450.43555 C243.999349,2451.87044 244.779725,2453.89691 244.905599,2456.51497 C244.968527,2457.62262 245,2459.61762 245,2462.5 Z" id="Fill-1"></path>
        </g>
    </g>
</svg>