<?xml version="1.0" encoding="UTF-8"?>
<svg width="29px" height="28px" viewBox="0 0 29 28" version="1.1" xmlns="http://www.w3.org/2000/svg" xmlns:xlink="http://www.w3.org/1999/xlink">
    <!-- Generator: Sketch Beta 52 (66869) - http://www.bohemiancoding.com/sketch -->
    <title>Fill 1</title>
    <desc>Created with Sketch Beta.</desc>
    <g id="UI" stroke="none" stroke-width="1" fill="none" fill-rule="evenodd">
        <g id="About" transform="translate(-158.000000, -2447.000000)" fill="#FFFFFF">
            <path d="M164.589193,2456.09809 L164.589193,2475 L158.358724,2475 L158.358724,2456.09809 L164.589193,2456.09809 Z M164.985677,2450.26158 C164.998265,2451.18983 164.680446,2451.96548 164.032227,2452.58856 C163.384007,2453.21163 162.53125,2453.52316 161.473958,2453.52316 L161.436198,2453.52316 C160.404079,2453.52316 159.57335,2453.21163 158.94401,2452.58856 C158.314671,2451.96548 158,2451.18983 158,2450.26158 C158,2449.32062 158.324111,2448.54177 158.972331,2447.92507 C159.620551,2447.30836 160.467015,2447 161.511719,2447 C162.556423,2447 163.393447,2447.30836 164.022786,2447.92507 C164.652126,2448.54177 164.97309,2449.32062 164.985677,2450.26158 Z M187,2464.16621 L187,2475 L180.788411,2475 L180.788411,2464.89101 C180.788411,2463.55586 180.533529,2462.50999 180.023763,2461.75341 C179.513997,2460.99682 178.717876,2460.61853 177.635417,2460.61853 C176.842448,2460.61853 176.178488,2460.83787 175.643555,2461.27657 C175.108622,2461.71526 174.708984,2462.25886 174.444661,2462.90736 C174.306207,2463.28883 174.236979,2463.80381 174.236979,2464.45232 L174.236979,2475 L168.025391,2475 C168.050565,2469.92643 168.063151,2465.8129 168.063151,2462.6594 C168.063151,2459.5059 168.056858,2457.62398 168.044271,2457.01362 L168.025391,2456.09809 L174.236979,2456.09809 L174.236979,2458.84469 L174.199219,2458.84469 C174.450956,2458.43779 174.708984,2458.08174 174.973307,2457.77657 C175.23763,2457.47139 175.593201,2457.14079 176.040039,2456.78474 C176.486877,2456.42869 177.034403,2456.15213 177.682617,2455.95504 C178.330831,2455.75795 179.051432,2455.6594 179.844401,2455.6594 C181.996745,2455.6594 183.727437,2456.38101 185.036458,2457.82425 C186.34548,2459.26749 187,2461.38147 187,2464.16621 Z" id="Fill-1"></path>
        </g>
    </g>
</svg>