<?xml version="1.0" encoding="UTF-8"?>
<svg width="29px" height="23px" viewBox="0 0 29 23" version="1.1" xmlns="http://www.w3.org/2000/svg" xmlns:xlink="http://www.w3.org/1999/xlink">
    <!-- Generator: Sketch Beta 52 (66869) - http://www.bohemiancoding.com/sketch -->
    <title>Fill 1</title>
    <desc>Created with Sketch Beta.</desc>
    <g id="UI" stroke="none" stroke-width="1" fill="none" fill-rule="evenodd">
        <g id="About" transform="translate(-100.000000, -2451.000000)" fill="#FFFFFF">
            <path d="M129,2453.73125 C128.178082,2454.9052 127.184427,2455.90547 126.019036,2456.73203 C126.031309,2456.89973 126.037437,2457.1513 126.037437,2457.48672 C126.037437,2459.04402 125.804351,2460.59831 125.338198,2462.14961 C124.872045,2463.70091 124.163606,2465.18932 123.212881,2466.61484 C122.262155,2468.04037 121.130493,2469.30117 119.817893,2470.39727 C118.505294,2471.49336 116.922806,2472.36784 115.070431,2473.0207 C113.218064,2473.67357 111.236887,2474 109.126904,2474 C105.802453,2474 102.760152,2473.13151 100,2471.39453 C100.429356,2471.44245 100.907783,2471.46641 101.435279,2471.46641 C104.195431,2471.46641 106.655034,2470.63984 108.814086,2468.98672 C107.526015,2468.96276 106.372884,2468.57643 105.354695,2467.82773 C104.336507,2467.07904 103.637268,2466.1237 103.25698,2464.96172 C103.661802,2465.02162 104.035955,2465.05156 104.379442,2465.05156 C104.906938,2465.05156 105.428299,2464.98568 105.943528,2464.85391 C104.569585,2464.57839 103.431789,2463.91055 102.53014,2462.85039 C101.62849,2461.79023 101.177665,2460.55937 101.177665,2459.15781 L101.177665,2459.08594 C102.011844,2459.54114 102.90736,2459.78672 103.864213,2459.82266 C103.054569,2459.29558 102.410533,2458.60676 101.932107,2457.75625 C101.45368,2456.90574 101.214467,2455.98333 101.214467,2454.98906 C101.214467,2453.93489 101.484349,2452.95859 102.024112,2452.06016 C103.508461,2453.84505 105.314826,2455.27356 107.443211,2456.3457 C109.571595,2457.41784 111.850254,2458.0138 114.279188,2458.13359 C114.18105,2457.67839 114.13198,2457.23516 114.13198,2456.80391 C114.13198,2455.1987 114.711612,2453.83008 115.870876,2452.69805 C117.03014,2451.56602 118.43169,2451 120.075508,2451 C121.79293,2451 123.240482,2451.61094 124.418147,2452.83281 C125.755294,2452.58125 127.01269,2452.11406 128.190355,2451.43125 C127.736457,2452.80886 126.865482,2453.875 125.577411,2454.62969 C126.718274,2454.50989 127.859137,2454.21042 129,2453.73125 Z" id="Fill-1"></path>
        </g>
    </g>
</svg>