<svg height="845" width="900" xmlns="http://www.w3.org/2000/svg" xmlns:xlink="http://www.w3.org/1999/xlink"><linearGradient id="a" x1="100%" x2="0%" y1="50%" y2="50%"><stop offset="0" stop-color="#7403c2"/><stop offset="1" stop-color="#d37efb"/></linearGradient><g fill="none" fill-rule="evenodd" transform="translate(0 .55)"><g transform="translate(1 332)"><path d="m3.656 3.656h154.071v154.688h-154.071z" stroke="#fff439" stroke-width="7.312"/><ellipse cx="81.152" cy="80.537" fill="#90f" rx="15.677" ry="15.737"/><g transform="translate(245.54)"><path d="m3.656 3.656h154.071v154.688h-154.071z" stroke="#90f" stroke-width="7.312"/><ellipse cx="80.23" cy="80.537" fill="#fff439" rx="15.677" ry="15.737"/></g><g transform="translate(491.078)"><path d="m3.656 3.656h154.071v154.688h-154.071z" stroke="#3a3a3a" stroke-width="7.312"/><ellipse cx="80.23" cy="80.537" fill="#ddd" rx="15.677" ry="15.737"/></g><g transform="translate(736.617)"><path d="m3.656 3.656h154.071v154.688h-154.071z" stroke="#f5f5f5" stroke-width="7.312"/><ellipse cx="80.23" cy="80.537" fill="#3a3a3a" rx="15.677" ry="15.737"/></g></g><g transform="translate(1 110)"><g transform="translate(736.617)"><path d="m0 0h161.383v162h-161.383z" fill="#f5f5f5"/><ellipse cx="81.152" cy="80.537" fill="#3a3a3a" rx="15.677" ry="15.737"/></g><g transform="translate(245.54)"><path d="m0 0h161.383v162h-161.383z" fill="#90f"/><ellipse cx="80.23" cy="80.537" fill="#fff439" rx="15.677" ry="15.737"/></g><path d="m0 0h161.383v162h-161.383z" fill="#fff439"/><ellipse cx="81.152" cy="80.537" fill="#90f" rx="15.677" ry="15.737"/><g transform="translate(491.078)"><path d="m0 0h161.383v162h-161.383z" fill="#3a3a3a"/><ellipse cx="81.152" cy="80.537" fill="#ddd" rx="15.677" ry="15.737"/></g></g><g transform="translate(.933 546.528)"><path d="m0 0h897.674v297.513h-897.674z" fill="url(#a)"/><path d="m38.553 152.432h-1.83l-.665 3.734h-1.63l.664-3.734h-2.076v-1.54h2.35l.473-2.64h-2.139v-1.558h2.414l.683-3.79h1.62l-.673 3.79h1.83l.675-3.79h1.639l-.683 3.79h1.976v1.557h-2.25l-.473 2.641h2.031v1.54h-2.304l-.665 3.734h-1.63l.664-3.734zm-1.557-1.54h1.83l.465-2.64h-1.83zm16.795 5.274h-9.044v-1.73l4.29-4.61c.334-.364.616-.694.847-.992.23-.298.417-.57.56-.815.142-.246.246-.475.31-.688a2.283 2.283 0 0 0 -.032-1.412 1.664 1.664 0 0 0 -.36-.587 1.55 1.55 0 0 0 -.556-.369 1.933 1.933 0 0 0 -.715-.127c-.698 0-1.219.194-1.562.583-.343.388-.514.932-.514 1.63h-2.541a4.205 4.205 0 0 1 1.288-3.051c.41-.395.905-.706 1.485-.934a5.228 5.228 0 0 1 1.926-.341c.674 0 1.27.094 1.79.282.519.188.953.452 1.302.792.35.34.615.749.797 1.225.182.477.273 1.004.273 1.58 0 .438-.068.855-.204 1.253-.137.398-.331.79-.583 1.18-.252.388-.554.784-.907 1.188-.352.404-.743.827-1.174 1.27l-2.496 2.642h5.82v2.03zm9.918-4.928h1.54v2.05h-1.54v2.878h-2.532v-2.878h-5.51l-.1-1.585 5.574-8.798h2.568zm-5.656 0h3.124v-4.927l-.246.437zm16.85 0h1.54v2.05h-1.54v2.878h-2.533v-2.878h-5.51l-.1-1.585 5.573-8.798h2.569v8.333zm-5.656 0h3.124v-4.927l-.246.437zm18.088-.118c0 .856-.099 1.61-.296 2.263s-.481 1.2-.852 1.64c-.37.44-.822.772-1.357.997-.534.225-1.135.337-1.803.337-.662 0-1.26-.112-1.794-.337a3.58 3.58 0 0 1 -1.362-.997c-.373-.44-.662-.987-.865-1.64-.203-.652-.305-1.407-.305-2.263v-3.17c0-.856.1-1.61.3-2.263.2-.652.488-1.199.861-1.64.373-.44.826-.772 1.357-.996.531-.225 1.128-.337 1.79-.337.668 0 1.269.112 1.803.337a3.58 3.58 0 0 1 1.362.997c.373.44.66.987.86 1.64.2.652.301 1.406.301 2.263v3.17zm-6.084-1.093 3.534-2.632c-.018-.893-.173-1.554-.465-1.986-.291-.43-.728-.646-1.311-.646-.59 0-1.03.227-1.32.683-.292.455-.438 1.157-.438 2.104zm3.534-.91-3.534 2.622c.03.875.191 1.523.483 1.945.291.422.722.633 1.293.633.595 0 1.037-.23 1.325-.692.289-.462.433-1.17.433-2.122v-2.387zm4.964 7.049v-13.261h3.433c.88 0 1.678.15 2.391.45.714.301 1.324.72 1.83 1.258a5.6 5.6 0 0 1 1.176 1.926c.276.747.414 1.566.414 2.459v1.093c0 .892-.138 1.71-.414 2.454a5.722 5.722 0 0 1 -1.162 1.922 5.184 5.184 0 0 1 -1.794 1.253c-.698.297-1.47.446-2.313.446zm2.577-11.185v9.126h.984c.48 0 .91-.09 1.289-.273.379-.182.7-.446.965-.792.264-.346.466-.767.606-1.262a6.23 6.23 0 0 0 .21-1.69v-1.11c0-.595-.07-1.137-.206-1.626a3.67 3.67 0 0 0 -.61-1.261 2.79 2.79 0 0 0 -1.002-.82c-.398-.194-.858-.292-1.38-.292zm15.483-2.186v2.104h-.145c-.668 0-1.259.088-1.772.265-.513.176-.95.425-1.311.746a3.526 3.526 0 0 0 -.856 1.157c-.21.45-.342.95-.397 1.503.14-.152.301-.302.483-.451a3.732 3.732 0 0 1 1.357-.688c.267-.072.556-.109.865-.109.632 0 1.183.12 1.654.36.47.24.863.565 1.179.974.316.41.551.887.706 1.43.155.544.232 1.116.232 1.717 0 .644-.103 1.242-.31 1.794a4.241 4.241 0 0 1 -.883 1.44 4.098 4.098 0 0 1 -1.394.96c-.546.234-1.16.351-1.84.351-.71 0-1.35-.132-1.921-.396a4.194 4.194 0 0 1 -1.453-1.098 4.99 4.99 0 0 1 -.92-1.662 6.546 6.546 0 0 1 -.323-2.1v-.974c0-1.05.143-2.023.428-2.919.285-.895.71-1.67 1.275-2.322a5.834 5.834 0 0 1 2.104-1.53c.838-.368 1.806-.552 2.905-.552zm-2.513 6.558c-.456 0-.858.122-1.207.364-.35.243-.612.556-.788.939v.746c0 .486.05.911.15 1.276.1.364.242.666.424.906s.398.42.647.542c.248.121.519.182.81.182.298 0 .568-.062.81-.187a1.84 1.84 0 0 0 .62-.514c.17-.22.3-.479.392-.78.09-.3.136-.63.136-.987 0-.359-.045-.69-.136-.993a2.425 2.425 0 0 0 -.392-.788 1.805 1.805 0 0 0 -.624-.52 1.84 1.84 0 0 0 -.842-.186zm679.371 3.079h-1.83l-.665 3.734h-1.63l.664-3.734h-2.076v-1.54h2.35l.473-2.64h-2.14v-1.558h2.414l.683-3.79h1.62l-.673 3.79h1.83l.675-3.79h1.638l-.683 3.79h1.976v1.557h-2.25l-.473 2.641h2.031v1.54h-2.304l-.665 3.734h-1.63l.664-3.734zm-1.557-1.54h1.83l.465-2.64h-1.83zm10.674-2.468h1.376c.692 0 1.205-.174 1.539-.524.334-.349.5-.806.5-1.37 0-.261-.037-.5-.113-.715-.076-.216-.19-.401-.342-.556a1.525 1.525 0 0 0 -.578-.36 2.381 2.381 0 0 0 -.815-.127c-.255 0-.493.036-.715.11a1.796 1.796 0 0 0 -.583.313 1.446 1.446 0 0 0 -.542 1.152h-2.532c0-.54.111-1.032.333-1.475.221-.443.526-.824.915-1.143a4.284 4.284 0 0 1 1.37-.742 5.311 5.311 0 0 1 1.7-.264c.655 0 1.256.08 1.803.241.546.16 1.014.4 1.402.72.389.318.69.713.906 1.184.216.47.324 1.015.324 1.634 0 .286-.043.567-.128.843s-.21.539-.373.788a3.32 3.32 0 0 1 -.61.687c-.243.21-.523.39-.838.542.37.134.69.304.96.51.27.207.494.442.67.706s.307.554.392.87.127.65.127 1.002c0 .62-.118 1.172-.355 1.657a3.531 3.531 0 0 1 -.975 1.225c-.412.331-.903.583-1.47.756-.568.173-1.18.26-1.836.26a5.94 5.94 0 0 1 -1.653-.232 4.42 4.42 0 0 1 -1.434-.702 3.505 3.505 0 0 1 -1.007-1.18c-.252-.473-.378-1.031-.378-1.675h2.532c0 .255.049.49.146.706s.235.4.414.556c.18.154.39.276.633.364s.51.132.802.132c.644 0 1.148-.17 1.512-.51s.546-.802.546-1.385a2.45 2.45 0 0 0 -.155-.92 1.563 1.563 0 0 0 -.45-.628 1.922 1.922 0 0 0 -.71-.364 3.398 3.398 0 0 0 -.934-.119h-1.376zm16.968 2.25h-5.683v5.492h-2.568v-13.261h8.962v2.085h-6.394v3.607h5.683zm11.986 1.339a5.045 5.045 0 0 1 -.432 1.803c-.246.534-.576.99-.989 1.366a4.307 4.307 0 0 1 -1.475.87 5.61 5.61 0 0 1 -1.895.305c-.783 0-1.478-.144-2.085-.433a4.267 4.267 0 0 1 -1.53-1.21c-.413-.52-.729-1.144-.948-1.873a8.342 8.342 0 0 1 -.327-2.404v-1.785c0-.88.115-1.685.346-2.414.23-.728.558-1.354.983-1.876s.94-.927 1.544-1.216c.604-.288 1.283-.432 2.036-.432.728 0 1.377.103 1.944.31.568.206 1.052.5 1.453.883.4.382.716.85.947 1.402.23.553.377 1.175.437 1.867h-2.55a4.341 4.341 0 0 0 -.177-1.038 1.97 1.97 0 0 0 -.41-.742 1.683 1.683 0 0 0 -.674-.446c-.27-.1-.594-.15-.97-.15-.395 0-.738.084-1.03.254-.29.17-.532.42-.724.747-.19.328-.332.73-.423 1.207a8.716 8.716 0 0 0 -.137 1.626v1.803c0 1.305.184 2.27.551 2.896.368.626.95.938 1.744.938.668 0 1.197-.177 1.585-.532.389-.356.604-.93.647-1.726h2.56zm10.146-1.658h-5.446v3.743h6.366v2.068h-8.935v-13.261h8.908v2.085h-6.34v3.343h5.447zm11.449.319h-5.683v5.492h-2.569v-13.261h8.962v2.085h-6.393v3.607h5.683zm11.193 0h-5.683v5.492h-2.568v-13.261h8.962v2.085h-6.394v3.607h5.683z" fill="#fff"/></g><path d="m10.173 36.576a5.762 5.762 0 0 1 -.473 1.689 4.357 4.357 0 0 1 -.925 1.32c-.38.368-.828.653-1.348.857a4.72 4.72 0 0 1 -1.735.305 4.52 4.52 0 0 1 -1.489-.232 4.099 4.099 0 0 1 -1.193-.642 4.262 4.262 0 0 1 -.902-.966 5.864 5.864 0 0 1 -.628-1.211 7.282 7.282 0 0 1 -.373-1.375 9.32 9.32 0 0 1 -.132-1.458v-1.849a9.32 9.32 0 0 1 .132-1.457c.082-.48.206-.938.373-1.375s.376-.843.628-1.216a4.112 4.112 0 0 1 2.09-1.612 4.51 4.51 0 0 1 1.494-.232c.662 0 1.254.101 1.776.305.523.203.972.492 1.348.865.377.373.679.821.907 1.343.227.523.378 1.1.45 1.73h-1.683a4.964 4.964 0 0 0 -.283-1.12 3.086 3.086 0 0 0 -.537-.91 2.378 2.378 0 0 0 -.824-.615c-.325-.149-.71-.223-1.153-.223-.4 0-.754.065-1.06.196-.307.13-.571.308-.793.533a3.044 3.044 0 0 0 -.556.783 5.13 5.13 0 0 0 -.36.947 6.785 6.785 0 0 0 -.195 1.025c-.04.349-.06.687-.06 1.015v1.867c0 .328.02.667.06 1.016s.105.692.196 1.029c.09.337.21.654.355.952.146.297.33.56.555.788.225.227.49.406.793.537.303.13.659.196 1.065.196.444 0 .828-.07 1.153-.21.324-.14.6-.335.824-.587s.404-.55.537-.893c.134-.343.228-.715.283-1.115h1.684zm2.132-1.03c0-.71.103-1.37.31-1.98.206-.61.502-1.14.887-1.59.386-.45.855-.803 1.408-1.061.552-.258 1.174-.387 1.867-.387.698 0 1.325.129 1.88.387a4.124 4.124 0 0 1 1.412 1.061c.386.45.682.98.888 1.59.207.61.31 1.27.31 1.98v.2c0 .711-.103 1.37-.31 1.977a4.754 4.754 0 0 1 -.888 1.585c-.385.45-.854.801-1.407 1.056s-1.175.383-1.867.383c-.698 0-1.325-.128-1.88-.383a4.074 4.074 0 0 1 -1.413-1.056 4.754 4.754 0 0 1 -.888-1.585 6.103 6.103 0 0 1 -.31-1.976v-.2zm1.685.2c0 .486.057.95.173 1.39.115.44.29.827.523 1.16.234.335.527.599.88.793.351.195.761.292 1.229.292.461 0 .867-.097 1.216-.292.349-.194.64-.458.874-.792s.408-.721.524-1.161c.115-.44.173-.904.173-1.39v-.2c0-.48-.06-.94-.178-1.38a3.666 3.666 0 0 0 -.528-1.16 2.644 2.644 0 0 0 -.874-.798c-.35-.197-.758-.296-1.225-.296-.468 0-.875.099-1.22.296a2.66 2.66 0 0 0 -.87.797 3.593 3.593 0 0 0 -.524 1.162c-.116.44-.173.9-.173 1.38v.2zm10.246-9.17h5.037v12.532h3.215v1.457h-8.252v-1.457h3.352v-11.068h-3.352v-1.466zm10.456 8.97c0-.71.103-1.37.31-1.98.206-.61.502-1.14.887-1.59.386-.45.855-.803 1.408-1.061.552-.258 1.174-.387 1.867-.387.698 0 1.325.129 1.88.387a4.124 4.124 0 0 1 1.412 1.061c.386.45.682.98.888 1.59.207.61.31 1.27.31 1.98v.2c0 .711-.103 1.37-.31 1.977a4.754 4.754 0 0 1 -.888 1.585c-.385.45-.854.801-1.407 1.056s-1.175.383-1.867.383c-.698 0-1.325-.128-1.88-.383a4.074 4.074 0 0 1 -1.413-1.056 4.754 4.754 0 0 1 -.888-1.585 6.103 6.103 0 0 1 -.31-1.976v-.2zm1.685.2c0 .486.057.95.173 1.39.115.44.29.827.523 1.16.234.335.527.599.88.793.352.195.761.292 1.229.292.461 0 .867-.097 1.216-.292.349-.194.64-.458.874-.792s.408-.721.524-1.161c.115-.44.173-.904.173-1.39v-.2c0-.48-.06-.94-.178-1.38a3.666 3.666 0 0 0 -.528-1.16 2.644 2.644 0 0 0 -.874-.798c-.35-.197-.758-.296-1.225-.296-.468 0-.875.099-1.22.296a2.66 2.66 0 0 0 -.87.797 3.593 3.593 0 0 0 -.524 1.162c-.116.44-.173.9-.173 1.38v.2zm16.44-5.218c.157 0 .321.004.491.014.17.009.333.024.487.045.155.021.298.047.429.078.13.03.238.063.323.1l-.228 1.648a8.207 8.207 0 0 0 -1.858-.21c-.79 0-1.428.18-1.917.538s-.849.86-1.08 1.503v6.32h-1.693v-9.854h1.603l.082 1.567c.4-.54.881-.967 1.443-1.28s1.2-.47 1.917-.47zm17.769 4.718v5.319h-1.686v-13.261h4.3a5.71 5.71 0 0 1 1.69.282c.53.176.996.431 1.397.765s.718.747.952 1.239.35 1.056.35 1.694c0 .637-.116 1.2-.35 1.69-.234.488-.551.9-.952 1.233-.4.334-.867.59-1.398.766a5.517 5.517 0 0 1 -1.69.273zm0-1.385h2.614a3.296 3.296 0 0 0 1.074-.186c.328-.119.614-.287.857-.506a2.29 2.29 0 0 0 .569-.797 2.65 2.65 0 0 0 .205-1.07c0-.4-.069-.762-.205-1.084a2.383 2.383 0 0 0 -.565-.82 2.491 2.491 0 0 0 -.856-.519 3.26 3.26 0 0 0 -1.08-.19h-2.613zm15.83 6.704a1.835 1.835 0 0 1 -.16-.478 5.222 5.222 0 0 1 -.087-.597c-.17.17-.36.331-.569.483-.21.152-.44.285-.692.4-.252.116-.52.207-.806.274s-.59.1-.911.1c-.522 0-.994-.076-1.416-.228a3.31 3.31 0 0 1 -1.075-.615 2.68 2.68 0 0 1 -.683-.92 2.76 2.76 0 0 1 -.241-1.152c0-.54.107-1.014.323-1.42.215-.407.52-.746.915-1.016s.87-.472 1.426-.606a7.98 7.98 0 0 1 1.862-.2h1.84v-.774c0-.298-.055-.565-.164-.802a1.714 1.714 0 0 0 -.465-.605 2.134 2.134 0 0 0 -.733-.387 3.214 3.214 0 0 0 -.97-.137c-.334 0-.633.043-.897.128a2.196 2.196 0 0 0 -.67.336c-.181.14-.323.306-.423.497s-.15.39-.15.596h-1.694c.006-.358.099-.71.278-1.056a2.98 2.98 0 0 1 .774-.934c.337-.276.747-.499 1.23-.669.482-.17 1.03-.255 1.643-.255.559 0 1.078.068 1.558.205.48.136.894.343 1.243.62.35.275.624.62.824 1.033s.3.896.3 1.448v4.581c0 .328.031.676.092 1.043.06.368.146.688.255.961v.146h-1.758zm-2.98-1.284c.329 0 .635-.043.92-.128.286-.085.546-.197.78-.337.233-.14.435-.299.605-.478.17-.18.304-.366.4-.56v-1.995h-1.566c-.983 0-1.748.146-2.295.437-.546.292-.82.75-.82 1.376 0 .242.041.467.123.674.082.206.205.384.37.532.163.15.37.266.619.351s.537.128.865.128zm7.961-12.706h5.037v12.533h3.215v1.457h-8.252v-1.457h3.352v-11.068h-3.352v-1.466zm15.283 14.172a5 5 0 0 1 -1.908-.355 4.33 4.33 0 0 1 -1.49-.993 4.541 4.541 0 0 1 -.965-1.512 5.126 5.126 0 0 1 -.346-1.903v-.384c0-.795.128-1.507.383-2.136a4.897 4.897 0 0 1 1.015-1.594 4.43 4.43 0 0 1 1.44-.997 4.151 4.151 0 0 1 1.653-.346c.71 0 1.33.123 1.862.369.531.246.973.586 1.325 1.02s.615.946.788 1.535.26 1.226.26 1.912v.756h-7.04c.018.45.104.871.259 1.266s.367.74.637 1.034a2.946 2.946 0 0 0 2.218.952c.601 0 1.136-.122 1.603-.365a3.477 3.477 0 0 0 1.166-.965l1.03.801a3.91 3.91 0 0 1 -.616.715c-.246.228-.53.43-.851.606a4.791 4.791 0 0 1 -1.093.424c-.407.106-.85.159-1.33.159zm-.218-8.835c-.34 0-.662.063-.966.187a2.519 2.519 0 0 0 -.82.547c-.243.24-.447.534-.614.883-.167.35-.284.751-.351 1.207h5.3v-.128a3.762 3.762 0 0 0 -.186-.974 2.715 2.715 0 0 0 -.47-.866 2.347 2.347 0 0 0 -.778-.619c-.312-.158-.684-.237-1.115-.237zm11.047-3.588v2.386h3.753v1.303h-3.753v5.355c0 .382.049.698.146.947.097.25.23.448.4.597.17.148.367.253.588.314.222.06.457.091.706.091.182 0 .37-.01.565-.032a10.731 10.731 0 0 0 1.088-.173c.161-.033.293-.062.396-.086l.237 1.193c-.14.085-.31.16-.51.223-.2.064-.419.118-.656.164a8.6 8.6 0 0 1 -1.54.141c-.436 0-.844-.062-1.224-.187a2.54 2.54 0 0 1 -.988-.592c-.28-.27-.5-.62-.66-1.047-.161-.428-.242-.946-.242-1.553v-5.355h-2.586v-1.303h2.586v-2.386zm11.194 0v2.386h3.752v1.303h-3.752v5.355c0 .382.048.698.146.947.097.25.23.448.4.597.17.148.366.253.588.314.221.06.457.091.706.091.182 0 .37-.01.564-.032a10.731 10.731 0 0 0 1.089-.173c.16-.033.293-.062.396-.086l.237 1.193c-.14.085-.31.16-.51.223-.2.064-.42.118-.656.164a8.6 8.6 0 0 1 -1.54.141c-.437 0-.845-.062-1.224-.187a2.54 2.54 0 0 1 -.989-.592c-.279-.27-.499-.62-.66-1.047-.16-.428-.241-.946-.241-1.553v-5.355h-2.587v-1.303h2.587v-2.386zm11.558 12.423a5 5 0 0 1 -1.908-.355 4.33 4.33 0 0 1 -1.49-.993 4.541 4.541 0 0 1 -.965-1.512 5.126 5.126 0 0 1 -.346-1.903v-.384c0-.795.127-1.507.382-2.136a4.897 4.897 0 0 1 1.016-1.594 4.43 4.43 0 0 1 1.439-.997 4.151 4.151 0 0 1 1.653-.346c.71 0 1.331.123 1.863.369.53.246.973.586 1.325 1.02s.615.946.788 1.535.26 1.226.26 1.912v.756h-7.041c.018.45.105.871.26 1.266.154.395.367.74.637 1.034a2.946 2.946 0 0 0 2.218.952c.6 0 1.135-.122 1.603-.365a3.477 3.477 0 0 0 1.166-.965l1.029.801a3.91 3.91 0 0 1 -.615.715c-.246.228-.53.43-.852.606a4.791 4.791 0 0 1 -1.093.424c-.406.106-.85.159-1.33.159zm-.219-8.835c-.34 0-.662.063-.965.187a2.519 2.519 0 0 0 -.82.547c-.243.24-.448.534-.615.883-.167.35-.284.751-.35 1.207h5.3v-.128a3.762 3.762 0 0 0 -.186-.974 2.715 2.715 0 0 0 -.47-.866 2.347 2.347 0 0 0 -.778-.619c-.313-.158-.685-.237-1.116-.237z" fill="#939393"/><path d="m0 0h899.067358v.93264249h-899.067358z" fill="#fff" opacity=".6"/></g></svg>