<svg width="543" height="81" xmlns="http://www.w3.org/2000/svg" xmlns:xlink="http://www.w3.org/1999/xlink"><defs><path id="a" d="M.98.073v.293H.12V.073H.98z"/></defs><g fill="none" fill-rule="evenodd"><path d="M254.334 80.272c-2.771 0-4.783-2.023-4.783-4.81v-59.38l-25.163 40.843c-1.553 2.454-3.02 3.37-5.408 3.37-2.327 0-3.895-.98-5.414-3.38l-23.902-38.539v57.086c0 2.832-2.017 4.81-4.906 4.81-2.77 0-4.78-2.023-4.78-4.81V18.35L156.21 56.925c-1.553 2.454-3.02 3.37-5.408 3.37-2.327 0-3.895-.98-5.414-3.38L120.23 16.35v59.112c0 2.832-2.018 4.81-4.907 4.81-2.772 0-4.783-2.023-4.783-4.81v-68.1c0-2.01.596-3.673 1.722-4.805 1.147-1.154 2.853-1.763 4.934-1.763 3.918 0 5.932 2.109 8.277 6l26.08 42.64 26.949-44.27c1.715-2.76 3.29-3.963 5.612-4.285V.874c.308-.04.63-.065.958-.075h.02l.012-.001a9.85 9.85 0 0 1 .268-.004h.045c.087 0 .183.001.278.005 3.72.114 5.666 2.195 7.956 5.996l26.08 42.64 26.949-44.27c2.261-3.64 4.319-4.371 6.904-4.371 3.49 0 5.657 2.18 5.657 5.69v68.978c0 2.832-2.018 4.81-4.907 4.81m-249.58-.251c-2.668 0-4.532-1.875-4.532-4.559V6.483c0-2.906 1.967-4.936 4.783-4.936 2.889 0 4.907 2.03 4.907 4.936v64.546h38.837V5.73c0-2.684 1.863-4.559 4.532-4.559h41.1c2.712 0 4.533 1.832 4.533 4.559 0 2.651-1.821 4.433-4.532 4.433H58.438v25.812h30.947c2.71 0 4.532 1.782 4.532 4.433 0 2.684-1.864 4.559-4.532 4.559H58.438V71.03h35.944c2.71 0 4.532 1.832 4.532 4.559 0 2.651-1.821 4.433-4.532 4.433H4.755zM306.21 10.74c-7.654 0-14.848 3.148-20.257 8.863-5.403 5.71-8.38 13.305-8.38 21.386 0 16.613 12.847 30.128 28.637 30.128 15.857 0 28.757-13.46 28.757-30.007 0-8.095-2.981-15.71-8.394-21.446-5.432-5.754-12.663-8.924-20.363-8.924m0 69.494c-21.251 0-38.54-17.605-38.54-39.245 0-10.519 4.013-20.407 11.299-27.844 7.28-7.43 16.955-11.521 27.241-11.521 21.251 0 38.54 17.713 38.54 39.486 0 10.458-4.011 20.287-11.297 27.676-7.279 7.382-16.954 11.448-27.243 11.448m108.64.163c-3.794 0-5.67-1.715-8.696-5.816l-42.614-57.19v58.07c0 2.832-2.018 4.81-4.908 4.81-2.77 0-4.782-2.023-4.782-4.81V7.237c0-4.095 2.062-6.443 5.657-6.443 3.492 0 5.366 1.862 7.797 5.529l.012.018 43.126 58.223V5.73c0-2.787 2.011-4.81 4.782-4.81 2.86 0 4.783 1.933 4.783 4.81v68.35c0 3.956-1.928 6.318-5.158 6.318m93.284-.126c-2.771 0-4.783-2.023-4.783-4.81v-65.3h-62.106v25.812h30.946c2.711 0 4.533 1.782 4.533 4.433 0 2.684-1.864 4.559-4.533 4.559h-30.946v26.063h35.943c2.711 0 4.533 1.832 4.533 4.559 0 2.651-1.822 4.433-4.533 4.433h-41.1c-2.67 0-4.533-1.875-4.533-4.559V5.73c0-2.684 1.864-4.559 4.532-4.559h97.906c2.678 0 4.408 1.79 4.408 4.559 0 2.693-1.73 4.433-4.408 4.433H513.04v65.3c0 2.832-2.018 4.81-4.907 4.81" fill="#FFF"/><path d="M538.361 75.358c0 2.72-2.192 4.924-4.896 4.924-2.704 0-4.896-2.204-4.896-4.924s2.192-4.924 4.896-4.924c2.704 0 4.896 2.204 4.896 4.924" fill="#FFF439"/><g transform="translate(541.439 70.856)"><mask id="b" fill="#fff"><use xlink:href="#a"/></mask><path d="M.121.073H.98" stroke="#000" stroke-width="4.62" mask="url(#b)"/></g></g></svg>