<svg height="245" width="900" xmlns="http://www.w3.org/2000/svg"><g fill="none" fill-rule="evenodd"><g transform="translate(0 32)"><path d="m203.616 141h-4.064v-15.63h-13.866v15.63h-4.04v-33.816h4.04v14.54h13.866v-14.54h4.064zm23.643-3.46c-.836 1.238-1.881 2.202-3.135 2.891-1.255.689-2.702 1.033-4.343 1.033-1.317 0-2.509-.205-3.577-.615a6.858 6.858 0 0 1 -2.74-1.916c-.76-.867-1.344-1.97-1.754-3.31-.41-1.339-.616-2.945-.616-4.819v-14.933h4.297v14.98c0 1.362.108 2.492.325 3.39.217.899.542 1.615.976 2.149.433.534.963.91 1.59 1.126.628.217 1.351.325 2.172.325 1.75 0 3.163-.356 4.239-1.068a6.482 6.482 0 0 0 2.403-2.88v-18.022h4.32v25.129h-3.902zm14.214-21.67.116 2.37c.51-.883 1.18-1.572 2.009-2.068.828-.495 1.83-.75 3.007-.766 2.307 0 3.848.898 4.622 2.694a5.737 5.737 0 0 1 1.963-1.94c.813-.487 1.8-.738 2.96-.754 1.843 0 3.26.565 4.251 1.695s1.486 2.842 1.486 5.133v18.766h-4.087v-18.812c0-2.106-.968-3.151-2.903-3.136-.511 0-.953.07-1.324.21-.372.139-.681.328-.93.568-.247.24-.44.52-.58.837s-.232.646-.278.987v19.346h-4.088v-18.835c0-1.007-.225-1.781-.674-2.323s-1.16-.805-2.136-.79c-.898 0-1.595.178-2.09.535a3.11 3.11 0 0 0 -1.092 1.416v19.997h-4.088v-25.13zm43.082 25.13c-.17-.325-.306-.732-.406-1.22-.101-.487-.175-.994-.221-1.52-.434.433-.917.843-1.452 1.23-.534.387-1.122.728-1.765 1.022a10.88 10.88 0 0 1 -2.055.697c-.728.17-1.502.255-2.323.255-1.331 0-2.535-.193-3.611-.58s-1.99-.91-2.74-1.568a6.835 6.835 0 0 1 -1.743-2.346 7.036 7.036 0 0 1 -.615-2.937c0-1.379.275-2.586.824-3.624a7.183 7.183 0 0 1 2.335-2.59c1.006-.688 2.218-1.203 3.634-1.544 1.417-.34 3-.51 4.75-.51h4.691v-1.975c0-.758-.14-1.44-.418-2.044a4.37 4.37 0 0 0 -1.184-1.544c-.511-.426-1.134-.755-1.87-.987-.735-.232-1.56-.348-2.473-.348-.852 0-1.614.108-2.288.325s-1.243.503-1.707.86a3.82 3.82 0 0 0 -1.08 1.265 3.237 3.237 0 0 0 -.383 1.521h-4.32c.015-.913.252-1.811.708-2.694.457-.883 1.115-1.676 1.974-2.38.86-.705 1.905-1.274 3.136-1.708 1.23-.433 2.628-.65 4.192-.65 1.424 0 2.748.174 3.971.523 1.224.348 2.28.874 3.17 1.579a7.47 7.47 0 0 1 2.102 2.636c.511 1.053.767 2.284.767 3.693v11.682c0 .836.077 1.722.232 2.66.155.936.372 1.753.65 2.45v.371zm-7.595-3.275a8.18 8.18 0 0 0 2.346-.325 8.691 8.691 0 0 0 1.986-.86 7.21 7.21 0 0 0 1.544-1.219 5.948 5.948 0 0 0 1.022-1.428v-5.086h-3.994c-2.509 0-4.46.371-5.853 1.115-1.394.743-2.09 1.912-2.09 3.507 0 .619.104 1.192.313 1.718.21.527.523.98.94 1.359.419.38.945.677 1.58.894s1.37.325 2.206.325zm23.48-21.854.303 3.716c.913-1.301 2.036-2.32 3.367-3.055 1.332-.735 2.818-1.11 4.46-1.126 1.316 0 2.512.186 3.588.557a6.859 6.859 0 0 1 2.752 1.742c.759.79 1.343 1.793 1.754 3.008.41 1.215.615 2.66.615 4.331v15.956h-4.297v-15.863c0-1.114-.123-2.059-.371-2.833s-.616-1.401-1.103-1.881a4.31 4.31 0 0 0 -1.789-1.045c-.704-.217-1.513-.326-2.427-.326-1.44 0-2.705.36-3.797 1.08a7.964 7.964 0 0 0 -2.613 2.845v18.023h-4.296v-25.13h3.855zm25.363 0h12.843v21.413h8.198v3.716h-21.041v-3.716h8.546v-17.674h-8.546v-3.74zm7.989-6.596c0-.713.213-1.313.639-1.8.425-.488 1.072-.732 1.939-.732.852 0 1.494.244 1.928.732.433.487.65 1.087.65 1.8 0 .696-.217 1.277-.65 1.742-.434.464-1.076.696-1.928.696-.867 0-1.514-.232-1.94-.696-.425-.465-.638-1.046-.638-1.742zm30.053.51v6.086h9.569v3.32h-9.569v13.657c0 .975.124 1.78.372 2.415.247.635.588 1.142 1.022 1.522.433.379.932.646 1.498.8a6.785 6.785 0 0 0 1.8.233c.464 0 .944-.027 1.44-.081.495-.054.979-.12 1.451-.198.472-.077.914-.158 1.324-.243.41-.086.747-.16 1.01-.221l.604 3.042a6.01 6.01 0 0 1 -1.3.57c-.512.162-1.069.301-1.673.418-.604.116-1.242.205-1.916.267a21.93 21.93 0 0 1 -2.009.092 9.965 9.965 0 0 1 -3.124-.476 6.475 6.475 0 0 1 -2.52-1.51c-.712-.688-1.273-1.579-1.683-2.67-.41-1.092-.616-2.412-.616-3.96v-13.656h-6.596v-3.321h6.596v-6.085h4.32zm27.615 22.297 1.114 3.042 7.665-19.253h4.807l-12.75 29.008c-.294.65-.67 1.339-1.127 2.067a10.482 10.482 0 0 1 -1.66 2.02 8.834 8.834 0 0 1 -2.276 1.556c-.867.418-1.866.627-2.996.627-.202 0-.426-.011-.674-.035a12.174 12.174 0 0 1 -1.44-.22 74.799 74.799 0 0 1 -.534-.116l.697-3.507c.108 0 .255.007.441.023l.58.046a16.58 16.58 0 0 0 1.023.047c.588 0 1.126-.163 1.614-.488a6.188 6.188 0 0 0 1.3-1.161 9.07 9.07 0 0 0 .976-1.394c.27-.48.484-.874.638-1.184l1.72-3.344-10.824-23.945h4.808l6.898 16.21zm53.51 11.821h-3.855l14.12-36.719h3.833l-14.098 36.72zm56.135-36.719 5.504 16.908 5.946-16.908h5.341v33.816h-4.18v-13.494l.348-14.12-6.247 18.208h-2.462l-5.737-17.72.349 13.632v13.494h-4.18v-33.816zm40.342 33.816c-.17-.325-.306-.732-.407-1.22-.1-.487-.174-.994-.22-1.52-.434.433-.918.843-1.452 1.23s-1.123.728-1.765 1.022a10.88 10.88 0 0 1 -2.056.697c-.727.17-1.501.255-2.322.255-1.332 0-2.535-.193-3.612-.58-1.076-.387-1.99-.91-2.74-1.568a6.835 6.835 0 0 1 -1.742-2.346 7.036 7.036 0 0 1 -.615-2.937c0-1.379.274-2.586.824-3.624a7.183 7.183 0 0 1 2.334-2.59c1.007-.688 2.218-1.203 3.635-1.544 1.417-.34 3-.51 4.75-.51h4.69v-1.975c0-.758-.139-1.44-.417-2.044a4.37 4.37 0 0 0 -1.185-1.544c-.51-.426-1.134-.755-1.87-.987-.735-.232-1.56-.348-2.473-.348-.851 0-1.614.108-2.287.325-.674.217-1.243.503-1.707.86a3.82 3.82 0 0 0 -1.08 1.265 3.237 3.237 0 0 0 -.384 1.521h-4.32c.016-.913.252-1.811.709-2.694s1.115-1.676 1.974-2.38c.86-.705 1.904-1.274 3.135-1.708 1.231-.433 2.629-.65 4.192-.65 1.425 0 2.749.174 3.972.523 1.223.348 2.28.874 3.17 1.579a7.47 7.47 0 0 1 2.102 2.636c.511 1.053.766 2.284.766 3.693v11.682c0 .836.078 1.722.233 2.66.155.936.371 1.753.65 2.45v.371zm-7.595-3.275a8.18 8.18 0 0 0 2.346-.325 8.691 8.691 0 0 0 1.985-.86 7.21 7.21 0 0 0 1.545-1.219 5.948 5.948 0 0 0 1.022-1.428v-5.086h-3.995c-2.508 0-4.46.371-5.853 1.115-1.393.743-2.09 1.912-2.09 3.507 0 .619.105 1.192.314 1.718.209.527.522.98.94 1.359.418.38.945.677 1.58.894.634.217 1.37.325 2.206.325zm29.798-27.94v6.086h9.568v3.32h-9.568v13.657c0 .975.124 1.78.371 2.415.248.635.589 1.142 1.022 1.522.434.379.933.646 1.498.8a6.785 6.785 0 0 0 1.8.233c.465 0 .945-.027 1.44-.081.496-.054.98-.12 1.452-.198.472-.077.913-.158 1.323-.243.41-.086.747-.16 1.01-.221l.605 3.042a6.01 6.01 0 0 1 -1.301.57c-.511.162-1.068.301-1.672.418-.604.116-1.243.205-1.916.267a21.93 21.93 0 0 1 -2.01.092 9.965 9.965 0 0 1 -3.123-.476 6.475 6.475 0 0 1 -2.52-1.51c-.712-.688-1.273-1.579-1.684-2.67-.41-1.092-.615-2.412-.615-3.96v-13.656h-6.596v-3.321h6.596v-6.085h4.32zm34.675 27.754c-.837 1.24-1.882 2.203-3.136 2.892s-2.702 1.033-4.343 1.033c-1.316 0-2.508-.205-3.577-.615a6.858 6.858 0 0 1 -2.74-1.916c-.759-.867-1.343-1.97-1.754-3.31-.41-1.339-.615-2.945-.615-4.819v-14.933h4.297v14.98c0 1.362.108 2.492.325 3.39.216.899.542 1.615.975 2.149.434.534.964.91 1.591 1.126.627.217 1.351.325 2.172.325 1.75 0 3.162-.356 4.238-1.068a6.482 6.482 0 0 0 2.404-2.88v-18.022h4.32v25.129h-3.902l-.255-3.46zm28.706-22.133c.402 0 .82.012 1.254.035.433.023.847.062 1.242.116s.759.12 1.092.197c.333.078.608.163.824.256l-.58 4.204a22.9 22.9 0 0 0 -2.38-.407 20.928 20.928 0 0 0 -2.358-.128c-2.013 0-3.643.457-4.889 1.37-1.246.914-2.164 2.192-2.752 3.833v16.118h-4.32v-25.13h4.088l.209 3.995c1.022-1.378 2.249-2.465 3.68-3.263 1.433-.797 3.063-1.196 4.89-1.196zm12.75.465h12.844v21.413h8.198v3.716h-21.042v-3.716h8.547v-17.674h-8.547v-3.74zm7.99-6.596c0-.713.212-1.313.638-1.8.426-.488 1.072-.732 1.94-.732.851 0 1.494.244 1.927.732.434.487.65 1.087.65 1.8 0 .696-.216 1.277-.65 1.742-.433.464-1.076.696-1.927.696-.868 0-1.514-.232-1.94-.696-.426-.465-.638-1.046-.638-1.742zm30.053.51v6.086h9.568v3.32h-9.568v13.657c0 .975.124 1.78.371 2.415.248.635.589 1.142 1.022 1.522.434.379.933.646 1.498.8a6.785 6.785 0 0 0 1.8.233c.465 0 .945-.027 1.44-.081.496-.054.98-.12 1.452-.198.472-.077.913-.158 1.323-.243.41-.086.748-.16 1.01-.221l.605 3.042a6.01 6.01 0 0 1 -1.301.57c-.511.162-1.068.301-1.672.418-.604.116-1.243.205-1.916.267a21.93 21.93 0 0 1 -2.01.092 9.965 9.965 0 0 1 -3.123-.476 6.475 6.475 0 0 1 -2.52-1.51c-.712-.688-1.273-1.579-1.684-2.67-.41-1.092-.615-2.412-.615-3.96v-13.656h-6.596v-3.321h6.596v-6.085h4.32zm27.614 22.297 1.115 3.042 7.664-19.253h4.808l-12.75 29.008c-.295.65-.67 1.339-1.127 2.067a10.482 10.482 0 0 1 -1.66 2.02 8.834 8.834 0 0 1 -2.277 1.556c-.867.418-1.866.627-2.996.627-.201 0-.426-.011-.673-.035a12.174 12.174 0 0 1 -1.44-.22 74.799 74.799 0 0 1 -.534-.116l.696-3.507c.109 0 .256.007.442.023l.58.046a16.58 16.58 0 0 0 1.022.047c.588 0 1.127-.163 1.614-.488a6.188 6.188 0 0 0 1.3-1.161 9.07 9.07 0 0 0 .976-1.394c.271-.48.484-.874.639-1.184l1.719-3.344-10.823-23.945h4.807l6.898 16.21zm-557.307 40.326h-10.45v30.146h-4.181v-30.146h-10.452v-3.67h25.083zm16.839 30.61c-1.766 0-3.387-.301-4.866-.905s-2.744-1.448-3.797-2.531c-1.053-1.084-1.874-2.37-2.462-3.856-.589-1.486-.883-3.104-.883-4.854v-.975c0-2.029.325-3.844.976-5.446.65-1.603 1.513-2.958 2.59-4.065a11.298 11.298 0 0 1 3.669-2.543 10.586 10.586 0 0 1 4.215-.883c1.812 0 3.395.314 4.75.941 1.354.627 2.48 1.494 3.379 2.601.898 1.107 1.568 2.412 2.009 3.914s.662 3.127.662 4.877v1.928h-17.953a9.87 9.87 0 0 0 .662 3.228 8.386 8.386 0 0 0 1.626 2.636 7.511 7.511 0 0 0 2.473 1.777c.96.433 2.02.65 3.182.65 1.533 0 2.895-.31 4.087-.93a8.867 8.867 0 0 0 2.973-2.46l2.625 2.043a9.97 9.97 0 0 1 -1.568 1.823c-.627.58-1.351 1.095-2.172 1.545-.82.449-1.75.809-2.787 1.08-1.037.27-2.167.406-3.39.406zm-.558-22.527c-.867 0-1.688.158-2.462.476a6.423 6.423 0 0 0 -2.09 1.393c-.62.612-1.142 1.363-1.568 2.253-.425.89-.723 1.916-.894 3.077h13.517v-.325a9.594 9.594 0 0 0 -.476-2.485 6.923 6.923 0 0 0 -1.196-2.206 5.985 5.985 0 0 0 -1.986-1.58c-.797-.402-1.746-.603-2.845-.603zm28.706 19.044c.774 0 1.53-.124 2.265-.371a6.683 6.683 0 0 0 1.962-1.034 5.383 5.383 0 0 0 1.382-1.556c.348-.596.53-1.243.546-1.94h4.064a6.663 6.663 0 0 1 -.87 3.194 9.174 9.174 0 0 1 -2.265 2.671 11.498 11.498 0 0 1 -3.252 1.835c-1.223.457-2.5.685-3.832.685-1.904 0-3.569-.34-4.993-1.022-1.425-.681-2.613-1.599-3.565-2.752-.952-1.154-1.668-2.485-2.148-3.995s-.72-3.1-.72-4.773v-.975c0-1.657.24-3.244.72-4.761.48-1.518 1.196-2.853 2.148-4.006.952-1.154 2.14-2.071 3.565-2.753 1.424-.68 3.089-1.022 4.993-1.022 1.487 0 2.853.237 4.1.709 1.246.472 2.322 1.115 3.228 1.928a8.73 8.73 0 0 1 2.125 2.891 8.482 8.482 0 0 1 .766 3.577h-4.064a5.233 5.233 0 0 0 -.5-2.149 5.846 5.846 0 0 0 -1.288-1.776 5.96 5.96 0 0 0 -1.94-1.208 6.595 6.595 0 0 0 -2.427-.441c-1.331 0-2.45.267-3.356.8a6.526 6.526 0 0 0 -2.195 2.091 8.813 8.813 0 0 0 -1.196 2.892 14.686 14.686 0 0 0 -.36 3.228v.975c0 1.1.12 2.187.36 3.264a8.956 8.956 0 0 0 1.185 2.903 6.419 6.419 0 0 0 2.183 2.09c.906.534 2.032.801 3.38.801zm22.134-18.37c.898-1.317 2.005-2.343 3.32-3.078 1.317-.736 2.796-1.111 4.437-1.127 1.316 0 2.512.19 3.588.57a6.85 6.85 0 0 1 2.752 1.776c.759.805 1.343 1.823 1.754 3.054.41 1.231.615 2.69.615 4.378v15.816h-4.296v-15.862c0-2.06-.492-3.592-1.475-4.599-.983-1.006-2.389-1.502-4.216-1.486-1.378 0-2.628.337-3.75 1.01a8.075 8.075 0 0 0 -2.73 2.683v18.254h-4.296v-35.673h4.297v14.283zm28.102-3.74.302 3.716c.913-1.3 2.036-2.319 3.367-3.054 1.332-.736 2.818-1.111 4.46-1.127 1.316 0 2.512.186 3.588.558a6.859 6.859 0 0 1 2.752 1.742c.759.79 1.343 1.792 1.754 3.007.41 1.216.615 2.66.615 4.332v15.955h-4.297v-15.862c0-1.115-.123-2.06-.371-2.834s-.616-1.4-1.103-1.88a4.31 4.31 0 0 0 -1.789-1.046c-.704-.217-1.513-.325-2.427-.325-1.44 0-2.705.36-3.797 1.08a7.964 7.964 0 0 0 -2.613 2.845v18.022h-4.295v-25.129h3.855zm23.48 12.332c0-1.811.264-3.495.79-5.051s1.281-2.907 2.264-4.053a10.545 10.545 0 0 1 3.589-2.705c1.409-.659 2.996-.988 4.76-.988 1.781 0 3.38.33 4.797.988a10.515 10.515 0 0 1 3.6 2.705c.983 1.146 1.738 2.497 2.264 4.053.527 1.556.79 3.24.79 5.051v.511c0 1.812-.263 3.492-.79 5.04-.526 1.549-1.281 2.896-2.264 4.041a10.417 10.417 0 0 1 -3.589 2.694c-1.409.65-2.996.976-4.76.976-1.781 0-3.38-.325-4.797-.976a10.388 10.388 0 0 1 -3.6-2.694c-.983-1.145-1.738-2.492-2.264-4.04-.526-1.55-.79-3.23-.79-5.04zm4.297.511c0 1.24.147 2.42.441 3.542.294 1.123.74 2.11 1.336 2.961a6.592 6.592 0 0 0 2.24 2.021c.899.495 1.944.743 3.136.743 1.177 0 2.21-.248 3.1-.743a6.627 6.627 0 0 0 2.23-2.02c.597-.852 1.042-1.84 1.336-2.962s.441-2.303.441-3.542v-.51a13.49 13.49 0 0 0 -.453-3.52c-.302-1.122-.75-2.109-1.347-2.96a6.743 6.743 0 0 0 -2.23-2.033c-.89-.503-1.931-.754-3.123-.754s-2.23.251-3.112.754a6.782 6.782 0 0 0 -2.218 2.033c-.596.851-1.042 1.838-1.336 2.96a13.824 13.824 0 0 0 -.441 3.52zm26.128-23.387h12.843v31.957h8.199v3.716h-21.042v-3.716h8.547v-28.218h-8.547v-3.74zm26.662 22.876c0-1.811.264-3.495.79-5.051s1.281-2.907 2.264-4.053a10.545 10.545 0 0 1 3.589-2.705c1.409-.659 2.996-.988 4.76-.988 1.781 0 3.38.33 4.797.988a10.515 10.515 0 0 1 3.6 2.705c.983 1.146 1.738 2.497 2.264 4.053.527 1.556.79 3.24.79 5.051v.511c0 1.812-.263 3.492-.79 5.04-.526 1.549-1.281 2.896-2.264 4.041a10.417 10.417 0 0 1 -3.589 2.694c-1.409.65-2.996.976-4.76.976-1.781 0-3.38-.325-4.797-.976a10.388 10.388 0 0 1 -3.6-2.694c-.983-1.145-1.738-2.492-2.264-4.04-.526-1.55-.79-3.23-.79-5.04zm4.297.511c0 1.24.147 2.42.441 3.542.294 1.123.74 2.11 1.336 2.961a6.592 6.592 0 0 0 2.24 2.021c.899.495 1.944.743 3.136.743 1.177 0 2.21-.248 3.1-.743a6.627 6.627 0 0 0 2.23-2.02c.597-.852 1.042-1.84 1.336-2.962s.441-2.303.441-3.542v-.51a13.49 13.49 0 0 0 -.453-3.52c-.302-1.122-.75-2.109-1.347-2.96a6.743 6.743 0 0 0 -2.23-2.033c-.89-.503-1.931-.754-3.123-.754s-2.23.251-3.112.754a6.782 6.782 0 0 0 -2.218 2.033c-.596.851-1.042 1.838-1.336 2.96a13.824 13.824 0 0 0 -.441 3.52zm24.665-.487c0-1.874.228-3.596.685-5.168.457-1.571 1.119-2.922 1.986-4.053a9.272 9.272 0 0 1 3.158-2.647c1.24-.635 2.64-.953 4.204-.953 1.548 0 2.907.275 4.076.825a8.228 8.228 0 0 1 2.984 2.38l.21-2.74h3.901v24.595c0 1.657-.259 3.128-.778 4.413-.518 1.285-1.246 2.377-2.183 3.275s-2.055 1.579-3.356 2.043c-1.3.465-2.74.697-4.32.697-.65 0-1.393-.073-2.23-.22a13.53 13.53 0 0 1 -2.542-.72 11.723 11.723 0 0 1 -2.486-1.336 8.279 8.279 0 0 1 -2.055-2.067l2.23-2.578a11.006 11.006 0 0 0 1.625 1.614 8.374 8.374 0 0 0 1.696 1.057 7.847 7.847 0 0 0 1.718.57 8.631 8.631 0 0 0 1.72.173c1.021 0 1.942-.147 2.763-.441a5.75 5.75 0 0 0 2.102-1.289c.58-.565 1.026-1.266 1.335-2.102.31-.836.465-1.796.465-2.88v-2.16a8.385 8.385 0 0 1 -2.961 2.195c-1.139.503-2.458.755-3.96.755-1.533 0-2.919-.325-4.158-.976a9.298 9.298 0 0 1 -3.147-2.694c-.859-1.145-1.52-2.496-1.985-4.052s-.697-3.233-.697-5.029zm4.297.487c0 1.224.127 2.385.383 3.484.255 1.1.658 2.067 1.207 2.903a6.137 6.137 0 0 0 2.102 1.986c.852.488 1.874.732 3.066.732.743 0 1.413-.09 2.009-.268a5.66 5.66 0 0 0 1.602-.754 6.204 6.204 0 0 0 1.266-1.162c.372-.449.697-.944.976-1.486v-11.52a7.839 7.839 0 0 0 -.976-1.44 6.119 6.119 0 0 0 -1.277-1.126 6.077 6.077 0 0 0 -1.603-.743 6.716 6.716 0 0 0 -1.95-.267c-1.208 0-2.242.248-3.101.743a6.171 6.171 0 0 0 -2.114 2.009c-.55.844-.952 1.82-1.207 2.926a15.503 15.503 0 0 0 -.383 3.496zm34.28 3.368 1.114 3.042 7.665-19.253h4.807l-12.75 29.008c-.294.65-.67 1.34-1.127 2.067a10.482 10.482 0 0 1 -1.66 2.02 8.834 8.834 0 0 1 -2.276 1.557c-.867.418-1.866.627-2.996.627-.202 0-.426-.012-.674-.035a12.175 12.175 0 0 1 -1.44-.22 74.799 74.799 0 0 1 -.534-.117l.697-3.507c.108 0 .255.008.441.023l.58.047a16.578 16.578 0 0 0 1.023.046c.588 0 1.126-.162 1.614-.487a6.188 6.188 0 0 0 1.3-1.162 9.07 9.07 0 0 0 .976-1.393c.27-.48.484-.875.638-1.185l1.72-3.344-10.824-23.945h4.808zm53.51 11.822h-3.855l14.12-36.72h3.833zm73.321-13.076c-.201 1.564-.604 3-1.207 4.308-.604 1.308-1.39 2.431-2.358 3.368-.968.936-2.113 1.664-3.437 2.183s-2.799.778-4.424.778c-1.394 0-2.66-.198-3.798-.592a10.451 10.451 0 0 1 -3.042-1.638 10.868 10.868 0 0 1 -2.3-2.462 14.952 14.952 0 0 1 -1.602-3.088 18.57 18.57 0 0 1 -.952-3.507 23.768 23.768 0 0 1 -.337-3.716v-4.716c.015-1.254.128-2.493.337-3.716a18.57 18.57 0 0 1 .952-3.507c.426-1.115.96-2.148 1.603-3.1a10.763 10.763 0 0 1 2.299-2.474c.89-.697 1.9-1.243 3.03-1.637 1.13-.395 2.4-.593 3.81-.593 1.687 0 3.197.26 4.528.778 1.332.52 2.478 1.255 3.438 2.207s1.73 2.094 2.31 3.425c.581 1.332.964 2.803 1.15 4.413h-4.296a12.657 12.657 0 0 0 -.72-2.857 7.87 7.87 0 0 0 -1.37-2.322 6.065 6.065 0 0 0 -2.102-1.568c-.829-.379-1.808-.569-2.938-.569-1.022 0-1.924.167-2.706.5a6.232 6.232 0 0 0 -2.02 1.358 7.763 7.763 0 0 0 -1.417 1.998c-.38.758-.686 1.563-.918 2.415a17.3 17.3 0 0 0 -.5 2.613c-.1.89-.15 1.753-.15 2.59v4.76c0 .837.05 1.7.15 2.59.101.89.268 1.765.5 2.625.232.859.534 1.668.906 2.427a7.59 7.59 0 0 0 1.417 2.009 6.307 6.307 0 0 0 2.02 1.37c.774.333 1.68.5 2.718.5 1.13 0 2.11-.179 2.938-.535a5.89 5.89 0 0 0 2.101-1.498 7.437 7.437 0 0 0 1.37-2.276c.341-.875.581-1.823.72-2.845h4.297zm23.11-15.422c.402 0 .82.012 1.253.035.434.024.848.062 1.243.116.395.055.758.12 1.091.198.333.077.608.162.825.255l-.58 4.204a22.899 22.899 0 0 0 -2.381-.406 20.928 20.928 0 0 0 -2.358-.128c-2.013 0-3.642.457-4.889 1.37-1.246.914-2.163 2.191-2.752 3.832v16.118h-4.32v-25.129h4.088l.21 3.995c1.021-1.378 2.248-2.466 3.68-3.263 1.432-.798 3.062-1.197 4.89-1.197zm23.178 26.059c-1.765 0-3.387-.302-4.866-.906s-2.744-1.448-3.797-2.531c-1.053-1.084-1.874-2.37-2.462-3.856s-.883-3.104-.883-4.854v-.975c0-2.029.325-3.844.976-5.446.65-1.603 1.513-2.958 2.59-4.065a11.298 11.298 0 0 1 3.669-2.543 10.586 10.586 0 0 1 4.215-.883c1.812 0 3.395.314 4.75.941s2.48 1.494 3.379 2.601c.898 1.107 1.568 2.412 2.009 3.914s.662 3.127.662 4.877v1.928h-17.953a9.87 9.87 0 0 0 .662 3.228 8.386 8.386 0 0 0 1.626 2.636 7.511 7.511 0 0 0 2.473 1.777c.96.433 2.02.65 3.182.65 1.533 0 2.895-.31 4.087-.93a8.867 8.867 0 0 0 2.973-2.46l2.625 2.043a9.97 9.97 0 0 1 -1.568 1.823c-.627.58-1.35 1.095-2.172 1.545-.82.449-1.75.809-2.787 1.08-1.037.27-2.167.406-3.39.406zm-.558-22.528c-.867 0-1.687.158-2.462.476a6.423 6.423 0 0 0 -2.09 1.393c-.62.612-1.142 1.363-1.568 2.253-.425.89-.723 1.916-.894 3.077h13.517v-.325a9.594 9.594 0 0 0 -.476-2.485 6.923 6.923 0 0 0 -1.196-2.206 5.985 5.985 0 0 0 -1.986-1.58c-.797-.402-1.745-.603-2.845-.603zm34.513 22.063c-.17-.325-.306-.731-.407-1.219-.1-.488-.174-.995-.22-1.521-.434.433-.918.844-1.452 1.23-.534.388-1.123.728-1.765 1.023a10.88 10.88 0 0 1 -2.056.696c-.727.17-1.501.256-2.322.256-1.332 0-2.535-.194-3.612-.58-1.076-.388-1.99-.91-2.74-1.568a6.835 6.835 0 0 1 -1.742-2.346 7.036 7.036 0 0 1 -.615-2.938c0-1.378.274-2.586.824-3.623a7.183 7.183 0 0 1 2.334-2.59c1.007-.689 2.218-1.204 3.635-1.544s3-.511 4.75-.511h4.69v-1.974c0-.759-.139-1.44-.417-2.044a4.37 4.37 0 0 0 -1.185-1.545c-.51-.425-1.134-.754-1.87-.987-.735-.232-1.56-.348-2.473-.348-.851 0-1.614.108-2.287.325-.674.217-1.243.503-1.707.86a3.82 3.82 0 0 0 -1.08 1.265 3.237 3.237 0 0 0 -.384 1.521h-4.32c.016-.913.252-1.811.709-2.694.457-.882 1.115-1.676 1.974-2.38.86-.705 1.904-1.274 3.135-1.707 1.231-.434 2.629-.65 4.192-.65 1.425 0 2.749.174 3.972.522s2.28.875 3.17 1.58a7.47 7.47 0 0 1 2.102 2.635c.511 1.053.766 2.284.766 3.693v11.682c0 .836.078 1.723.233 2.66.155.936.371 1.753.65 2.45v.371zm-7.595-3.274a8.18 8.18 0 0 0 2.346-.325 8.691 8.691 0 0 0 1.985-.86 7.21 7.21 0 0 0 1.545-1.22 5.948 5.948 0 0 0 1.022-1.427v-5.087h-3.995c-2.508 0-4.46.372-5.853 1.115s-2.09 1.912-2.09 3.507c0 .62.105 1.192.314 1.719.209.526.522.979.94 1.358.418.38.945.678 1.58.895.634.216 1.37.325 2.206.325zm29.798-27.94v6.085h9.568v3.321h-9.568v13.656c0 .976.124 1.781.371 2.416.248.635.589 1.142 1.022 1.521.434.38.933.646 1.498.801a6.785 6.785 0 0 0 1.8.233c.465 0 .945-.028 1.44-.082.496-.054.98-.12 1.452-.197.472-.078.913-.159 1.323-.244s.747-.159 1.01-.22l.605 3.042a6.01 6.01 0 0 1 -1.301.569c-.511.162-1.068.302-1.672.418s-1.243.205-1.916.267a21.93 21.93 0 0 1 -2.01.093 9.965 9.965 0 0 1 -3.123-.476 6.475 6.475 0 0 1 -2.52-1.51c-.712-.689-1.273-1.58-1.684-2.67-.41-1.092-.615-2.412-.615-3.96v-13.657h-6.596v-3.321h6.596v-6.085zm19.044 6.085h12.844v21.413h8.198v3.716h-21.042v-3.716h8.547v-17.674h-8.547zm7.99-6.596c0-.712.212-1.312.638-1.8s1.072-.731 1.94-.731c.851 0 1.494.243 1.927.731.434.488.65 1.088.65 1.8 0 .697-.216 1.277-.65 1.742-.433.464-1.076.697-1.927.697-.868 0-1.514-.233-1.94-.697-.426-.465-.638-1.045-.638-1.742zm29.728 25.548.394 1.556.418-1.556 7.038-18.952h4.39l-10.243 25.13h-3.275l-10.335-25.13h4.413zm19.37-18.952h12.843v21.413h8.198v3.716h-21.042v-3.716h8.547v-17.674h-8.547v-3.739zm7.989-6.596c0-.712.212-1.312.638-1.8s1.072-.731 1.94-.731c.851 0 1.494.243 1.927.731.434.488.65 1.088.65 1.8 0 .697-.216 1.277-.65 1.742-.433.464-1.076.697-1.927.697-.868 0-1.514-.233-1.94-.697-.426-.465-.638-1.045-.638-1.742zm30.053.511v6.085h9.568v3.321h-9.568v13.656c0 .976.124 1.781.371 2.416.248.635.589 1.142 1.022 1.521.434.38.933.646 1.498.801a6.785 6.785 0 0 0 1.8.233c.465 0 .945-.028 1.44-.082.496-.054.98-.12 1.452-.197.472-.078.913-.159 1.323-.244s.748-.159 1.01-.22l.605 3.042a6.01 6.01 0 0 1 -1.301.569c-.511.162-1.068.302-1.672.418s-1.243.205-1.916.267a21.93 21.93 0 0 1 -2.01.093 9.965 9.965 0 0 1 -3.123-.476 6.475 6.475 0 0 1 -2.52-1.51c-.712-.689-1.273-1.58-1.684-2.67-.41-1.092-.615-2.412-.615-3.96v-13.657h-6.596v-3.321h6.596v-6.085zm27.614 22.296 1.115 3.042 7.664-19.253h4.808l-12.75 29.008c-.295.65-.67 1.34-1.127 2.067a10.482 10.482 0 0 1 -1.66 2.02 8.834 8.834 0 0 1 -2.277 1.557c-.867.418-1.866.627-2.996.627-.201 0-.426-.012-.673-.035a12.175 12.175 0 0 1 -1.44-.22 74.8 74.8 0 0 1 -.534-.117l.696-3.507c.109 0 .256.008.442.023.185.016.379.031.58.047a16.578 16.578 0 0 0 1.022.046c.588 0 1.127-.162 1.614-.487a6.188 6.188 0 0 0 1.3-1.162 9.07 9.07 0 0 0 .976-1.393c.271-.48.484-.875.639-1.185l1.719-3.344-10.823-23.945h4.807z" fill="#fff"/><path d="m10.173 9.576a5.762 5.762 0 0 1 -.473 1.689 4.357 4.357 0 0 1 -.925 1.32c-.38.368-.828.653-1.348.857a4.72 4.72 0 0 1 -1.735.305 4.52 4.52 0 0 1 -1.489-.232 4.099 4.099 0 0 1 -1.193-.642 4.262 4.262 0 0 1 -.902-.966 5.864 5.864 0 0 1 -.628-1.211 7.282 7.282 0 0 1 -.373-1.375 9.32 9.32 0 0 1 -.132-1.458v-1.849a9.32 9.32 0 0 1 .132-1.457c.082-.48.206-.938.373-1.375s.376-.843.628-1.216a4.112 4.112 0 0 1 2.09-1.612 4.51 4.51 0 0 1 1.495-.232c.662 0 1.254.101 1.776.305.523.203.972.492 1.348.865.377.373.679.821.907 1.343.227.523.378 1.1.45 1.73h-1.684a4.964 4.964 0 0 0 -.283-1.12 3.086 3.086 0 0 0 -.537-.91 2.378 2.378 0 0 0 -.824-.615c-.325-.149-.71-.223-1.153-.223-.4 0-.754.065-1.06.196-.307.13-.571.308-.793.533a3.044 3.044 0 0 0 -.556.783 5.13 5.13 0 0 0 -.36.947 6.785 6.785 0 0 0 -.195 1.025c-.04.349-.06.687-.06 1.015v1.867c0 .328.02.667.06 1.016s.105.692.196 1.029c.09.337.21.654.355.952.146.297.33.56.555.788.225.227.49.406.793.537.303.13.659.196 1.065.196.444 0 .828-.07 1.153-.21.324-.14.6-.335.824-.587s.404-.55.537-.893c.134-.343.228-.715.283-1.115h1.684zm2.132-1.03c0-.71.103-1.37.31-1.98.206-.61.502-1.14.887-1.59.386-.45.855-.803 1.408-1.061.552-.258 1.174-.387 1.867-.387.698 0 1.325.129 1.88.387a4.124 4.124 0 0 1 1.412 1.061c.386.45.682.98.888 1.59.207.61.31 1.27.31 1.98v.2c0 .711-.103 1.37-.31 1.977a4.754 4.754 0 0 1 -.888 1.585c-.385.45-.854.801-1.407 1.056s-1.175.383-1.867.383c-.698 0-1.325-.128-1.88-.383a4.074 4.074 0 0 1 -1.413-1.056 4.754 4.754 0 0 1 -.888-1.585 6.103 6.103 0 0 1 -.31-1.976v-.2zm1.685.2c0 .486.057.95.173 1.39.115.44.29.827.523 1.16.234.335.527.599.88.793.351.195.761.292 1.229.292.461 0 .867-.097 1.216-.292.349-.194.64-.458.874-.792s.408-.721.524-1.161c.115-.44.173-.904.173-1.39v-.2c0-.48-.06-.94-.178-1.38a3.666 3.666 0 0 0 -.528-1.16 2.644 2.644 0 0 0 -.874-.798c-.35-.197-.758-.296-1.225-.296-.468 0-.875.099-1.22.296a2.66 2.66 0 0 0 -.87.797 3.593 3.593 0 0 0 -.524 1.162c-.116.44-.173.9-.173 1.38v.2zm11.494-5.036.118 1.457c.358-.51.799-.909 1.32-1.197a3.629 3.629 0 0 1 1.75-.442c.516 0 .985.073 1.407.219a2.69 2.69 0 0 1 1.079.683c.297.31.527.702.688 1.18.16.476.24 1.042.24 1.698v6.257h-1.684v-6.22c0-.438-.049-.808-.146-1.112a1.77 1.77 0 0 0 -.432-.738 1.69 1.69 0 0 0 -.702-.41 3.24 3.24 0 0 0 -.951-.127c-.565 0-1.062.141-1.49.423-.428.283-.77.655-1.024 1.116v7.068h-1.685v-9.855zm13.88 8.67a2.764 2.764 0 0 0 1.658-.55c.224-.173.405-.377.542-.61.136-.234.208-.488.214-.761h1.594c-.007.437-.12.855-.342 1.252a3.598 3.598 0 0 1 -.888 1.048c-.37.3-.795.54-1.275.72-.48.178-.98.268-1.503.268-.747 0-1.4-.134-1.958-.4a4.05 4.05 0 0 1 -1.398-1.08 4.642 4.642 0 0 1 -.843-1.567 6.14 6.14 0 0 1 -.282-1.871v-.383c0-.65.094-1.272.282-1.867.189-.595.47-1.119.843-1.571a4.05 4.05 0 0 1 1.398-1.08c.559-.266 1.211-.4 1.958-.4.583 0 1.119.093 1.608.278.488.185.91.437 1.266.756.355.318.633.696.833 1.134.2.437.3.904.3 1.402h-1.593a2.052 2.052 0 0 0 -.196-.842 2.293 2.293 0 0 0 -1.266-1.17 2.586 2.586 0 0 0 -.952-.174c-.522 0-.96.105-1.316.315a2.56 2.56 0 0 0 -.86.82 3.456 3.456 0 0 0 -.47 1.133 5.759 5.759 0 0 0 -.14 1.266v.383c0 .43.046.857.14 1.28.094.421.25.8.465 1.138.215.337.5.61.856.82.355.209.797.314 1.325.314zm11.348 1.367a5 5 0 0 1 -1.908-.355 4.33 4.33 0 0 1 -1.489-.993 4.541 4.541 0 0 1 -.965-1.512 5.126 5.126 0 0 1 -.346-1.903v-.384c0-.795.127-1.507.382-2.136a4.897 4.897 0 0 1 1.016-1.594 4.43 4.43 0 0 1 1.439-.997 4.151 4.151 0 0 1 1.653-.346c.71 0 1.331.123 1.862.369.532.246.973.586 1.326 1.02.352.434.614.946.787 1.535s.26 1.226.26 1.912v.756h-7.04c.018.45.104.871.26 1.266.154.395.367.74.637 1.034a2.946 2.946 0 0 0 2.218.952c.6 0 1.135-.122 1.602-.365a3.477 3.477 0 0 0 1.166-.965l1.03.801a3.91 3.91 0 0 1 -.615.715c-.246.228-.53.43-.852.606a4.791 4.791 0 0 1 -1.093.424c-.407.106-.85.159-1.33.159zm-.218-8.835c-.34 0-.662.063-.966.187a2.519 2.519 0 0 0 -.82.547c-.242.24-.447.534-.614.883-.167.35-.284.751-.35 1.207h5.3v-.128a3.762 3.762 0 0 0 -.187-.974 2.715 2.715 0 0 0 -.469-.866 2.347 2.347 0 0 0 -.778-.619c-.313-.158-.685-.237-1.116-.237zm15.374 3.835c0 .704-.085 1.361-.255 1.972-.17.61-.42 1.14-.747 1.589a3.53 3.53 0 0 1 -1.216 1.056c-.483.255-1.034.383-1.653.383-.601 0-1.13-.097-1.59-.292a3.298 3.298 0 0 1 -1.179-.837v4.736h-1.685v-13.644h1.54l.082 1.075a3.287 3.287 0 0 1 1.188-.934c.465-.215 1.003-.323 1.617-.323.631 0 1.19.124 1.676.373.485.25.892.595 1.22 1.039.328.443.577.973.747 1.589s.255 1.292.255 2.026zm-1.685-.192c0-.48-.053-.936-.16-1.37a3.566 3.566 0 0 0 -.491-1.148 2.489 2.489 0 0 0 -.843-.788c-.34-.194-.747-.291-1.22-.291-.54 0-.994.126-1.362.378a2.81 2.81 0 0 0 -.879.97v4.745c.219.389.51.706.875.952.364.246.825.369 1.384.369.468 0 .871-.099 1.211-.296.34-.198.62-.463.838-.797a3.68 3.68 0 0 0 .488-1.157c.106-.437.159-.896.159-1.375zm8.552-7.231v2.386h3.753v1.303h-3.753v5.355c0 .382.049.698.146.947.097.25.23.448.4.597.17.148.366.253.588.314.222.06.457.091.706.091.182 0 .37-.01.565-.032a10.731 10.731 0 0 0 1.088-.173c.16-.033.293-.062.396-.086l.237 1.193c-.14.085-.31.16-.51.223-.2.064-.419.118-.656.164a8.6 8.6 0 0 1 -1.54.141c-.436 0-.845-.062-1.224-.187a2.54 2.54 0 0 1 -.988-.592c-.28-.27-.5-.62-.66-1.047-.161-.428-.242-.946-.242-1.553v-5.355h-2.586v-1.303h2.586v-2.386zm13.753 9.627c0-.2-.04-.381-.118-.542a1.207 1.207 0 0 0 -.401-.442 3.164 3.164 0 0 0 -.747-.369 7.997 7.997 0 0 0 -1.157-.305 11.66 11.66 0 0 1 -1.543-.419 5.082 5.082 0 0 1 -1.194-.587 2.569 2.569 0 0 1 -.77-.802 2.056 2.056 0 0 1 -.272-1.07c0-.4.094-.776.282-1.125s.452-.654.792-.915.746-.468 1.216-.62c.47-.151.988-.227 1.553-.227a5.29 5.29 0 0 1 1.64.237c.485.158.898.376 1.238.655.34.28.603.606.788.98.185.373.278.775.278 1.206h-1.685c0-.212-.055-.42-.164-.624a1.787 1.787 0 0 0 -.456-.541 2.338 2.338 0 0 0 -.705-.383 2.802 2.802 0 0 0 -.934-.146c-.358 0-.672.04-.943.119-.27.079-.494.185-.674.318a1.36 1.36 0 0 0 -.405.465 1.175 1.175 0 0 0 -.136.546c0 .195.036.368.109.52.073.151.199.288.378.41.179.12.419.23.72.327.3.098.68.192 1.142.283.608.127 1.151.274 1.63.441.48.167.884.368 1.212.602.328.233.578.505.751.815s.26.668.26 1.074c0 .438-.099.835-.296 1.194a2.795 2.795 0 0 1 -.824.92 4.002 4.002 0 0 1 -1.266.591c-.492.14-1.03.21-1.612.21-.668 0-1.263-.09-1.786-.269a4.266 4.266 0 0 1 -1.325-.71 3.06 3.06 0 0 1 -.829-1.025 2.71 2.71 0 0 1 -.286-1.211h1.685c.024.346.116.637.277.874s.362.428.601.574c.24.146.506.249.797.31.292.06.58.09.866.09.71 0 1.272-.13 1.685-.39.412-.262.622-.608.628-1.04z" fill="#939393"/></g><path d="m0 .5492228h899.067358v.93264248h-899.067358z" fill="#fff" opacity=".6"/></g></svg>