<svg width="656" height="115" xmlns="http://www.w3.org/2000/svg"><defs><linearGradient x1="50%" y1="0%" x2="50%" y2="100%" id="yellow"><stop stop-color="#FFFA6B" offset="0%"/><stop stop-color="#FFF439" offset="100%"/></linearGradient></defs><g fill="none" fill-rule="evenodd"><path d="M611.191 117.276H577.56c-8.573 0-15.523-7.555-15.523-16.873V63.847c0-23.295 17.374-42.18 38.806-42.18h33.632c8.573 0 15.522 7.555 15.522 16.873v36.555c0 23.296-17.374 42.18-38.806 42.18" fill="url(#yellow)" transform="matrix(0 1 1 0 538.545 -535.545)"/><path d="M14.005 109.167c-1.91 0-3.662-.58-5.073-1.684-3.237-2.526-4.024-7.237-2.053-11.712-8.277-12.857-5.864-32.04 6.032-47.053 9.163-11.567 22.173-18.472 34.798-18.472 3.388 0 6.635.51 9.66 1.518 3.884-3.31 9.26-3.912 12.6-1.312 3.447 2.695 4.094 7.811 1.687 12.466 8.149 12.854 5.702 31.959-6.13 46.892-9.166 11.569-22.174 18.474-34.798 18.474h-.003c-3.454 0-6.761-.529-9.836-1.576-2.115 1.594-4.525 2.46-6.884 2.46z" stroke="#222829" stroke-width="2.5" stroke-linecap="round" stroke-linejoin="round"/><path d="M14.005 109.167c-1.91 0-3.662-.58-5.073-1.684-3.237-2.526-4.024-7.237-2.053-11.712-8.277-12.857-5.864-32.04 6.032-47.053 9.163-11.567 22.173-18.472 34.798-18.472 3.388 0 6.635.51 9.66 1.518 3.884-3.31 9.26-3.912 12.6-1.312 3.447 2.695 4.094 7.811 1.687 12.466 8.149 12.854 5.702 31.959-6.13 46.892-9.166 11.569-22.174 18.474-34.798 18.474h-.003c-3.454 0-6.761-.529-9.836-1.576-2.115 1.594-4.525 2.46-6.884 2.46z" stroke="#FFF" stroke-width="2.4" stroke-linecap="round" stroke-linejoin="round"/><path d="M71.533 32.929l.006.003c.749.41 1.712.204 2.232-.48 1.652-2.176 5.649-6.698 11.766-9.011.83-.314 1.277-1.194 1.032-2.007-.275-.913-1.303-1.382-2.235-1.03-6.963 2.631-11.407 7.636-13.305 10.156a1.585 1.585 0 0 0 .503 2.369" fill="#FFF"/><path d="M62.706 17.112c-.14-2.669.927-5.29 2.929-7.188l.001-.002a1.795 1.795 0 0 1 2.017-.3l.003.001c2.774 1.374 4.707 3.963 5.168 6.92.475 3.011-.6 5.99-2.826 8.113a1.794 1.794 0 0 1-2.025.3c-2.78-1.376-4.712-3.962-5.17-6.92a9.245 9.245 0 0 1-.097-.924z" stroke="#FFF" stroke-width="2.4" stroke-linecap="round" stroke-linejoin="round"/><path d="M40.541 99.258l-.01-.018c-.42-.774-.12-1.727.67-2.153.765-.411 1.51-.832 2.235-1.259.771-.455 1.775-.24 2.267.493l.01.016c.508.759.268 1.773-.53 2.245-.765.452-1.553.896-2.36 1.33-.816.439-1.847.146-2.282-.654m10.355-7.649l-.018-.021a1.626 1.626 0 0 1 .157-2.269C66.074 75.98 64.544 60.456 63.623 55.673a1.638 1.638 0 0 1 1.163-1.881 1.652 1.652 0 0 1 2.089 1.287c.968 5.464 2.377 22.49-13.605 36.697a1.665 1.665 0 0 1-2.374-.167" fill="#FFF"/><g stroke="#FFF" stroke-width="2.4"><path d="M271.879 72.035c.11-4.456-.807-9.223-2.578-13.807-1.61-4.164-1.804-8.273-.248-12.507 1.043-2.843.55-5.608-1.598-7.746-2.195-2.184-4.902-2.91-7.915-1.713-4.171 1.656-8.24 1.315-12.406-.245-26.75-10.011-53.796 9.473-53.042 38.197.11 4.198.992 8.296 2.562 12.2 1.662 4.137 1.976 8.244.321 12.478-1.157 2.955-.602 5.728 1.615 7.99 2.144 2.191 4.874 2.755 7.67 1.687 4.533-1.731 8.808-1.206 13.263.427 25.512 9.356 52.334-9.379 52.356-36.961zM252.506 24.59c3.753.012 4.292-.54 4.157-4.27-.366-10.105-10.338-19.48-20.048-18.94-1.909.105-2.766.718-2.868 2.828-.498 10.335 8.66 20.356 18.759 20.383"/></g><path d="M441.102 111.387h-57.955c-3.853 0-6.976-3.136-6.976-7.004V46.188c0-10.547 8.515-19.096 19.018-19.096h55.91c4.982 0 9.02 4.055 9.02 9.057v56.143c0 10.546-8.514 19.095-19.017 19.095" stroke="#FFF" stroke-width="2.4"/></g></svg>