<svg height="79" width="889" xmlns="http://www.w3.org/2000/svg" xmlns:xlink="http://www.w3.org/1999/xlink"><mask id="a" fill="#fff"><path d="m.78 13.33v-13.03h62.31v13.03h-24.44v62.77h-13.43v-62.77z" fill="#fff" fill-rule="evenodd"/></mask><mask id="b" fill="#fff"><path d="m39.9.29c22.63 0 39.1 16.37 39.1 38.91s-16.47 38.9-39.1 38.9-39.06-16.36-39.06-38.9 16.43-38.91 39.06-38.91zm0 64.63c14.85 0 25.22-10.57 25.22-25.72s-10.4-25.73-25.22-25.73-25.17 10.59-25.17 25.73 10.35 25.72 25.17 25.72z" fill="#fff" fill-rule="evenodd"/></mask><mask id="c" fill="#fff"><path d="m30.05.3c24.45 0 40.26 14.88 40.26 37.9s-15.81 37.9-40.26 37.9h-29.21v-75.8zm0 62.77c16.76 0 26.37-9.06 26.37-24.87s-9.61-24.87-26.37-24.87h-15.72v49.74z" fill="#fff" fill-rule="evenodd"/></mask><mask id="d" fill="#fff"><path d="m45.27.3 31.13 75.8h-14.48l-8-19.62h-31.22l-7.95 19.62h-14.24l31.14-75.8zm-17.27 43.15h20.65l-10.33-25.33z" fill="#fff" fill-rule="evenodd"/></mask><g fill="none" fill-rule="evenodd"><path d="m506.5 44.5h-107v-2h107v-6l14 7-14 7z" fill="#d8d8d8" fill-rule="nonzero"/><g fill="#fff"><path d="m-4.22 81.1h72.31v-85.8h-72.31z" mask="url(#a)" transform="translate(0 1)"/><path d="m-4.16 83.1h88.16v-87.81h-88.16z" mask="url(#b)" transform="translate(72)"/><path d="m-4.16 81.1h79.47v-85.8h-79.47z" mask="url(#c)" transform="translate(171 1)"/><path d="m-4.49 81.1h85.89v-85.8h-85.89z" mask="url(#d)" transform="translate(249 1)"/><path d="m612.988 24.677h-20.988v-15.312h61.207v15.312h-20.89v52.958h-19.329zm79.606 54.323c-7.223 0-13.715-1.528-19.474-4.584-5.76-3.056-10.283-7.282-13.57-12.678-3.286-5.397-4.93-11.476-4.93-18.238s1.644-12.841 4.93-18.238c3.287-5.396 7.81-9.622 13.57-12.678s12.25-4.584 19.474-4.584 13.716 1.528 19.475 4.584c5.76 3.056 10.283 7.282 13.57 12.678 3.286 5.397 4.929 11.476 4.929 18.238s-1.643 12.841-4.93 18.238c-3.286 5.396-7.81 9.622-13.569 12.678s-12.249 4.584-19.475 4.584zm0-15.995c3.45 0 6.573-.812 9.372-2.438 2.798-1.625 5.01-3.917 6.638-6.875 1.627-2.959 2.44-6.356 2.44-10.192s-.813-7.233-2.44-10.192c-1.627-2.958-3.84-5.25-6.638-6.875-2.799-1.626-5.922-2.438-9.372-2.438-3.449 0-6.573.812-9.37 2.438-2.8 1.625-5.012 3.917-6.639 6.875-1.627 2.959-2.44 6.356-2.44 10.192s.813 7.233 2.44 10.192c1.627 2.958 3.84 5.25 6.638 6.875 2.798 1.626 5.922 2.438 9.371 2.438zm46.807-53.64h32.312c7.484 0 14.122 1.398 19.914 4.194s10.282 6.762 13.471 11.898c3.19 5.137 4.784 11.151 4.784 18.043s-1.595 12.906-4.784 18.043c-3.189 5.136-7.679 9.102-13.471 11.898s-12.43 4.194-19.914 4.194h-32.313v-68.27zm31.53 52.86c5.858 0 10.56-1.658 14.107-4.974s5.32-7.9 5.32-13.751c0-5.852-1.773-10.435-5.32-13.751s-8.249-4.974-14.106-4.974h-12.202v37.45h12.202zm92.59 2.146h-28.894l-5.37 13.264h-19.717l30.164-68.27h19.035l30.261 68.27h-20.11l-5.368-13.264zm-5.661-14.24-8.786-21.845-8.786 21.846h17.572z"/></g></g></svg>