<svg width="964" height="697" xmlns="http://www.w3.org/2000/svg" xmlns:xlink="http://www.w3.org/1999/xlink"><defs><linearGradient x1="50%" y1=".163%" x2="50%" y2="100%" id="c"><stop stop-color="#080808" offset="0%"/><stop stop-color="#0E0E0E" offset="14.86%"/><stop stop-color="#1E1E1E" offset="30.408%"/><stop stop-color="#1E1E1E" offset="59.468%"/><stop stop-color="#2D2D2D" offset="100%"/></linearGradient><path d="M32.159 92.416c7.034-8.036 8.04-16.072 8.04-16.072L50.247 0H209.03s4.02 49.222 11.054 76.344c1.83 7.055 2.612 9.497 7.035 14.063 12.58 12.987 34.169 20.09 34.169 20.09H0s25.124-10.045 32.159-18.081z" id="b"/><filter x="-5%" y="-5.9%" width="110.7%" height="115.4%" filterUnits="objectBoundingBox" id="a"><feMorphology radius=".5" operator="dilate" in="SourceAlpha" result="shadowSpreadOuter1"/><feOffset dy="2" in="shadowSpreadOuter1" result="shadowOffsetOuter1"/><feGaussianBlur stdDeviation="2" in="shadowOffsetOuter1" result="shadowBlurOuter1"/><feColorMatrix values="0 0 0 0 0 0 0 0 0 0 0 0 0 0 0 0 0 0 0.15 0" in="shadowBlurOuter1"/></filter><linearGradient x1="100.47%" y1="50%" x2="0%" y2="50%" id="f"><stop stop-color="#4D4D4D" offset="0%"/><stop stop-color="#060606" offset="26.288%"/><stop stop-color="#060606" offset="74.231%"/><stop stop-color="#505050" offset="100%"/></linearGradient><rect id="e" y="110.496" width="261.289" height="5.023" rx=".342"/><filter x="0%" y="0%" width="100%" height="100%" filterUnits="objectBoundingBox" id="d"><feOffset in="SourceAlpha" result="shadowOffsetOuter1"/><feColorMatrix values="0 0 0 0 0.129411765 0 0 0 0 0.129411765 0 0 0 0 0.129411765 0 0 0 1 0" in="shadowOffsetOuter1"/></filter><linearGradient x1="50%" y1="0%" x2="50%" y2="100%" id="i"><stop stop-color="#2D2C2C" offset="0%"/><stop stop-color="#111" offset="100%"/></linearGradient><rect id="h" width="946.669" height="574.587" rx="14.364"/><filter x="-1.6%" y="-2%" width="103.3%" height="105.4%" filterUnits="objectBoundingBox" id="g"><feMorphology radius="1" operator="dilate" in="SourceAlpha" result="shadowSpreadOuter1"/><feOffset dy="4" in="shadowSpreadOuter1" result="shadowOffsetOuter1"/><feGaussianBlur stdDeviation="3.5" in="shadowOffsetOuter1" result="shadowBlurOuter1"/><feColorMatrix values="0 0 0 0 0 0 0 0 0 0 0 0 0 0 0 0 0 0 0.15 0" in="shadowBlurOuter1"/></filter><path d="M35.257 41.567c0-.285.225-.516.522-.516h875.242c.288 0 .522.236.522.516v491.581a.513.513 0 0 1-.522.516H35.779a.522.522 0 0 1-.522-.516V41.567z" id="j"/><filter x="-.1%" y="-.1%" width="100.1%" height="100.2%" filterUnits="objectBoundingBox" id="k"><feGaussianBlur stdDeviation=".5" in="SourceAlpha" result="shadowBlurInner1"/><feOffset in="shadowBlurInner1" result="shadowOffsetInner1"/><feComposite in="shadowOffsetInner1" in2="SourceAlpha" operator="arithmetic" k2="-1" k3="1" result="shadowInnerInner1"/><feColorMatrix values="0 0 0 0 0 0 0 0 0 0 0 0 0 0 0 0 0 0 0.0483469203 0" in="shadowInnerInner1"/></filter><radialGradient fx="50%" fy="50%" r="65.982%" id="m"><stop stop-color="#011C55" offset="0%"/><stop stop-opacity="0" offset="100%"/></radialGradient><linearGradient x1="159.852%" y1="50%" x2="0%" y2="50%" id="n"><stop stop-color="#2440D6" offset="0%"/><stop stop-color="#3FCEFF" offset="100%"/></linearGradient><linearGradient x1="0%" y1="100%" y2="0%" id="o"><stop stop-color="#2440D6" offset="0%"/><stop stop-color="#3FCEFF" offset="100%"/></linearGradient><linearGradient x1="0%" y1="100%" y2="0%" id="p"><stop stop-color="#2440D6" stop-opacity=".5" offset="0%"/><stop stop-color="#3FCEFF" offset="100%"/></linearGradient><linearGradient x1="0%" y1="100%" y2="0%" id="q"><stop stop-color="#3FCEFF" offset="0%"/><stop stop-color="#CFD6FF" offset="100%"/></linearGradient><filter x="-30.8%" y="-51.1%" width="161.5%" height="202.2%" filterUnits="objectBoundingBox" id="r"><feGaussianBlur stdDeviation="2.751" in="SourceGraphic"/></filter><filter x="-30.8%" y="-51.1%" width="161.5%" height="202.2%" filterUnits="objectBoundingBox" id="s"><feGaussianBlur stdDeviation="2.751" in="SourceGraphic"/></filter><filter x="-30.8%" y="-51.1%" width="161.5%" height="202.2%" filterUnits="objectBoundingBox" id="t"><feGaussianBlur stdDeviation="2.751" in="SourceGraphic"/></filter><filter x="-30.8%" y="-51.1%" width="161.5%" height="202.2%" filterUnits="objectBoundingBox" id="u"><feGaussianBlur stdDeviation="2.751" in="SourceGraphic"/></filter><filter x="-30.8%" y="-51.1%" width="161.5%" height="202.2%" filterUnits="objectBoundingBox" id="v"><feGaussianBlur stdDeviation="2.751" in="SourceGraphic"/></filter><filter x="-30.8%" y="-51.1%" width="161.5%" height="202.2%" filterUnits="objectBoundingBox" id="w"><feGaussianBlur stdDeviation="2.751" in="SourceGraphic"/></filter><filter x="-30.8%" y="-51.1%" width="161.5%" height="202.2%" filterUnits="objectBoundingBox" id="x"><feGaussianBlur stdDeviation="2.751" in="SourceGraphic"/></filter><filter x="-30.8%" y="-51.1%" width="161.5%" height="202.2%" filterUnits="objectBoundingBox" id="y"><feGaussianBlur stdDeviation="2.751" in="SourceGraphic"/></filter><filter x="-30.8%" y="-51.1%" width="161.5%" height="202.2%" filterUnits="objectBoundingBox" id="z"><feGaussianBlur stdDeviation="2.751" in="SourceGraphic"/></filter><filter x="-30.8%" y="-51.1%" width="161.5%" height="202.2%" filterUnits="objectBoundingBox" id="A"><feGaussianBlur stdDeviation="2.751" in="SourceGraphic"/></filter><linearGradient x1="100%" y1="100%" x2="0%" y2="0%" id="B"><stop stop-color="#3FCEFF" offset="0%"/><stop stop-color="#2440D6" offset="100%"/></linearGradient><linearGradient x1="92.593%" y1="100%" x2="5.891%" y2="0%" id="C"><stop stop-color="#3FCEFF" offset="0%"/><stop stop-color="#2440D6" stop-opacity=".5" offset="100%"/></linearGradient><filter x="-30.8%" y="-51.1%" width="161.5%" height="202.2%" filterUnits="objectBoundingBox" id="D"><feGaussianBlur stdDeviation="2.751" in="SourceGraphic"/></filter><filter x="-30.8%" y="-51.1%" width="161.5%" height="202.2%" filterUnits="objectBoundingBox" id="E"><feGaussianBlur stdDeviation="2.751" in="SourceGraphic"/></filter><filter x="-30.8%" y="-51.1%" width="161.5%" height="202.2%" filterUnits="objectBoundingBox" id="F"><feGaussianBlur stdDeviation="2.751" in="SourceGraphic"/></filter><filter x="-30.8%" y="-51.1%" width="161.5%" height="202.2%" filterUnits="objectBoundingBox" id="G"><feGaussianBlur stdDeviation="2.751" in="SourceGraphic"/></filter><filter x="-30.8%" y="-51.1%" width="161.5%" height="202.2%" filterUnits="objectBoundingBox" id="H"><feGaussianBlur stdDeviation="2.751" in="SourceGraphic"/></filter><filter x="-30.8%" y="-51.1%" width="161.5%" height="202.2%" filterUnits="objectBoundingBox" id="I"><feGaussianBlur stdDeviation="2.751" in="SourceGraphic"/></filter><filter x="-30.8%" y="-51.1%" width="161.5%" height="202.2%" filterUnits="objectBoundingBox" id="J"><feGaussianBlur stdDeviation="2.751" in="SourceGraphic"/></filter><filter x="-30.8%" y="-51.1%" width="161.5%" height="202.2%" filterUnits="objectBoundingBox" id="K"><feGaussianBlur stdDeviation="2.751" in="SourceGraphic"/></filter><filter x="-30.8%" y="-51.1%" width="161.5%" height="202.2%" filterUnits="objectBoundingBox" id="L"><feGaussianBlur stdDeviation="2.751" in="SourceGraphic"/></filter><filter x="-30.8%" y="-51.1%" width="161.5%" height="202.2%" filterUnits="objectBoundingBox" id="M"><feGaussianBlur stdDeviation="2.751" in="SourceGraphic"/></filter><filter x="-14.5%" y="-24%" width="129%" height="148%" filterUnits="objectBoundingBox" id="N"><feGaussianBlur stdDeviation="2.751" in="SourceGraphic"/></filter><radialGradient fx="50%" fy="50%" id="O"><stop stop-color="#011C55" offset="0%"/><stop stop-opacity="0" offset="100%"/></radialGradient></defs><g transform="translate(9 5)" fill="none" fill-rule="evenodd"><g transform="translate(342.656 574.298)"><use fill="#000" filter="url(#a)" xlink:href="#b"/><use fill="url(#c)" xlink:href="#b"/><use fill="#000" filter="url(#d)" xlink:href="#e"/><use fill="url(#f)" xlink:href="#e"/></g><use fill="#000" filter="url(#g)" xlink:href="#h"/><use fill="url(#i)" xlink:href="#h"/><mask id="l" fill="#fff"><use xlink:href="#j"/></mask><use fill="#000" xlink:href="#j"/><use fill="#000" filter="url(#k)" xlink:href="#j"/><g mask="url(#l)"><g transform="translate(34.8 40.8)"><path d="M0 0h864v468.9H0z"/><circle fill="url(#m)" cx="432" cy="355.5" r="264.6"/><text font-family="WorkSans-Regular, Work Sans" font-size="8.1" fill="#FFF"><tspan x="212.636" y="168.65">The TODA protocol enables every ledger-based blockchain to scale to billions of users and handle millions of </tspan> <tspan x="239.763" y="183.95">on-chain transactions per second at a near-zero cost. As the evolution of TCP/IP for blockchain </tspan> <tspan x="230.359" y="199.25">infrastructures, it is a layer-zero, ledger-less, truly decentralized digital ownership management and </tspan> <tspan x="384.971" y="214.55">value transfer protocol.</tspan></text><text font-family="Montserrat-Bold, Montserrat" font-size="26.1" font-weight="bold" fill="#F5F5F5"><tspan x="273.26" y="105.55">The First Decentralized </tspan> <tspan x="296.006" y="137.95">Ledgerless Protocol</tspan></text><path fill="url(#n)" d="M0 0h121.5v27H0z" transform="translate(371.25 240.3)"/><path d="M391.266 251.622c.744 0 1.314.205 1.71.616.396.41.594.997.594 1.76s-.198 1.35-.594 1.76c-.396.41-.966.616-1.71.616h-2.016v-4.752h2.016zm-.122 3.816c.398 0 .69-.12.878-.36.187-.24.28-.6.28-1.08 0-.48-.093-.84-.28-1.08-.187-.24-.48-.36-.878-.36h-.656v2.88h.656zm5.406-3.888c.48 0 .894.097 1.242.292.348.194.615.475.803.842.187.367.28.805.28 1.314s-.093.947-.28 1.314a1.96 1.96 0 0 1-.803.842c-.348.195-.762.292-1.242.292s-.895-.097-1.246-.292a1.954 1.954 0 0 1-.806-.842c-.187-.367-.281-.805-.281-1.314s.094-.947.28-1.314a1.96 1.96 0 0 1 .807-.842c.35-.195.766-.292 1.246-.292zm0 .972c-.346 0-.61.125-.792.374-.183.25-.274.617-.274 1.102 0 .485.091.852.274 1.102.182.25.446.374.792.374.345 0 .608-.125.788-.374.18-.25.27-.617.27-1.102 0-.485-.09-.852-.27-1.102-.18-.25-.443-.374-.788-.374zm5.479 3.852h-1.39l-1.368-4.752h1.332l.785 3.78.857-3.78h1.123l.871 3.773.785-3.773h1.282l-1.375 4.752h-1.347l-.561-2.304-.216-1.16h-.015l-.209 1.16-.554 2.304zm9.158 0h-1.375l-1.476-2.57-.36-.72h-.007l.029.892v2.398h-1.095v-4.752h1.376l1.476 2.57.36.72h.007l-.029-.892v-2.398h1.094v4.752zm4.673-.958v.958h-3.62v-4.752h1.238v3.794h2.383zm2.844-3.866c.48 0 .894.097 1.242.292.348.194.616.475.803.842.187.367.28.805.28 1.314s-.093.947-.28 1.314a1.96 1.96 0 0 1-.803.842c-.348.195-.762.292-1.242.292s-.895-.097-1.245-.292a1.954 1.954 0 0 1-.807-.842c-.187-.367-.28-.805-.28-1.314s.093-.947.28-1.314c.187-.367.456-.648.807-.842.35-.195.765-.292 1.245-.292zm0 .972c-.345 0-.61.125-.792.374-.182.25-.273.617-.273 1.102 0 .485.09.852.273 1.102.183.25.447.374.792.374.346 0 .609-.125.789-.374.18-.25.27-.617.27-1.102 0-.485-.09-.852-.27-1.102-.18-.25-.443-.374-.789-.374zm5.897 2.78h-1.641l-.33 1.072h-1.246l1.67-4.752h1.483l1.663 4.752h-1.274l-.324-1.073zm-.26-.843l-.345-1.138-.209-.749h-.014l-.194.742-.36 1.145h1.123zm4.429-2.837c.744 0 1.314.205 1.71.616.396.41.594.997.594 1.76s-.198 1.35-.594 1.76c-.396.41-.966.616-1.71.616h-2.016v-4.752h2.016zm-.123 3.816c.399 0 .692-.12.879-.36.187-.24.28-.6.28-1.08 0-.48-.093-.84-.28-1.08-.187-.24-.48-.36-.879-.36h-.655v2.88h.655zm7.467-3.888c.48 0 .894.097 1.242.292.348.194.615.475.803.842.187.367.28.805.28 1.314s-.093.947-.28 1.314a1.96 1.96 0 0 1-.803.842c-.348.195-.762.292-1.242.292s-.895-.097-1.246-.292a1.954 1.954 0 0 1-.806-.842c-.187-.367-.281-.805-.281-1.314s.094-.947.28-1.314a1.96 1.96 0 0 1 .807-.842c.35-.195.766-.292 1.246-.292zm0 .972c-.346 0-.61.125-.792.374-.183.25-.274.617-.274 1.102 0 .485.091.852.274 1.102.182.25.446.374.792.374.345 0 .608-.125.788-.374.18-.25.27-.617.27-1.102 0-.485-.09-.852-.27-1.102-.18-.25-.443-.374-.788-.374zm7.459 3.852h-1.375l-1.476-2.57-.36-.72h-.007l.028.892v2.398h-1.093v-4.752h1.375l1.476 2.57.36.72h.007l-.028-.892v-2.398h1.094v4.752zm4.846-.958v.958h-3.795v-4.752h3.701v.958h-2.462v.964h1.958v.9h-1.958v.972h2.556zm4.99-3.794c.59 0 1.043.136 1.36.407.317.271.475.661.475 1.17 0 .485-.158.86-.475 1.127-.317.266-.77.4-1.36.4h-.944v1.648h-1.238v-4.752h2.181zm-.195 2.196c.269 0 .467-.052.594-.155.127-.103.19-.263.19-.479 0-.21-.063-.368-.19-.471-.127-.103-.325-.155-.594-.155h-.749v1.26h.749zm5.544 1.483h-1.642l-.331 1.073h-1.245l1.67-4.752h1.484l1.663 4.752h-1.274l-.324-1.073zm-.26-.842l-.345-1.138-.209-.749h-.014l-.195.742-.36 1.145h1.124zm6.675-.655v2.57h-.864l-.036-.562c-.274.423-.727.634-1.36.634-.433 0-.816-.095-1.15-.284a1.952 1.952 0 0 1-.78-.836c-.188-.367-.281-.807-.281-1.32 0-.51.096-.948.288-1.315a2.01 2.01 0 0 1 .82-.846c.356-.197.776-.295 1.26-.295.543 0 .98.096 1.311.288.331.192.593.502.785.929l-1.145.453c-.058-.235-.166-.41-.324-.525a.977.977 0 0 0-.59-.173c-.365 0-.645.125-.84.374-.194.25-.29.617-.29 1.102 0 .998.388 1.498 1.166 1.498.292 0 .529-.068.709-.202.18-.134.27-.329.27-.583v-.072h-1.181v-.835h2.232zm4.738 1.612v.958h-3.795v-4.752h3.701v.958h-2.462v.964h1.958v.9h-1.958v.972h2.556zm2.707-.777h-.742v1.735h-1.216v-4.752h2.268c.576 0 1.02.13 1.329.389.31.259.464.633.464 1.123 0 .346-.079.634-.237.864-.159.23-.39.4-.692.511l1.21 1.865h-1.368l-1.015-1.735zm-.742-.879h.843c.264 0 .456-.048.576-.144.12-.096.18-.25.18-.46 0-.207-.06-.358-.18-.454-.12-.096-.312-.144-.576-.144h-.843v1.202z" fill="#FFF"/><g transform="translate(121.5 17.1)"><path d="M1.2 12v.3h43.5V12H1.2z" stroke="url(#o)" stroke-width=".6" fill="#D8D8D8" transform="translate(319.95 7.65)"/><text font-family="WorkSans-Medium, Work Sans" font-size="7.2" font-weight="400" fill="#3FCEFF" transform="translate(319.95 7.65)"><tspan x="0" y="7">The Protocol</tspan></text><text font-family="WorkSans-Medium, Work Sans" font-size="7.2" font-weight="400" fill="#FFF" transform="translate(319.95 7.65)"><tspan x="56.7" y="7">Core Values</tspan></text><text font-family="WorkSans-Medium, Work Sans" font-size="7.2" font-weight="400" fill="#FFF" transform="translate(319.95 7.65)"><tspan x="110.7" y="7">Technology</tspan></text><text font-family="WorkSans-Medium, Work Sans" font-size="7.2" font-weight="400" fill="#FFF" transform="translate(319.95 7.65)"><tspan x="162.9" y="7">Use Cases</tspan></text><text font-family="WorkSans-Medium, Work Sans" font-size="7.2" font-weight="400" fill="#FFF" transform="translate(319.95 7.65)"><tspan x="210.6" y="7">Contact</tspan></text><path d="M34.23 11.025h-3.032v-2.19h8.84v2.19h-3.017v7.572h-2.792v-7.572zm11.497 7.767c-1.043 0-1.98-.218-2.813-.655a4.957 4.957 0 0 1-1.96-1.813c-.474-.772-.711-1.641-.711-2.608 0-.967.237-1.836.712-2.608a4.957 4.957 0 0 1 1.96-1.813c.831-.437 1.769-.655 2.812-.655 1.044 0 1.981.218 2.813.655a4.957 4.957 0 0 1 1.96 1.813c.475.772.712 1.641.712 2.608 0 .967-.237 1.836-.712 2.608a4.957 4.957 0 0 1-1.96 1.813c-.832.437-1.77.655-2.813.655zm0-2.287c.498 0 .95-.116 1.354-.349a2.52 2.52 0 0 0 .959-.983c.235-.423.352-.908.352-1.457s-.117-1.034-.352-1.457a2.52 2.52 0 0 0-.96-.983 2.666 2.666 0 0 0-1.353-.349c-.498 0-.95.116-1.353.349a2.52 2.52 0 0 0-.96.983c-.234.423-.352.908-.352 1.457s.118 1.034.353 1.457c.235.423.554.751.959.983.404.233.855.349 1.353.349zm6.76-7.67h4.668c1.08 0 2.04.2 2.876.6.837.4 1.485.967 1.946 1.701.46.735.69 1.595.69 2.58 0 .985-.23 1.845-.69 2.58-.46.734-1.11 1.301-1.946 1.701-.837.4-1.795.6-2.876.6h-4.667V8.835zm4.555 7.558c.846 0 1.525-.237 2.037-.71.513-.475.769-1.13.769-1.967 0-.837-.256-1.492-.769-1.966-.512-.474-1.191-.711-2.037-.711h-1.763v5.354h1.763zm13.373.307h-4.173l-.776 1.897h-2.848l4.357-9.762h2.75l4.37 9.762H71.19l-.775-1.897zm-.818-2.036l-1.269-3.123-1.269 3.123h2.538z" fill="#FFF"/><circle fill="#FFF" cx="77.175" cy="14.175" r="1.125"/><path d="M87.37 18.148h-1.15l-3.21-5.103-.814-1.5h-.012l.047 1.223v5.38h-.884v-7.62h1.151l3.198 5.08.826 1.524h.012l-.047-1.224v-5.38h.884v7.62zm7.327-3.186c0 .215-.015.43-.046.646h-4.384c.054.585.25 1.04.587 1.363.337.323.773.485 1.308.485.426 0 .781-.074 1.064-.22a1.14 1.14 0 0 0 .576-.635l.779.404c-.233.408-.543.72-.93.936-.388.215-.884.323-1.489.323-.876 0-1.564-.266-2.064-.797s-.75-1.266-.75-2.205c0-.94.238-1.674.715-2.205.477-.531 1.153-.797 2.03-.797.542 0 1.011.12 1.406.358.396.239.694.562.896.97.201.408.302.866.302 1.374zm-2.605-1.894c-.511 0-.924.15-1.238.45-.314.3-.506.724-.576 1.27h3.524c-.062-.538-.24-.96-.535-1.264-.295-.304-.686-.456-1.175-.456zm7.931 4.676c-.387.347-.887.52-1.5.52-.473 0-.859-.127-1.157-.381-.299-.254-.452-.643-.46-1.166v-3.545h-1.162v-.796h1.163V10.99l.93-.254v1.64h2.151v.796h-2.151v3.383c0 .277.08.487.238.63.16.142.37.213.634.213.372 0 .702-.143.989-.427l.325.773zm9.757-5.368l-2.024 5.772h-.93l-1.64-4.595-1.546 4.595h-.93l-2.024-5.772h1.035l1.465 4.699 1.582-4.7h.93l1.582 4.7 1.465-4.7h1.035zm3.965-.116c.876 0 1.564.266 2.064.797.5.53.75 1.266.75 2.205 0 .939-.25 1.674-.75 2.205-.5.531-1.188.797-2.064.797-.876 0-1.564-.266-2.064-.797s-.75-1.266-.75-2.205c0-.94.25-1.674.75-2.205.5-.531 1.188-.797 2.064-.797zm0 .797c-.589 0-1.05.196-1.384.589-.333.392-.5.93-.5 1.616 0 .685.167 1.224.5 1.616.334.393.795.59 1.384.59.59 0 1.05-.197 1.384-.59.334-.392.5-.931.5-1.616s-.166-1.224-.5-1.616c-.333-.393-.794-.59-1.384-.59zm7.361-.797c.28 0 .493.039.64.116l-.186.9c-.186-.1-.43-.15-.733-.15-.248 0-.49.071-.726.214a1.59 1.59 0 0 0-.582.646c-.151.289-.227.637-.227 1.045v3.117h-.93v-5.772h.756l.128.946c.325-.708.946-1.062 1.86-1.062zm4.164 3.037l-1.233 1.223v1.628h-.93V9.72h.93v5.646l3.012-2.99h1.163l-2.268 2.25 2.407 3.522h-1.128l-1.953-2.851z" fill="#FFF"/><g fill="url(#o)"><path d="M20.365 10.8h-5.85l5.85 9.504H6.933l5.633-9.504H6.933V7.776h13.432z"/><path d="M1.517 1.512v24.192h24.048V1.296l-24.048.216zM0 0h27.081v27H0V0z" fill-rule="nonzero"/></g><g fill="#FFF"><path d="M596.7 11.713c0 .267-.067.51-.2.728a1.324 1.324 0 0 1-.539.5c.054.212.081.433.081.663 0 .713-.24 1.373-.722 1.98-.481.607-1.138 1.086-1.97 1.438a6.89 6.89 0 0 1-2.711.528c-.977 0-1.88-.176-2.71-.528-.829-.352-1.484-.831-1.965-1.438-.482-.607-.722-1.267-.722-1.98 0-.216.024-.433.074-.649a1.367 1.367 0 0 1-.556-.507 1.354 1.354 0 0 1-.21-.735c0-.377.131-.7.393-.969s.581-.404.956-.404c.384 0 .712.145.983.435.986-.699 2.15-1.072 3.492-1.118l.787-3.594a.233.233 0 0 1 .101-.145.219.219 0 0 1 .177-.034l2.501.558a.98.98 0 0 1 .367-.41.978.978 0 0 1 .535-.155c.28 0 .52.1.719.3.199.2.298.443.298.728s-.1.529-.298.731a.971.971 0 0 1-.719.304c-.28 0-.518-.1-.715-.3a1 1 0 0 1-.295-.728l-2.265-.51-.705 3.255c1.356.042 2.53.41 3.52 1.104.261-.28.585-.42.969-.42.375 0 .694.134.956.403.262.27.393.592.393.97zm-9.316 1.373c0 .285.098.53.295.732a.96.96 0 0 0 .715.303c.28 0 .52-.101.719-.303.199-.203.298-.447.298-.732s-.1-.527-.298-.728a.977.977 0 0 0-.719-.3.964.964 0 0 0-.712.304.998.998 0 0 0-.298.724zm5.492 2.45a.247.247 0 0 0 .075-.18.247.247 0 0 0-.075-.18.228.228 0 0 0-.17-.068.251.251 0 0 0-.176.069c-.185.193-.459.335-.82.427a4.385 4.385 0 0 1-1.085.138c-.362 0-.723-.046-1.085-.138-.361-.092-.635-.234-.82-.427a.251.251 0 0 0-.177-.07.228.228 0 0 0-.169.07.23.23 0 0 0-.075.176c0 .07.025.132.075.182.194.198.462.355.803.47.342.115.619.182.831.203a6.366 6.366 0 0 0 1.234 0c.212-.02.49-.088.83-.203.342-.115.61-.272.804-.47zm-.02-1.415a.96.96 0 0 0 .715-.303c.197-.203.295-.447.295-.732a1 1 0 0 0-.298-.724.964.964 0 0 0-.712-.304c-.28 0-.52.1-.719.3a.994.994 0 0 0-.298.728c0 .285.1.53.298.732a.971.971 0 0 0 .719.303zm22.164-7.483c.998 0 1.917.25 2.76.75a5.52 5.52 0 0 1 2 2.035 5.55 5.55 0 0 1 .737 2.807 5.5 5.5 0 0 1-1.049 3.288c-.699.974-1.602 1.647-2.708 2.021-.13.025-.225.008-.287-.05a.287.287 0 0 1-.093-.22l.004-.556.003-.98c0-.47-.124-.815-.372-1.034.272-.029.517-.073.734-.13.217-.06.441-.154.673-.285.23-.131.424-.292.58-.484.154-.192.28-.447.379-.765.097-.318.146-.683.146-1.096 0-.578-.188-1.078-.565-1.5.176-.442.157-.937-.057-1.486-.134-.043-.327-.017-.58.08a3.826 3.826 0 0 0-.659.32l-.271.176a4.998 4.998 0 0 0-1.375-.19c-.472 0-.93.063-1.374.19a6.34 6.34 0 0 0-.304-.197 4.257 4.257 0 0 0-.597-.28c-.272-.11-.475-.142-.609-.099-.214.549-.234 1.044-.057 1.486a2.179 2.179 0 0 0-.565 1.5c0 .413.048.777.146 1.093.098.315.223.57.376.764.153.194.345.357.576.488.232.131.456.226.673.284.217.058.462.102.733.131-.186.175-.302.425-.35.75-.1.049-.208.085-.322.11-.115.024-.25.036-.408.036a.833.833 0 0 1-.469-.157 1.277 1.277 0 0 1-.397-.455 1.167 1.167 0 0 0-.347-.379 1.037 1.037 0 0 0-.355-.174l-.143-.022c-.1 0-.17.01-.207.033-.038.021-.05.05-.036.083a.527.527 0 0 0 .157.19l.05.036c.106.049.21.14.312.277.102.136.178.26.225.371l.072.168a.923.923 0 0 0 .315.448 1.1 1.1 0 0 0 .48.218c.171.032.337.049.497.051.16.003.292-.006.397-.025l.164-.03a67.26 67.26 0 0 0 .008 1.042c0 .087-.031.16-.093.218-.062.059-.158.076-.287.051-1.107-.374-2.01-1.047-2.709-2.02a5.5 5.5 0 0 1-1.048-3.289c0-1.014.246-1.95.737-2.807a5.52 5.52 0 0 1 2-2.035 5.31 5.31 0 0 1 2.76-.75zm-3.412 8.032c.014-.034-.003-.063-.05-.087-.048-.015-.08-.01-.094.014-.014.034.003.063.05.088.044.029.075.024.094-.015zm.221.248c.034-.025.03-.063-.014-.117-.048-.044-.086-.05-.114-.022-.034.025-.029.063.014.117.048.048.086.056.114.022zm.215.327c.043-.034.043-.08 0-.138-.038-.063-.079-.078-.121-.044-.043.025-.043.068 0 .131.042.063.083.08.121.051zm.3.306c.039-.039.03-.085-.028-.138-.057-.058-.105-.066-.143-.022-.043.039-.033.085.029.138.057.059.105.066.143.022zm.409.182c.014-.053-.017-.092-.093-.116-.072-.02-.117-.003-.136.05-.02.054.012.09.093.11.071.03.117.015.136-.044zm.45.037c0-.063-.04-.09-.121-.08-.076 0-.115.026-.115.08 0 .063.041.09.122.08.076 0 .115-.027.115-.08zm.416-.073c-.01-.054-.053-.075-.13-.066-.075.015-.109.051-.1.11.01.058.053.077.13.058.076-.02.11-.054.1-.102z"/></g><path d="M572.625 3.375v18.05" stroke="#FFF" stroke-width=".6" stroke-linecap="square"/></g><path fill="url(#o)" fill-rule="nonzero" d="M135.385 95.753v-1.485h54.668v1.485z" transform="translate(183.6 272.102)"/><path stroke="url(#p)" stroke-width="1.485" transform="matrix(1 0 0 -1 183.6 512.475)" d="M110.632 137.497H83.2l-27.436-34.621h-25.62"/><path stroke="url(#p)" stroke-width="1.485" d="M110.137 78.146H82.706L55.27 43.524H29.65" transform="translate(183.6 272.102)"/><path fill="#2440D6" d="M232.146 310.99v-6.532l-21.97 12.472v7.126z"/><path fill="#3FCEFF" d="M187.613 304.458v6.533l22.563 13.065v-7.72z"/><path fill="url(#o)" d="M0 13.066L21.97 0l22.563 13.066L21.97 25.538z" transform="matrix(-1 0 0 1 232.146 291.392)"/><path fill="url(#q)" d="M32.123 14.55l-5.938-3.504-2.73 9.86-15.142-8.612 15.913-2.435-5.64-3.326 3.027-1.782 13.538 7.958z" transform="matrix(-1 0 0 1 232.146 291.392)"/><path fill="url(#q)" filter="url(#r)" d="M32.717 14.55l-5.938-3.504-2.731 9.86-15.141-8.612L24.82 9.859l-5.641-3.326 3.028-1.782 13.538 7.958z" transform="matrix(-1 0 0 1 232.146 291.392)"/><g><path fill="#2440D6" d="M322.616 367.987v-6.533l-21.97 12.472v7.126z"/><path fill="#3FCEFF" d="M278.083 361.454v6.533l22.563 13.065v-7.72z"/><path fill="url(#o)" d="M0 13.066L21.97 0l22.563 13.066L21.97 25.538z" transform="matrix(-1 0 0 1 322.616 348.388)"/><path fill="url(#q)" d="M32.123 14.55l-5.938-3.504-2.73 9.86-15.142-8.612 15.913-2.435-5.64-3.326 3.027-1.782 13.538 7.958z" transform="matrix(-1 0 0 1 322.616 348.388)"/><path fill="url(#q)" filter="url(#s)" d="M32.717 14.55l-5.938-3.504-2.731 9.86-15.141-8.612L24.82 9.859l-5.641-3.326 3.028-1.782 13.538 7.958z" transform="matrix(-1 0 0 1 322.616 348.388)"/><g><path fill="#2440D6" d="M322.616 358.484v-6.533l-21.97 12.472v7.126z"/><path fill="#3FCEFF" d="M278.083 351.95v6.534l22.563 13.065v-7.72z"/><path fill="url(#o)" d="M0 13.066L21.97 0l22.563 13.066L21.97 25.538z" transform="matrix(-1 0 0 1 322.616 338.885)"/><path fill="url(#q)" d="M32.123 14.55l-5.938-3.504-2.73 9.86-15.142-8.612 15.913-2.435-5.64-3.326 3.027-1.782 13.538 7.958z" transform="matrix(-1 0 0 1 322.616 338.885)"/><path fill="url(#q)" filter="url(#t)" d="M32.717 14.55l-5.938-3.504-2.731 9.86-15.141-8.612L24.82 9.859l-5.641-3.326 3.028-1.782 13.538 7.958z" transform="matrix(-1 0 0 1 322.616 338.885)"/></g><g><path fill="#2440D6" d="M322.616 347.794v-6.533l-21.97 12.472v7.126z"/><path fill="#3FCEFF" d="M278.083 341.26v6.534l22.563 13.065v-7.72z"/><path fill="url(#o)" d="M0 13.066L21.97 0l22.563 13.066L21.97 25.538z" transform="matrix(-1 0 0 1 322.616 328.195)"/><path fill="url(#q)" d="M32.123 14.55l-5.938-3.504-2.73 9.86-15.142-8.612 15.913-2.435-5.64-3.326 3.027-1.782 13.538 7.958z" transform="matrix(-1 0 0 1 322.616 328.195)"/><path fill="url(#q)" filter="url(#u)" d="M32.717 14.55l-5.938-3.504-2.731 9.86-15.141-8.612L24.82 9.859l-5.641-3.326 3.028-1.782 13.538 7.958z" transform="matrix(-1 0 0 1 322.616 328.195)"/></g><g><path fill="#2440D6" d="M323.803 337.698v-6.533l-21.97 12.472v7.126z"/><path fill="#3FCEFF" d="M279.27 331.165v6.533l22.563 13.065v-7.72z"/><path fill="url(#o)" d="M0 13.066L21.97 0l22.563 13.066L21.97 25.538z" transform="matrix(-1 0 0 1 323.803 318.099)"/><path fill="url(#q)" d="M32.123 14.55l-5.938-3.504-2.73 9.86-15.142-8.612 15.913-2.435-5.64-3.326 3.027-1.782 13.538 7.958z" transform="matrix(-1 0 0 1 323.803 318.099)"/><path fill="url(#q)" filter="url(#v)" d="M32.717 14.55l-5.938-3.504-2.731 9.86-15.141-8.612L24.82 9.859l-5.641-3.326 3.028-1.782 13.538 7.958z" transform="matrix(-1 0 0 1 323.803 318.099)"/></g></g><g><path fill="#2440D6" d="M232.048 301.217v-6.533l-21.97 12.472v7.126z"/><path fill="#3FCEFF" d="M187.515 294.684v6.533l22.563 13.065v-7.72z"/><path fill="url(#o)" d="M0 13.066L21.97 0l22.563 13.066L21.97 25.538z" transform="matrix(-1 0 0 1 232.048 281.618)"/><path fill="url(#q)" d="M32.123 14.55l-5.938-3.504-2.73 9.86-15.142-8.612 15.913-2.435-5.64-3.326 3.027-1.782 13.538 7.958z" transform="matrix(-1 0 0 1 232.048 281.618)"/><path fill="url(#q)" filter="url(#w)" d="M32.717 14.55l-5.938-3.504-2.731 9.86-15.141-8.612L24.82 9.859l-5.641-3.326 3.028-1.782 13.538 7.958z" transform="matrix(-1 0 0 1 232.048 281.618)"/><g><path fill="#2440D6" d="M232.048 291.714v-6.533l-21.97 12.472v7.126z"/><path fill="#3FCEFF" d="M187.515 285.18v6.534l22.563 13.065v-7.72z"/><path fill="url(#o)" d="M0 13.066L21.97 0l22.563 13.066L21.97 25.538z" transform="matrix(-1 0 0 1 232.048 272.115)"/><path fill="url(#q)" d="M32.123 14.55l-5.938-3.504-2.73 9.86-15.142-8.612 15.913-2.435-5.64-3.326 3.027-1.782 13.538 7.958z" transform="matrix(-1 0 0 1 232.048 272.115)"/><path fill="url(#q)" filter="url(#x)" d="M32.717 14.55l-5.938-3.504-2.731 9.86-15.141-8.612L24.82 9.859l-5.641-3.326 3.028-1.782 13.538 7.958z" transform="matrix(-1 0 0 1 232.048 272.115)"/></g></g><g><path fill="#2440D6" d="M228.583 423.236v-6.533l-21.97 12.472v7.126z"/><path fill="#3FCEFF" d="M184.05 416.703v6.533l22.563 13.065v-7.72z"/><path fill="url(#o)" d="M0 13.066L21.97 0l22.563 13.066L21.97 25.538z" transform="matrix(-1 0 0 1 228.583 403.637)"/><path fill="url(#q)" d="M32.123 14.55l-5.938-3.504-2.73 9.86-15.142-8.612 15.913-2.435-5.64-3.326 3.027-1.782 13.538 7.958z" transform="matrix(-1 0 0 1 228.583 403.637)"/><path fill="url(#q)" filter="url(#y)" d="M32.717 14.55l-5.938-3.504-2.731 9.86-15.141-8.612L24.82 9.859l-5.641-3.326 3.028-1.782 13.538 7.958z" transform="matrix(-1 0 0 1 228.583 403.637)"/><g><path fill="#2440D6" d="M228.583 413.49v-6.533l-21.97 12.472v7.126z"/><path fill="#3FCEFF" d="M184.05 406.957v6.533l22.563 13.065v-7.72z"/><path fill="url(#o)" d="M0 13.066L21.97 0l22.563 13.066L21.97 25.538z" transform="matrix(-1 0 0 1 228.583 393.891)"/><path fill="url(#q)" d="M32.123 14.55l-5.938-3.504-2.73 9.86-15.142-8.612 15.913-2.435-5.64-3.326 3.027-1.782 13.538 7.958z" transform="matrix(-1 0 0 1 228.583 393.891)"/><path fill="url(#q)" filter="url(#z)" d="M32.717 14.55l-5.938-3.504-2.731 9.86-15.141-8.612L24.82 9.859l-5.641-3.326 3.028-1.782 13.538 7.958z" transform="matrix(-1 0 0 1 228.583 393.891)"/></g><g><path fill="#2440D6" d="M228.583 403.987v-6.533l-21.97 12.472v7.126z"/><path fill="#3FCEFF" d="M184.05 397.454v6.533l22.563 13.065v-7.72z"/><path fill="url(#o)" d="M0 13.066L21.97 0l22.563 13.066L21.97 25.538z" transform="matrix(-1 0 0 1 228.583 384.388)"/><path fill="url(#q)" d="M32.123 14.55l-5.938-3.504-2.73 9.86-15.142-8.612 15.913-2.435-5.64-3.326 3.027-1.782 13.538 7.958z" transform="matrix(-1 0 0 1 228.583 384.388)"/><path fill="url(#q)" filter="url(#A)" d="M32.717 14.55l-5.938-3.504-2.731 9.86-15.141-8.612L24.82 9.859l-5.641-3.326 3.028-1.782 13.538 7.958z" transform="matrix(-1 0 0 1 228.583 384.388)"/></g></g><g><path fill="url(#B)" fill-rule="nonzero" transform="translate(354.962 272.295)" d="M135.385 95.753v-1.485h54.668v1.485z"/><path stroke="url(#C)" stroke-width="1.485" transform="rotate(180 340.2 256.334)" d="M110.632 137.497H83.2l-27.436-34.621h-25.62"/><path stroke="url(#C)" stroke-width="1.485" d="M110.137 78.146H82.706L55.27 43.524H29.65" transform="matrix(-1 0 0 1 680.4 272.295)"/><path fill="#2440D6" d="M584.729 368.18v-6.533l-21.97 12.472v7.126z"/><path fill="#3FCEFF" d="M540.196 361.647v6.533l22.563 13.065v-7.72z"/><path fill="url(#o)" d="M0 13.066L21.97 0l22.563 13.066L21.97 25.538z" transform="matrix(-1 0 0 1 584.729 348.581)"/><path fill="url(#q)" d="M32.123 14.55l-5.938-3.504-2.73 9.86-15.142-8.612 15.913-2.435-5.64-3.326 3.027-1.782 13.538 7.958z" transform="matrix(-1 0 0 1 584.729 348.581)"/><path fill="url(#q)" filter="url(#D)" d="M32.717 14.55l-5.938-3.504-2.731 9.86-15.141-8.612L24.82 9.859l-5.641-3.326 3.028-1.782 13.538 7.958z" transform="matrix(-1 0 0 1 584.729 348.581)"/><g><path fill="#2440D6" d="M584.729 358.677v-6.533l-21.97 12.472v7.126z"/><path fill="#3FCEFF" d="M540.196 352.144v6.533l22.563 13.065v-7.72z"/><path fill="url(#o)" d="M0 13.066L21.97 0l22.563 13.066L21.97 25.538z" transform="matrix(-1 0 0 1 584.729 339.078)"/><path fill="url(#q)" d="M32.123 14.55l-5.938-3.504-2.73 9.86-15.142-8.612 15.913-2.435-5.64-3.326 3.027-1.782 13.538 7.958z" transform="matrix(-1 0 0 1 584.729 339.078)"/><path fill="url(#q)" filter="url(#E)" d="M32.717 14.55l-5.938-3.504-2.731 9.86-15.141-8.612L24.82 9.859l-5.641-3.326 3.028-1.782 13.538 7.958z" transform="matrix(-1 0 0 1 584.729 339.078)"/></g><g><path fill="#2440D6" d="M584.729 347.987v-6.533l-21.97 12.472v7.126z"/><path fill="#3FCEFF" d="M540.196 341.454v6.533l22.563 13.065v-7.72z"/><path fill="url(#o)" d="M0 13.066L21.97 0l22.563 13.066L21.97 25.538z" transform="matrix(-1 0 0 1 584.729 328.388)"/><path fill="url(#q)" d="M32.123 14.55l-5.938-3.504-2.73 9.86-15.142-8.612 15.913-2.435-5.64-3.326 3.027-1.782 13.538 7.958z" transform="matrix(-1 0 0 1 584.729 328.388)"/><path fill="url(#q)" filter="url(#F)" d="M32.717 14.55l-5.938-3.504-2.731 9.86-15.141-8.612L24.82 9.859l-5.641-3.326 3.028-1.782 13.538 7.958z" transform="matrix(-1 0 0 1 584.729 328.388)"/></g><g><path fill="#2440D6" d="M585.916 337.89v-6.532l-21.97 12.472v7.126z"/><path fill="#3FCEFF" d="M541.383 331.358v6.533l22.563 13.065v-7.72z"/><path fill="url(#o)" d="M0 13.066L21.97 0l22.563 13.066L21.97 25.538z" transform="matrix(-1 0 0 1 585.916 318.292)"/><path fill="url(#q)" d="M32.123 14.55l-5.938-3.504-2.73 9.86-15.142-8.612 15.913-2.435-5.64-3.326 3.027-1.782 13.538 7.958z" transform="matrix(-1 0 0 1 585.916 318.292)"/><path fill="url(#q)" filter="url(#G)" d="M32.717 14.55l-5.938-3.504-2.731 9.86-15.141-8.612L24.82 9.859l-5.641-3.326 3.028-1.782 13.538 7.958z" transform="matrix(-1 0 0 1 585.916 318.292)"/></g><g><path fill="#2440D6" d="M676.575 311.184v-6.533l-21.97 12.472v7.126z"/><path fill="#3FCEFF" d="M632.042 304.65v6.534l22.563 13.065v-7.72z"/><path fill="url(#o)" d="M0 13.066L21.97 0l22.563 13.066L21.97 25.538z" transform="matrix(-1 0 0 1 676.575 291.585)"/><path fill="url(#q)" d="M32.123 14.55l-5.938-3.504-2.73 9.86-15.142-8.612 15.913-2.435-5.64-3.326 3.027-1.782 13.538 7.958z" transform="matrix(-1 0 0 1 676.575 291.585)"/><path fill="url(#q)" filter="url(#H)" d="M32.717 14.55l-5.938-3.504-2.731 9.86-15.141-8.612L24.82 9.859l-5.641-3.326 3.028-1.782 13.538 7.958z" transform="matrix(-1 0 0 1 676.575 291.585)"/><g><path fill="#2440D6" d="M676.477 301.41v-6.533l-21.97 12.472v7.126z"/><path fill="#3FCEFF" d="M631.944 294.877v6.533l22.563 13.065v-7.72z"/><path fill="url(#o)" d="M0 13.066L21.97 0l22.563 13.066L21.97 25.538z" transform="matrix(-1 0 0 1 676.477 281.811)"/><path fill="url(#q)" d="M32.123 14.55l-5.938-3.504-2.73 9.86-15.142-8.612 15.913-2.435-5.64-3.326 3.027-1.782 13.538 7.958z" transform="matrix(-1 0 0 1 676.477 281.811)"/><path fill="url(#q)" filter="url(#I)" d="M32.717 14.55l-5.938-3.504-2.731 9.86-15.141-8.612L24.82 9.859l-5.641-3.326 3.028-1.782 13.538 7.958z" transform="matrix(-1 0 0 1 676.477 281.811)"/></g><g><path fill="#2440D6" d="M676.477 291.907v-6.533l-21.97 12.472v7.126z"/><path fill="#3FCEFF" d="M631.944 285.374v6.533l22.563 13.065v-7.72z"/><path fill="url(#o)" d="M0 13.066L21.97 0l22.563 13.066L21.97 25.538z" transform="matrix(-1 0 0 1 676.477 272.308)"/><path fill="url(#q)" d="M32.123 14.55l-5.938-3.504-2.73 9.86-15.142-8.612 15.913-2.435-5.64-3.326 3.027-1.782 13.538 7.958z" transform="matrix(-1 0 0 1 676.477 272.308)"/><path fill="url(#q)" filter="url(#J)" d="M32.717 14.55l-5.938-3.504-2.731 9.86-15.141-8.612L24.82 9.859l-5.641-3.326 3.028-1.782 13.538 7.958z" transform="matrix(-1 0 0 1 676.477 272.308)"/></g></g><g><path fill="#2440D6" d="M679.941 423.429v-6.533l-21.97 12.472v7.126z"/><path fill="#3FCEFF" d="M635.408 416.896v6.533l22.563 13.065v-7.72z"/><path fill="url(#o)" d="M0 13.066L21.97 0l22.563 13.066L21.97 25.538z" transform="matrix(-1 0 0 1 679.941 403.83)"/><path fill="url(#q)" d="M32.123 14.55l-5.938-3.504-2.73 9.86-15.142-8.612 15.913-2.435-5.64-3.326 3.027-1.782 13.538 7.958z" transform="matrix(-1 0 0 1 679.941 403.83)"/><path fill="url(#q)" filter="url(#K)" d="M32.717 14.55l-5.938-3.504-2.731 9.86-15.141-8.612L24.82 9.859l-5.641-3.326 3.028-1.782 13.538 7.958z" transform="matrix(-1 0 0 1 679.941 403.83)"/><g><path fill="#2440D6" d="M679.941 413.683v-6.533l-21.97 12.472v7.126z"/><path fill="#3FCEFF" d="M635.408 407.15v6.533l22.563 13.065v-7.72z"/><path fill="url(#o)" d="M0 13.066L21.97 0l22.563 13.066L21.97 25.538z" transform="matrix(-1 0 0 1 679.941 394.084)"/><path fill="url(#q)" d="M32.123 14.55l-5.938-3.504-2.73 9.86-15.142-8.612 15.913-2.435-5.64-3.326 3.027-1.782 13.538 7.958z" transform="matrix(-1 0 0 1 679.941 394.084)"/><path fill="url(#q)" filter="url(#L)" d="M32.717 14.55l-5.938-3.504-2.731 9.86-15.141-8.612L24.82 9.859l-5.641-3.326 3.028-1.782 13.538 7.958z" transform="matrix(-1 0 0 1 679.941 394.084)"/></g><g><path fill="#2440D6" d="M679.941 404.18v-6.533l-21.97 12.472v7.126z"/><path fill="#3FCEFF" d="M635.408 397.647v6.533l22.563 13.065v-7.72z"/><path fill="url(#o)" d="M0 13.066L21.97 0l22.563 13.066L21.97 25.538z" transform="matrix(-1 0 0 1 679.941 384.581)"/><path fill="url(#q)" d="M32.123 14.55l-5.938-3.504-2.73 9.86-15.142-8.612 15.913-2.435-5.64-3.326 3.027-1.782 13.538 7.958z" transform="matrix(-1 0 0 1 679.941 384.581)"/><path fill="url(#q)" filter="url(#M)" d="M32.717 14.55l-5.938-3.504-2.731 9.86-15.141-8.612L24.82 9.859l-5.641-3.326 3.028-1.782 13.538 7.958z" transform="matrix(-1 0 0 1 679.941 384.581)"/></g></g></g><g><path stroke="url(#o)" stroke-width="1.485" opacity=".1" d="M0 116.156L59.473 80.77l61.08 35.386-61.08 33.777z" transform="translate(371.683 283.67)"/><path stroke="url(#o)" stroke-width="1.485" transform="matrix(-1 0 0 1 492.237 283.67)" d="M0 83.492l59.473-35.386 61.08 35.386-61.08 33.779z"/><path stroke="url(#o)" stroke-width="1.485" opacity=".35" d="M0 98.933l59.473-35.386 61.08 35.386-61.08 33.777z" transform="translate(371.683 283.67)"/><path stroke="url(#o)" stroke-width="1.485" opacity=".35" d="M0 56.172l59.473-35.386 61.08 35.386-61.08 33.777z" transform="translate(371.683 283.67)"/><path stroke="url(#o)" stroke-width="1.485" opacity=".1" d="M0 35.386L59.473 0l61.08 35.386-61.08 33.777z" transform="translate(371.683 283.67)"/><path fill="#2440D6" d="M479.156 365.746V351.85L432.58 378.38v15.16z"/><path fill="#3FCEFF" d="M384.746 351.85v13.896l47.834 27.795v-16.424z"/><path fill="url(#o)" d="M0 27.794L46.576 0 94.41 27.794 46.576 54.325z" transform="matrix(-1 0 0 1 479.156 324.055)"/><path fill="url(#q)" d="M68.101 29.075L55.513 21.62l-5.79 20.972-32.1-18.32 33.736-5.179-11.958-7.075 6.42-3.79 28.7 16.93z" transform="matrix(-1 0 0 1 479.156 324.055)"/><path fill="url(#q)" filter="url(#N)" d="M69.235 28.984L56.647 21.53l-5.79 20.972-32.1-18.32 33.736-5.179-11.959-7.075 6.42-3.79 28.7 16.93z" transform="matrix(-1 0 0 1 479.156 324.055)"/></g><g transform="translate(123.3 554.4)"><circle fill="url(#O)" cx="330.075" cy="236.925" r="231.075"/><text font-family="WorkSans-Regular, Work Sans" font-size="8.1" fill="#FFF"><tspan x="100.229" y="47.15">The TODA protocol enables millions of on-chain transactions per second at a near-zero cost. As the next </tspan> <tspan x="91.4" y="62.45">evolution of TCP/IP for value transfer, the underlying protocol used by Toda.Network sets the foundations for </tspan> <tspan x="251.618" y="77.75">any decentralized technology. </tspan></text><text font-family="Montserrat-Bold, Montserrat" font-size="18.9" font-weight="bold" fill="#F5F5F5"><tspan x="248.518" y="18">The Protocol</tspan></text></g></g></g></g></svg>