<svg width="1102px" height="369px" viewBox="0 0 1102 369" version="1.1" xmlns="http://www.w3.org/2000/svg" xmlns:xlink="http://www.w3.org/1999/xlink">
    <defs>
        <linearGradient x1="1.11022302e-14%" y1="100%" x2="100%" y2="3.74939946e-31%" id="linearGradient-1">
            <stop stop-color="#2440D6" offset="0%"></stop>
            <stop stop-color="#3FCEFF" offset="100%"></stop>
        </linearGradient>
        <linearGradient x1="1.11022302e-14%" y1="100%" x2="100%" y2="3.74939946e-31%" id="linearGradient-2">
            <stop stop-color="#2440D6" stop-opacity="0.5" offset="0%"></stop>
            <stop stop-color="#3FCEFF" offset="100%"></stop>
        </linearGradient>
        <linearGradient x1="2.22044605e-14%" y1="100%" x2="100%" y2="1.05475548e-30%" id="linearGradient-3">
            <stop stop-color="#3FCEFF" offset="0%"></stop>
            <stop stop-color="#CFD6FF" offset="100%"></stop>
        </linearGradient>
        <filter x="-30.8%" y="-51.1%" width="161.5%" height="202.2%" filterUnits="objectBoundingBox" id="filter-4">
            <feGaussianBlur stdDeviation="6.11383929" in="SourceGraphic"></feGaussianBlur>
        </filter>
        <filter x="-30.8%" y="-51.1%" width="161.5%" height="202.2%" filterUnits="objectBoundingBox" id="filter-5">
            <feGaussianBlur stdDeviation="6.11383929" in="SourceGraphic"></feGaussianBlur>
        </filter>
        <filter x="-30.8%" y="-51.1%" width="161.5%" height="202.2%" filterUnits="objectBoundingBox" id="filter-6">
            <feGaussianBlur stdDeviation="6.11383929" in="SourceGraphic"></feGaussianBlur>
        </filter>
        <filter x="-30.8%" y="-51.1%" width="161.5%" height="202.2%" filterUnits="objectBoundingBox" id="filter-7">
            <feGaussianBlur stdDeviation="6.11383929" in="SourceGraphic"></feGaussianBlur>
        </filter>
        <filter x="-30.8%" y="-51.1%" width="161.5%" height="202.2%" filterUnits="objectBoundingBox" id="filter-8">
            <feGaussianBlur stdDeviation="6.11383929" in="SourceGraphic"></feGaussianBlur>
        </filter>
        <filter x="-30.8%" y="-51.1%" width="161.5%" height="202.2%" filterUnits="objectBoundingBox" id="filter-9">
            <feGaussianBlur stdDeviation="6.11383929" in="SourceGraphic"></feGaussianBlur>
        </filter>
        <filter x="-30.8%" y="-51.1%" width="161.5%" height="202.2%" filterUnits="objectBoundingBox" id="filter-10">
            <feGaussianBlur stdDeviation="6.11383929" in="SourceGraphic"></feGaussianBlur>
        </filter>
        <filter x="-30.8%" y="-51.1%" width="161.5%" height="202.2%" filterUnits="objectBoundingBox" id="filter-11">
            <feGaussianBlur stdDeviation="6.11383929" in="SourceGraphic"></feGaussianBlur>
        </filter>
        <filter x="-30.8%" y="-51.1%" width="161.5%" height="202.2%" filterUnits="objectBoundingBox" id="filter-12">
            <feGaussianBlur stdDeviation="6.11383929" in="SourceGraphic"></feGaussianBlur>
        </filter>
        <filter x="-30.8%" y="-51.1%" width="161.5%" height="202.2%" filterUnits="objectBoundingBox" id="filter-13">
            <feGaussianBlur stdDeviation="6.11383929" in="SourceGraphic"></feGaussianBlur>
        </filter>
        <linearGradient x1="100%" y1="100%" x2="0%" y2="1.72254642e-14%" id="linearGradient-14">
            <stop stop-color="#3FCEFF" offset="0%"></stop>
            <stop stop-color="#2440D6" offset="100%"></stop>
        </linearGradient>
        <linearGradient x1="92.5930615%" y1="100%" x2="5.89106054%" y2="0%" id="linearGradient-15">
            <stop stop-color="#3FCEFF" offset="0%"></stop>
            <stop stop-color="#2440D6" stop-opacity="0.5" offset="100%"></stop>
        </linearGradient>
        <filter x="-30.8%" y="-51.1%" width="161.5%" height="202.2%" filterUnits="objectBoundingBox" id="filter-16">
            <feGaussianBlur stdDeviation="6.11383929" in="SourceGraphic"></feGaussianBlur>
        </filter>
        <filter x="-30.8%" y="-51.1%" width="161.5%" height="202.2%" filterUnits="objectBoundingBox" id="filter-17">
            <feGaussianBlur stdDeviation="6.11383929" in="SourceGraphic"></feGaussianBlur>
        </filter>
        <filter x="-30.8%" y="-51.1%" width="161.5%" height="202.2%" filterUnits="objectBoundingBox" id="filter-18">
            <feGaussianBlur stdDeviation="6.11383929" in="SourceGraphic"></feGaussianBlur>
        </filter>
        <filter x="-30.8%" y="-51.1%" width="161.5%" height="202.2%" filterUnits="objectBoundingBox" id="filter-19">
            <feGaussianBlur stdDeviation="6.11383929" in="SourceGraphic"></feGaussianBlur>
        </filter>
        <filter x="-30.8%" y="-51.1%" width="161.5%" height="202.2%" filterUnits="objectBoundingBox" id="filter-20">
            <feGaussianBlur stdDeviation="6.11383929" in="SourceGraphic"></feGaussianBlur>
        </filter>
        <filter x="-30.8%" y="-51.1%" width="161.5%" height="202.2%" filterUnits="objectBoundingBox" id="filter-21">
            <feGaussianBlur stdDeviation="6.11383929" in="SourceGraphic"></feGaussianBlur>
        </filter>
        <filter x="-30.8%" y="-51.1%" width="161.5%" height="202.2%" filterUnits="objectBoundingBox" id="filter-22">
            <feGaussianBlur stdDeviation="6.11383929" in="SourceGraphic"></feGaussianBlur>
        </filter>
        <filter x="-30.8%" y="-51.1%" width="161.5%" height="202.2%" filterUnits="objectBoundingBox" id="filter-23">
            <feGaussianBlur stdDeviation="6.11383929" in="SourceGraphic"></feGaussianBlur>
        </filter>
        <filter x="-30.8%" y="-51.1%" width="161.5%" height="202.2%" filterUnits="objectBoundingBox" id="filter-24">
            <feGaussianBlur stdDeviation="6.11383929" in="SourceGraphic"></feGaussianBlur>
        </filter>
        <filter x="-30.8%" y="-51.1%" width="161.5%" height="202.2%" filterUnits="objectBoundingBox" id="filter-25">
            <feGaussianBlur stdDeviation="6.11383929" in="SourceGraphic"></feGaussianBlur>
        </filter>
        <filter x="-14.5%" y="-24.0%" width="129.0%" height="148.0%" filterUnits="objectBoundingBox" id="filter-26">
            <feGaussianBlur stdDeviation="6.11383929" in="SourceGraphic"></feGaussianBlur>
        </filter>
    </defs>
    <g id="TODA" stroke="none" stroke-width="1" fill="none" fill-rule="evenodd">
        <g id="Case-Study---Toda" transform="translate(-169.000000, -4516.000000)">
            <g id="illustration" transform="translate(168.000000, 4519.000000)">
                <g id="Left" transform="translate(0.000000, 0.670493)">
                    <polygon id="Line" fill="url(#linearGradient-1)" fill-rule="nonzero" points="300.855506 212.785239 300.855506 209.485239 422.340927 209.485239 422.340927 212.785239"></polygon>
                    <polyline id="path" stroke="url(#linearGradient-2)" stroke-width="3.3" transform="translate(156.417914, 267.081081) scale(1, -1) translate(-156.417914, -267.081081) " points="245.847804 305.54955 184.890355 305.54955 123.921637 228.612613 66.988024 228.612613"></polyline>
                    <polyline id="path" stroke="url(#linearGradient-2)" stroke-width="3.3" points="244.748004 173.657658 183.790555 173.657658 122.821837 96.7207207 65.8882236 96.7207207"></polyline>
                    <g id="box" transform="translate(58.379414, 79.364865) scale(-1, 1) translate(-58.379414, -79.364865) translate(8.879414, 42.864865)">
                        <polygon id="Clip-2" fill="#2440D6" points="0 43.5523323 0 29.0348882 48.8214605 56.7500087 48.8214605 72.5872204"></polygon>
                        <polygon id="Clip-5" fill="#3FCEFF" points="98.96242 29.0348882 98.96242 43.5523323 48.8214605 72.5872204 48.8214605 55.4302411"></polygon>
                        <polygon id="Clip-8" fill="url(#linearGradient-1)" points="0 29.0348882 48.8214605 0 98.96242 29.0348882 48.8214605 56.7500087"></polygon>
                        <polygon id="logo" fill="url(#linearGradient-3)" points="71.3848923 32.3343073 58.189903 24.5476782 52.1202079 46.4558211 18.4729851 27.3191902 53.8355565 21.9081429 41.3003166 14.5174441 48.0297612 10.5581412 78.1143368 28.2430276"></polygon>
                        <polygon id="logo" fill="url(#linearGradient-3)" filter="url(#filter-4)" points="72.7043912 32.3343073 59.5094019 24.5476782 53.4397068 46.4558211 19.792484 27.3191902 55.1550554 21.9081429 42.6198155 14.5174441 49.3492601 10.5581412 79.4338358 28.2430276"></polygon>
                    </g>
                    <g id="Staked" transform="translate(208.962076, 102.216216)">
                        <g id="box" transform="translate(50.462420, 103.808150) scale(-1, 1) translate(-50.462420, -103.808150) translate(0.962420, 67.308150)">
                            <polygon id="Clip-2" fill="#2440D6" points="0 43.5523323 0 29.0348882 48.8214605 56.7500087 48.8214605 72.5872204"></polygon>
                            <polygon id="Clip-5" fill="#3FCEFF" points="98.96242 29.0348882 98.96242 43.5523323 48.8214605 72.5872204 48.8214605 55.4302411"></polygon>
                            <polygon id="Clip-8" fill="url(#linearGradient-1)" points="0 29.0348882 48.8214605 0 98.96242 29.0348882 48.8214605 56.7500087"></polygon>
                            <polygon id="logo" fill="url(#linearGradient-3)" points="71.3848923 32.3343073 58.189903 24.5476782 52.1202079 46.4558211 18.4729851 27.3191902 53.8355565 21.9081429 41.3003166 14.5174441 48.0297612 10.5581412 78.1143368 28.2430276"></polygon>
                            <polygon id="logo" fill="url(#linearGradient-3)" filter="url(#filter-5)" points="72.7043912 32.3343073 59.5094019 24.5476782 53.4397068 46.4558211 19.792484 27.3191902 55.1550554 21.9081429 42.6198155 14.5174441 49.3492601 10.5581412 79.4338358 28.2430276"></polygon>
                        </g>
                        <g id="box" transform="translate(50.462420, 82.691868) scale(-1, 1) translate(-50.462420, -82.691868) translate(0.962420, 46.191868)">
                            <polygon id="Clip-2" fill="#2440D6" points="0 43.5523323 0 29.0348882 48.8214605 56.7500087 48.8214605 72.5872204"></polygon>
                            <polygon id="Clip-5" fill="#3FCEFF" points="98.96242 29.0348882 98.96242 43.5523323 48.8214605 72.5872204 48.8214605 55.4302411"></polygon>
                            <polygon id="Clip-8" fill="url(#linearGradient-1)" points="0 29.0348882 48.8214605 0 98.96242 29.0348882 48.8214605 56.7500087"></polygon>
                            <polygon id="logo" fill="url(#linearGradient-3)" points="71.3848923 32.3343073 58.189903 24.5476782 52.1202079 46.4558211 18.4729851 27.3191902 53.8355565 21.9081429 41.3003166 14.5174441 48.0297612 10.5581412 78.1143368 28.2430276"></polygon>
                            <polygon id="logo" fill="url(#linearGradient-3)" filter="url(#filter-6)" points="72.7043912 32.3343073 59.5094019 24.5476782 53.4397068 46.4558211 19.792484 27.3191902 55.1550554 21.9081429 42.6198155 14.5174441 49.3492601 10.5581412 79.4338358 28.2430276"></polygon>
                        </g>
                        <g id="box" transform="translate(50.462420, 58.936050) scale(-1, 1) translate(-50.462420, -58.936050) translate(0.962420, 22.436050)">
                            <polygon id="Clip-2" fill="#2440D6" points="0 43.5523323 0 29.0348882 48.8214605 56.7500087 48.8214605 72.5872204"></polygon>
                            <polygon id="Clip-5" fill="#3FCEFF" points="98.96242 29.0348882 98.96242 43.5523323 48.8214605 72.5872204 48.8214605 55.4302411"></polygon>
                            <polygon id="Clip-8" fill="url(#linearGradient-1)" points="0 29.0348882 48.8214605 0 98.96242 29.0348882 48.8214605 56.7500087"></polygon>
                            <polygon id="logo" fill="url(#linearGradient-3)" points="71.3848923 32.3343073 58.189903 24.5476782 52.1202079 46.4558211 18.4729851 27.3191902 53.8355565 21.9081429 41.3003166 14.5174441 48.0297612 10.5581412 78.1143368 28.2430276"></polygon>
                            <polygon id="logo" fill="url(#linearGradient-3)" filter="url(#filter-7)" points="72.7043912 32.3343073 59.5094019 24.5476782 53.4397068 46.4558211 19.792484 27.3191902 55.1550554 21.9081429 42.6198155 14.5174441 49.3492601 10.5581412 79.4338358 28.2430276"></polygon>
                        </g>
                        <g id="box" transform="translate(53.101418, 36.500000) scale(-1, 1) translate(-53.101418, -36.500000) translate(3.601418, 0.000000)">
                            <polygon id="Clip-2" fill="#2440D6" points="0 43.5523323 0 29.0348882 48.8214605 56.7500087 48.8214605 72.5872204"></polygon>
                            <polygon id="Clip-5" fill="#3FCEFF" points="98.96242 29.0348882 98.96242 43.5523323 48.8214605 72.5872204 48.8214605 55.4302411"></polygon>
                            <polygon id="Clip-8" fill="url(#linearGradient-1)" points="0 29.0348882 48.8214605 0 98.96242 29.0348882 48.8214605 56.7500087"></polygon>
                            <polygon id="logo" fill="url(#linearGradient-3)" points="71.3848923 32.3343073 58.189903 24.5476782 52.1202079 46.4558211 18.4729851 27.3191902 53.8355565 21.9081429 41.3003166 14.5174441 48.0297612 10.5581412 78.1143368 28.2430276"></polygon>
                            <polygon id="logo" fill="url(#linearGradient-3)" filter="url(#filter-8)" points="72.7043912 32.3343073 59.5094019 24.5476782 53.4397068 46.4558211 19.792484 27.3191902 55.1550554 21.9081429 42.6198155 14.5174441 49.3492601 10.5581412 79.4338358 28.2430276"></polygon>
                        </g>
                    </g>
                    <g id="Staked" transform="translate(8.598802, 0.000000)">
                        <g id="box" transform="translate(49.562220, 57.645988) scale(-1, 1) translate(-49.562220, -57.645988) translate(0.062220, 21.145988)">
                            <polygon id="Clip-2" fill="#2440D6" points="0 43.5523323 0 29.0348882 48.8214605 56.7500087 48.8214605 72.5872204"></polygon>
                            <polygon id="Clip-5" fill="#3FCEFF" points="98.96242 29.0348882 98.96242 43.5523323 48.8214605 72.5872204 48.8214605 55.4302411"></polygon>
                            <polygon id="Clip-8" fill="url(#linearGradient-1)" points="0 29.0348882 48.8214605 0 98.96242 29.0348882 48.8214605 56.7500087"></polygon>
                            <polygon id="logo" fill="url(#linearGradient-3)" points="71.3848923 32.3343073 58.189903 24.5476782 52.1202079 46.4558211 18.4729851 27.3191902 53.8355565 21.9081429 41.3003166 14.5174441 48.0297612 10.5581412 78.1143368 28.2430276"></polygon>
                            <polygon id="logo" fill="url(#linearGradient-3)" filter="url(#filter-9)" points="72.7043912 32.3343073 59.5094019 24.5476782 53.4397068 46.4558211 19.792484 27.3191902 55.1550554 21.9081429 42.6198155 14.5174441 49.3492601 10.5581412 79.4338358 28.2430276"></polygon>
                        </g>
                        <g id="box" transform="translate(49.562220, 36.529705) scale(-1, 1) translate(-49.562220, -36.529705) translate(0.062220, 0.029705)">
                            <polygon id="Clip-2" fill="#2440D6" points="0 43.5523323 0 29.0348882 48.8214605 56.7500087 48.8214605 72.5872204"></polygon>
                            <polygon id="Clip-5" fill="#3FCEFF" points="98.96242 29.0348882 98.96242 43.5523323 48.8214605 72.5872204 48.8214605 55.4302411"></polygon>
                            <polygon id="Clip-8" fill="url(#linearGradient-1)" points="0 29.0348882 48.8214605 0 98.96242 29.0348882 48.8214605 56.7500087"></polygon>
                            <polygon id="logo" fill="url(#linearGradient-3)" points="71.3848923 32.3343073 58.189903 24.5476782 52.1202079 46.4558211 18.4729851 27.3191902 53.8355565 21.9081429 41.3003166 14.5174441 48.0297612 10.5581412 78.1143368 28.2430276"></polygon>
                            <polygon id="logo" fill="url(#linearGradient-3)" filter="url(#filter-10)" points="72.7043912 32.3343073 59.5094019 24.5476782 53.4397068 46.4558211 19.792484 27.3191902 55.1550554 21.9081429 42.6198155 14.5174441 49.3492601 10.5581412 79.4338358 28.2430276"></polygon>
                        </g>
                    </g>
                    <g id="Staked" transform="translate(0.000000, 249.495495)">
                        <g id="box" transform="translate(50.462420, 79.305454) scale(-1, 1) translate(-50.462420, -79.305454) translate(0.962420, 42.805454)">
                            <polygon id="Clip-2" fill="#2440D6" points="0 43.5523323 0 29.0348882 48.8214605 56.7500087 48.8214605 72.5872204"></polygon>
                            <polygon id="Clip-5" fill="#3FCEFF" points="98.96242 29.0348882 98.96242 43.5523323 48.8214605 72.5872204 48.8214605 55.4302411"></polygon>
                            <polygon id="Clip-8" fill="url(#linearGradient-1)" points="0 29.0348882 48.8214605 0 98.96242 29.0348882 48.8214605 56.7500087"></polygon>
                            <polygon id="logo" fill="url(#linearGradient-3)" points="71.3848923 32.3343073 58.189903 24.5476782 52.1202079 46.4558211 18.4729851 27.3191902 53.8355565 21.9081429 41.3003166 14.5174441 48.0297612 10.5581412 78.1143368 28.2430276"></polygon>
                            <polygon id="logo" fill="url(#linearGradient-3)" filter="url(#filter-11)" points="72.7043912 32.3343073 59.5094019 24.5476782 53.4397068 46.4558211 19.792484 27.3191902 55.1550554 21.9081429 42.6198155 14.5174441 49.3492601 10.5581412 79.4338358 28.2430276"></polygon>
                        </g>
                        <g id="box" transform="translate(50.462420, 57.645988) scale(-1, 1) translate(-50.462420, -57.645988) translate(0.962420, 21.145988)">
                            <polygon id="Clip-2" fill="#2440D6" points="0 43.5523323 0 29.0348882 48.8214605 56.7500087 48.8214605 72.5872204"></polygon>
                            <polygon id="Clip-5" fill="#3FCEFF" points="98.96242 29.0348882 98.96242 43.5523323 48.8214605 72.5872204 48.8214605 55.4302411"></polygon>
                            <polygon id="Clip-8" fill="url(#linearGradient-1)" points="0 29.0348882 48.8214605 0 98.96242 29.0348882 48.8214605 56.7500087"></polygon>
                            <polygon id="logo" fill="url(#linearGradient-3)" points="71.3848923 32.3343073 58.189903 24.5476782 52.1202079 46.4558211 18.4729851 27.3191902 53.8355565 21.9081429 41.3003166 14.5174441 48.0297612 10.5581412 78.1143368 28.2430276"></polygon>
                            <polygon id="logo" fill="url(#linearGradient-3)" filter="url(#filter-12)" points="72.7043912 32.3343073 59.5094019 24.5476782 53.4397068 46.4558211 19.792484 27.3191902 55.1550554 21.9081429 42.6198155 14.5174441 49.3492601 10.5581412 79.4338358 28.2430276"></polygon>
                        </g>
                        <g id="box" transform="translate(50.462420, 36.529705) scale(-1, 1) translate(-50.462420, -36.529705) translate(0.962420, 0.029705)">
                            <polygon id="Clip-2" fill="#2440D6" points="0 43.5523323 0 29.0348882 48.8214605 56.7500087 48.8214605 72.5872204"></polygon>
                            <polygon id="Clip-5" fill="#3FCEFF" points="98.96242 29.0348882 98.96242 43.5523323 48.8214605 72.5872204 48.8214605 55.4302411"></polygon>
                            <polygon id="Clip-8" fill="url(#linearGradient-1)" points="0 29.0348882 48.8214605 0 98.96242 29.0348882 48.8214605 56.7500087"></polygon>
                            <polygon id="logo" fill="url(#linearGradient-3)" points="71.3848923 32.3343073 58.189903 24.5476782 52.1202079 46.4558211 18.4729851 27.3191902 53.8355565 21.9081429 41.3003166 14.5174441 48.0297612 10.5581412 78.1143368 28.2430276"></polygon>
                            <polygon id="logo" fill="url(#linearGradient-3)" filter="url(#filter-13)" points="72.7043912 32.3343073 59.5094019 24.5476782 53.4397068 46.4558211 19.792484 27.3191902 55.1550554 21.9081429 42.6198155 14.5174441 49.3492601 10.5581412 79.4338358 28.2430276"></polygon>
                        </g>
                    </g>
                </g>
                <g id="Left" transform="translate(893.000000, 184.099099) scale(-1, 1) translate(-893.000000, -184.099099) translate(682.000000, 1.099099)">
                    <polygon id="Line" fill="url(#linearGradient-14)" fill-rule="nonzero" transform="translate(361.598217, 211.135239) scale(-1, 1) translate(-361.598217, -211.135239) " points="300.855506 212.785239 300.855506 209.485239 422.340927 209.485239 422.340927 212.785239"></polygon>
                    <polyline id="path" stroke="url(#linearGradient-15)" stroke-width="3.3" transform="translate(156.417914, 267.081081) scale(1, -1) translate(-156.417914, -267.081081) " points="245.847804 305.54955 184.890355 305.54955 123.921637 228.612613 66.988024 228.612613"></polyline>
                    <polyline id="path" stroke="url(#linearGradient-15)" stroke-width="3.3" points="244.748004 173.657658 183.790555 173.657658 122.821837 96.7207207 65.8882236 96.7207207"></polyline>
                    <g id="Staked" transform="translate(261.063494, 172.716216) scale(-1, 1) translate(-261.063494, -172.716216) translate(209.563494, 102.216216)">
                        <g id="box" transform="translate(50.462420, 103.808150) scale(-1, 1) translate(-50.462420, -103.808150) translate(0.962420, 67.308150)">
                            <polygon id="Clip-2" fill="#2440D6" points="0 43.5523323 0 29.0348882 48.8214605 56.7500087 48.8214605 72.5872204"></polygon>
                            <polygon id="Clip-5" fill="#3FCEFF" points="98.96242 29.0348882 98.96242 43.5523323 48.8214605 72.5872204 48.8214605 55.4302411"></polygon>
                            <polygon id="Clip-8" fill="url(#linearGradient-1)" points="0 29.0348882 48.8214605 0 98.96242 29.0348882 48.8214605 56.7500087"></polygon>
                            <polygon id="logo" fill="url(#linearGradient-3)" points="71.3848923 32.3343073 58.189903 24.5476782 52.1202079 46.4558211 18.4729851 27.3191902 53.8355565 21.9081429 41.3003166 14.5174441 48.0297612 10.5581412 78.1143368 28.2430276"></polygon>
                            <polygon id="logo" fill="url(#linearGradient-3)" filter="url(#filter-16)" points="72.7043912 32.3343073 59.5094019 24.5476782 53.4397068 46.4558211 19.792484 27.3191902 55.1550554 21.9081429 42.6198155 14.5174441 49.3492601 10.5581412 79.4338358 28.2430276"></polygon>
                        </g>
                        <g id="box" transform="translate(50.462420, 82.691868) scale(-1, 1) translate(-50.462420, -82.691868) translate(0.962420, 46.191868)">
                            <polygon id="Clip-2" fill="#2440D6" points="0 43.5523323 0 29.0348882 48.8214605 56.7500087 48.8214605 72.5872204"></polygon>
                            <polygon id="Clip-5" fill="#3FCEFF" points="98.96242 29.0348882 98.96242 43.5523323 48.8214605 72.5872204 48.8214605 55.4302411"></polygon>
                            <polygon id="Clip-8" fill="url(#linearGradient-1)" points="0 29.0348882 48.8214605 0 98.96242 29.0348882 48.8214605 56.7500087"></polygon>
                            <polygon id="logo" fill="url(#linearGradient-3)" points="71.3848923 32.3343073 58.189903 24.5476782 52.1202079 46.4558211 18.4729851 27.3191902 53.8355565 21.9081429 41.3003166 14.5174441 48.0297612 10.5581412 78.1143368 28.2430276"></polygon>
                            <polygon id="logo" fill="url(#linearGradient-3)" filter="url(#filter-17)" points="72.7043912 32.3343073 59.5094019 24.5476782 53.4397068 46.4558211 19.792484 27.3191902 55.1550554 21.9081429 42.6198155 14.5174441 49.3492601 10.5581412 79.4338358 28.2430276"></polygon>
                        </g>
                        <g id="box" transform="translate(50.462420, 58.936050) scale(-1, 1) translate(-50.462420, -58.936050) translate(0.962420, 22.436050)">
                            <polygon id="Clip-2" fill="#2440D6" points="0 43.5523323 0 29.0348882 48.8214605 56.7500087 48.8214605 72.5872204"></polygon>
                            <polygon id="Clip-5" fill="#3FCEFF" points="98.96242 29.0348882 98.96242 43.5523323 48.8214605 72.5872204 48.8214605 55.4302411"></polygon>
                            <polygon id="Clip-8" fill="url(#linearGradient-1)" points="0 29.0348882 48.8214605 0 98.96242 29.0348882 48.8214605 56.7500087"></polygon>
                            <polygon id="logo" fill="url(#linearGradient-3)" points="71.3848923 32.3343073 58.189903 24.5476782 52.1202079 46.4558211 18.4729851 27.3191902 53.8355565 21.9081429 41.3003166 14.5174441 48.0297612 10.5581412 78.1143368 28.2430276"></polygon>
                            <polygon id="logo" fill="url(#linearGradient-3)" filter="url(#filter-18)" points="72.7043912 32.3343073 59.5094019 24.5476782 53.4397068 46.4558211 19.792484 27.3191902 55.1550554 21.9081429 42.6198155 14.5174441 49.3492601 10.5581412 79.4338358 28.2430276"></polygon>
                        </g>
                        <g id="box" transform="translate(53.101418, 36.500000) scale(-1, 1) translate(-53.101418, -36.500000) translate(3.601418, 0.000000)">
                            <polygon id="Clip-2" fill="#2440D6" points="0 43.5523323 0 29.0348882 48.8214605 56.7500087 48.8214605 72.5872204"></polygon>
                            <polygon id="Clip-5" fill="#3FCEFF" points="98.96242 29.0348882 98.96242 43.5523323 48.8214605 72.5872204 48.8214605 55.4302411"></polygon>
                            <polygon id="Clip-8" fill="url(#linearGradient-1)" points="0 29.0348882 48.8214605 0 98.96242 29.0348882 48.8214605 56.7500087"></polygon>
                            <polygon id="logo" fill="url(#linearGradient-3)" points="71.3848923 32.3343073 58.189903 24.5476782 52.1202079 46.4558211 18.4729851 27.3191902 53.8355565 21.9081429 41.3003166 14.5174441 48.0297612 10.5581412 78.1143368 28.2430276"></polygon>
                            <polygon id="logo" fill="url(#linearGradient-3)" filter="url(#filter-19)" points="72.7043912 32.3343073 59.5094019 24.5476782 53.4397068 46.4558211 19.792484 27.3191902 55.1550554 21.9081429 42.6198155 14.5174441 49.3492601 10.5581412 79.4338358 28.2430276"></polygon>
                        </g>
                    </g>
                    <g id="Staked" transform="translate(57.780439, 58.000000) scale(-1, 1) translate(-57.780439, -58.000000) translate(7.780439, 0.000000)">
                        <g id="box" transform="translate(49.780611, 79.364865) scale(-1, 1) translate(-49.780611, -79.364865) translate(0.280611, 42.864865)">
                            <polygon id="Clip-2" fill="#2440D6" points="0 43.5523323 0 29.0348882 48.8214605 56.7500087 48.8214605 72.5872204"></polygon>
                            <polygon id="Clip-5" fill="#3FCEFF" points="98.96242 29.0348882 98.96242 43.5523323 48.8214605 72.5872204 48.8214605 55.4302411"></polygon>
                            <polygon id="Clip-8" fill="url(#linearGradient-1)" points="0 29.0348882 48.8214605 0 98.96242 29.0348882 48.8214605 56.7500087"></polygon>
                            <polygon id="logo" fill="url(#linearGradient-3)" points="71.3848923 32.3343073 58.189903 24.5476782 52.1202079 46.4558211 18.4729851 27.3191902 53.8355565 21.9081429 41.3003166 14.5174441 48.0297612 10.5581412 78.1143368 28.2430276"></polygon>
                            <polygon id="logo" fill="url(#linearGradient-3)" filter="url(#filter-20)" points="72.7043912 32.3343073 59.5094019 24.5476782 53.4397068 46.4558211 19.792484 27.3191902 55.1550554 21.9081429 42.6198155 14.5174441 49.3492601 10.5581412 79.4338358 28.2430276"></polygon>
                        </g>
                        <g id="box" transform="translate(49.562220, 57.645988) scale(-1, 1) translate(-49.562220, -57.645988) translate(0.062220, 21.145988)">
                            <polygon id="Clip-2" fill="#2440D6" points="0 43.5523323 0 29.0348882 48.8214605 56.7500087 48.8214605 72.5872204"></polygon>
                            <polygon id="Clip-5" fill="#3FCEFF" points="98.96242 29.0348882 98.96242 43.5523323 48.8214605 72.5872204 48.8214605 55.4302411"></polygon>
                            <polygon id="Clip-8" fill="url(#linearGradient-1)" points="0 29.0348882 48.8214605 0 98.96242 29.0348882 48.8214605 56.7500087"></polygon>
                            <polygon id="logo" fill="url(#linearGradient-3)" points="71.3848923 32.3343073 58.189903 24.5476782 52.1202079 46.4558211 18.4729851 27.3191902 53.8355565 21.9081429 41.3003166 14.5174441 48.0297612 10.5581412 78.1143368 28.2430276"></polygon>
                            <polygon id="logo" fill="url(#linearGradient-3)" filter="url(#filter-21)" points="72.7043912 32.3343073 59.5094019 24.5476782 53.4397068 46.4558211 19.792484 27.3191902 55.1550554 21.9081429 42.6198155 14.5174441 49.3492601 10.5581412 79.4338358 28.2430276"></polygon>
                        </g>
                        <g id="box" transform="translate(49.562220, 36.529705) scale(-1, 1) translate(-49.562220, -36.529705) translate(0.062220, 0.029705)">
                            <polygon id="Clip-2" fill="#2440D6" points="0 43.5523323 0 29.0348882 48.8214605 56.7500087 48.8214605 72.5872204"></polygon>
                            <polygon id="Clip-5" fill="#3FCEFF" points="98.96242 29.0348882 98.96242 43.5523323 48.8214605 72.5872204 48.8214605 55.4302411"></polygon>
                            <polygon id="Clip-8" fill="url(#linearGradient-1)" points="0 29.0348882 48.8214605 0 98.96242 29.0348882 48.8214605 56.7500087"></polygon>
                            <polygon id="logo" fill="url(#linearGradient-3)" points="71.3848923 32.3343073 58.189903 24.5476782 52.1202079 46.4558211 18.4729851 27.3191902 53.8355565 21.9081429 41.3003166 14.5174441 48.0297612 10.5581412 78.1143368 28.2430276"></polygon>
                            <polygon id="logo" fill="url(#linearGradient-3)" filter="url(#filter-22)" points="72.7043912 32.3343073 59.5094019 24.5476782 53.4397068 46.4558211 19.792484 27.3191902 55.1550554 21.9081429 42.6198155 14.5174441 49.3492601 10.5581412 79.4338358 28.2430276"></polygon>
                        </g>
                    </g>
                    <g id="Staked" transform="translate(50.982036, 307.495495) scale(-1, 1) translate(-50.982036, -307.495495) translate(0.982036, 249.495495)">
                        <g id="box" transform="translate(50.462420, 79.305454) scale(-1, 1) translate(-50.462420, -79.305454) translate(0.962420, 42.805454)">
                            <polygon id="Clip-2" fill="#2440D6" points="0 43.5523323 0 29.0348882 48.8214605 56.7500087 48.8214605 72.5872204"></polygon>
                            <polygon id="Clip-5" fill="#3FCEFF" points="98.96242 29.0348882 98.96242 43.5523323 48.8214605 72.5872204 48.8214605 55.4302411"></polygon>
                            <polygon id="Clip-8" fill="url(#linearGradient-1)" points="0 29.0348882 48.8214605 0 98.96242 29.0348882 48.8214605 56.7500087"></polygon>
                            <polygon id="logo" fill="url(#linearGradient-3)" points="71.3848923 32.3343073 58.189903 24.5476782 52.1202079 46.4558211 18.4729851 27.3191902 53.8355565 21.9081429 41.3003166 14.5174441 48.0297612 10.5581412 78.1143368 28.2430276"></polygon>
                            <polygon id="logo" fill="url(#linearGradient-3)" filter="url(#filter-23)" points="72.7043912 32.3343073 59.5094019 24.5476782 53.4397068 46.4558211 19.792484 27.3191902 55.1550554 21.9081429 42.6198155 14.5174441 49.3492601 10.5581412 79.4338358 28.2430276"></polygon>
                        </g>
                        <g id="box" transform="translate(50.462420, 57.645988) scale(-1, 1) translate(-50.462420, -57.645988) translate(0.962420, 21.145988)">
                            <polygon id="Clip-2" fill="#2440D6" points="0 43.5523323 0 29.0348882 48.8214605 56.7500087 48.8214605 72.5872204"></polygon>
                            <polygon id="Clip-5" fill="#3FCEFF" points="98.96242 29.0348882 98.96242 43.5523323 48.8214605 72.5872204 48.8214605 55.4302411"></polygon>
                            <polygon id="Clip-8" fill="url(#linearGradient-1)" points="0 29.0348882 48.8214605 0 98.96242 29.0348882 48.8214605 56.7500087"></polygon>
                            <polygon id="logo" fill="url(#linearGradient-3)" points="71.3848923 32.3343073 58.189903 24.5476782 52.1202079 46.4558211 18.4729851 27.3191902 53.8355565 21.9081429 41.3003166 14.5174441 48.0297612 10.5581412 78.1143368 28.2430276"></polygon>
                            <polygon id="logo" fill="url(#linearGradient-3)" filter="url(#filter-24)" points="72.7043912 32.3343073 59.5094019 24.5476782 53.4397068 46.4558211 19.792484 27.3191902 55.1550554 21.9081429 42.6198155 14.5174441 49.3492601 10.5581412 79.4338358 28.2430276"></polygon>
                        </g>
                        <g id="box" transform="translate(50.462420, 36.529705) scale(-1, 1) translate(-50.462420, -36.529705) translate(0.962420, 0.029705)">
                            <polygon id="Clip-2" fill="#2440D6" points="0 43.5523323 0 29.0348882 48.8214605 56.7500087 48.8214605 72.5872204"></polygon>
                            <polygon id="Clip-5" fill="#3FCEFF" points="98.96242 29.0348882 98.96242 43.5523323 48.8214605 72.5872204 48.8214605 55.4302411"></polygon>
                            <polygon id="Clip-8" fill="url(#linearGradient-1)" points="0 29.0348882 48.8214605 0 98.96242 29.0348882 48.8214605 56.7500087"></polygon>
                            <polygon id="logo" fill="url(#linearGradient-3)" points="71.3848923 32.3343073 58.189903 24.5476782 52.1202079 46.4558211 18.4729851 27.3191902 53.8355565 21.9081429 41.3003166 14.5174441 48.0297612 10.5581412 78.1143368 28.2430276"></polygon>
                            <polygon id="logo" fill="url(#linearGradient-3)" filter="url(#filter-25)" points="72.7043912 32.3343073 59.5094019 24.5476782 53.4397068 46.4558211 19.792484 27.3191902 55.1550554 21.9081429 42.6198155 14.5174441 49.3492601 10.5581412 79.4338358 28.2430276"></polygon>
                        </g>
                    </g>
                </g>
                <g id="Middle" transform="translate(417.961663, 26.378378)">
                    <polygon id="stroke" stroke="url(#linearGradient-1)" stroke-width="3.3" opacity="0.1" points="0 258.123478 132.162602 179.4884 267.897166 258.123478 132.162602 333.184235"></polygon>
                    <polygon id="stroke" stroke="url(#linearGradient-1)" stroke-width="3.3" transform="translate(133.948583, 183.751248) scale(-1, 1) translate(-133.948583, -183.751248) " points="0 185.538459 132.162602 106.901179 267.897166 185.538459 132.162602 260.601318"></polygon>
                    <polygon id="stroke" stroke="url(#linearGradient-1)" stroke-width="3.3" opacity="0.35" points="0 219.850216 132.162602 141.215138 267.897166 219.850216 132.162602 294.910973"></polygon>
                    <polygon id="stroke" stroke="url(#linearGradient-1)" stroke-width="3.3" opacity="0.35" points="0 124.826946 132.162602 46.1918675 267.897166 124.826946 132.162602 199.887703"></polygon>
                    <polygon id="stroke" stroke="url(#linearGradient-1)" stroke-width="3.3" opacity="0.1" points="0 78.6350784 132.162602 0 267.897166 78.6350784 132.162602 153.695835"></polygon>
                    <g id="Staked" transform="translate(27.929176, 89.744200)">
                        <g id="box" transform="translate(105.900131, 77.500000) scale(-1, 1) translate(-105.900131, -77.500000) translate(0.900131, 0.000000)">
                            <polygon id="Clip-2" fill="#2440D6" points="0 92.6476886 0 61.7651257 103.501496 120.722746 103.501496 154.412814"></polygon>
                            <polygon id="Clip-5" fill="#3FCEFF" points="209.80033 61.7651257 209.80033 92.6476886 103.501496 154.412814 103.501496 117.91524"></polygon>
                            <polygon id="Clip-8" fill="url(#linearGradient-1)" points="0 61.7651257 103.501496 0 209.80033 61.7651257 103.501496 120.722746"></polygon>
                            <polygon id="logo" fill="url(#linearGradient-3)" points="151.335972 64.6105707 123.362594 48.046287 110.494841 94.6508819 39.1627283 53.942049 114.13138 42.4312756 87.5566712 26.7092436 101.823094 18.2867264 165.602394 55.907303"></polygon>
                            <polygon id="logo" fill="url(#linearGradient-3)" filter="url(#filter-26)" points="153.855428 64.408228 125.882051 47.8439442 113.014297 94.4485391 41.6821848 53.7397063 116.650836 42.2289328 90.0761277 26.5069008 104.34255 18.0843837 168.121851 55.7049603"></polygon>
                        </g>
                    </g>
                </g>
            </g>
        </g>
    </g>
</svg>