<svg height="257" width="964" xmlns="http://www.w3.org/2000/svg"><g fill="none" fill-rule="evenodd"><path d="m153.326 170.836c0-1.112-.253-2.05-.76-2.814a6.77 6.77 0 0 0 -1.954-1.93 12.722 12.722 0 0 0 -2.627-1.307 73.27 73.27 0 0 0 -2.752-.947 41.445 41.445 0 0 1 -3.897-1.494 16.992 16.992 0 0 1 -3.61-2.141 10.79 10.79 0 0 1 -2.665-3.001c-.69-1.154-1.034-2.511-1.034-4.072 0-1.56.345-2.955 1.034-4.183a10.042 10.042 0 0 1 2.701-3.113 12.172 12.172 0 0 1 3.786-1.93c1.41-.44 2.83-.66 4.258-.66 1.577 0 3.096.262 4.557.785a12.595 12.595 0 0 1 3.885 2.203 10.789 10.789 0 0 1 2.714 3.437c.68 1.345 1.038 2.847 1.071 4.507h-4.731c-.133-1.046-.39-1.996-.772-2.851a7.052 7.052 0 0 0 -1.52-2.204 6.662 6.662 0 0 0 -2.253-1.432c-.872-.34-1.855-.51-2.951-.51-.88 0-1.74.124-2.577.373a6.93 6.93 0 0 0 -2.242 1.12 5.598 5.598 0 0 0 -1.569 1.844c-.39.73-.585 1.577-.585 2.54.017 1.046.282 1.93.797 2.652a6.879 6.879 0 0 0 1.955 1.83c.789.498 1.644.913 2.565 1.245s1.789.623 2.602.872c.897.282 1.801.602 2.715.959.913.356 1.793.767 2.64 1.232.846.465 1.634.988 2.365 1.569.73.581 1.37 1.241 1.917 1.98a9.018 9.018 0 0 1 1.283 2.44c.307.888.46 1.872.46 2.951 0 1.627-.36 3.047-1.083 4.258a9.766 9.766 0 0 1 -2.801 3.026c-1.146.805-2.44 1.411-3.885 1.818a15.92 15.92 0 0 1 -4.333.61 15.32 15.32 0 0 1 -4.731-.747 13.584 13.584 0 0 1 -4.147-2.154 11.283 11.283 0 0 1 -2.975-3.437c-.764-1.353-1.17-2.892-1.22-4.619h4.706c.15 1.129.456 2.13.921 3a7.32 7.32 0 0 0 1.793 2.217 7.523 7.523 0 0 0 2.528 1.37c.954.307 1.996.46 3.125.46.897 0 1.78-.112 2.652-.336a7.165 7.165 0 0 0 2.328-1.046 5.747 5.747 0 0 0 1.669-1.793c.432-.722.647-1.581.647-2.577zm23.533 9.662c-1.892 0-3.631-.324-5.217-.971-1.585-.648-2.943-1.552-4.071-2.714-1.13-1.163-2.01-2.54-2.64-4.134-.631-1.594-.946-3.329-.946-5.205v-1.046c0-2.175.348-4.121 1.046-5.84.697-1.718 1.622-3.17 2.776-4.357a12.114 12.114 0 0 1 3.935-2.727 11.35 11.35 0 0 1 4.52-.946c1.942 0 3.64.336 5.092 1.008 1.453.673 2.66 1.602 3.623 2.79.963 1.186 1.681 2.585 2.154 4.195s.71 3.354.71 5.23v2.067h-19.25c.05 1.228.287 2.382.71 3.461a8.991 8.991 0 0 0 1.743 2.826 8.054 8.054 0 0 0 2.653 1.906c1.029.464 2.166.697 3.411.697 1.644 0 3.105-.332 4.383-.996a9.507 9.507 0 0 0 3.187-2.64l2.814 2.191a10.69 10.69 0 0 1 -1.68 1.955 11.604 11.604 0 0 1 -2.329 1.656c-.88.482-1.876.868-2.988 1.158s-2.324.436-3.636.436zm-.598-24.155c-.93 0-1.81.17-2.64.51s-1.576.839-2.24 1.494c-.664.656-1.225 1.461-1.681 2.416-.457.955-.776 2.054-.959 3.3h14.493v-.35c-.05-.896-.22-1.784-.51-2.664a7.423 7.423 0 0 0 -1.283-2.365 6.417 6.417 0 0 0 -2.129-1.694c-.855-.431-1.872-.647-3.05-.647zm30.78 20.42c.83 0 1.64-.133 2.428-.399a7.166 7.166 0 0 0 2.104-1.108 5.772 5.772 0 0 0 1.482-1.668c.373-.64.568-1.333.585-2.08h4.358a7.144 7.144 0 0 1 -.934 3.424 9.837 9.837 0 0 1 -2.428 2.864 12.328 12.328 0 0 1 -3.486 1.967 11.65 11.65 0 0 1 -4.11.735c-2.041 0-3.826-.365-5.353-1.096-1.528-.73-2.802-1.714-3.823-2.95-1.02-1.237-1.789-2.665-2.303-4.284a16.788 16.788 0 0 1 -.772-5.117v-1.046c0-1.776.257-3.478.772-5.105.514-1.627 1.282-3.059 2.303-4.296s2.295-2.22 3.823-2.95c1.527-.731 3.312-1.096 5.354-1.096 1.594 0 3.059.253 4.395.76 1.336.505 2.49 1.194 3.461 2.066a9.36 9.36 0 0 1 2.279 3.1 9.094 9.094 0 0 1 .822 3.835h-4.358a5.611 5.611 0 0 0 -.536-2.303 6.268 6.268 0 0 0 -1.382-1.905 6.39 6.39 0 0 0 -2.079-1.295 7.07 7.07 0 0 0 -2.602-.473c-1.428 0-2.627.286-3.599.859a6.997 6.997 0 0 0 -2.353 2.241 9.45 9.45 0 0 0 -1.282 3.1 15.746 15.746 0 0 0 -.386 3.462v1.046c0 1.178.128 2.345.386 3.499a9.603 9.603 0 0 0 1.27 3.112 6.882 6.882 0 0 0 2.34 2.242c.972.572 2.18.859 3.624.859zm36.606-.473c-.896 1.328-2.017 2.361-3.362 3.1-1.344.739-2.897 1.108-4.656 1.108-1.411 0-2.69-.22-3.835-.66a7.354 7.354 0 0 1 -2.939-2.054c-.813-.93-1.44-2.113-1.88-3.549s-.66-3.158-.66-5.167v-16.012h4.607v16.062c0 1.46.116 2.673.349 3.635.232.963.58 1.731 1.046 2.304a3.736 3.736 0 0 0 1.705 1.208c.673.232 1.449.348 2.329.348 1.876 0 3.39-.382 4.545-1.145a6.95 6.95 0 0 0 2.577-3.088v-19.324h4.632v26.944h-4.184zm30.78-23.732c.431 0 .88.012 1.344.037.465.025.91.066 1.333.124.423.059.813.13 1.17.212.357.083.652.174.884.274l-.623 4.507c-.896-.199-1.747-.344-2.552-.435a22.44 22.44 0 0 0 -2.528-.137c-2.158 0-3.905.49-5.242 1.469-1.336.98-2.32 2.349-2.95 4.109v17.282h-4.632v-26.944h4.382l.225 4.283c1.095-1.478 2.41-2.644 3.947-3.499 1.535-.855 3.283-1.282 5.242-1.282zm13.67.498h13.772v22.96h8.79v3.984h-22.561v-3.984h9.164v-18.951h-9.164v-4.01zm8.567-7.073c0-.763.229-1.407.685-1.93.457-.522 1.15-.784 2.08-.784.913 0 1.602.262 2.066.784.465.523.698 1.167.698 1.93 0 .747-.233 1.37-.698 1.868-.464.498-1.153.747-2.067.747-.93 0-1.622-.249-2.079-.747-.456-.498-.685-1.12-.685-1.868zm32.224.548v6.525h10.26v3.56h-10.26v14.643c0 1.046.133 1.91.398 2.59.266.68.631 1.224 1.096 1.631s1 .693 1.606.86c.606.165 1.25.248 1.93.248.498 0 1.013-.029 1.544-.087s1.05-.128 1.557-.211c.506-.083.979-.17 1.419-.262.44-.091.801-.17 1.083-.236l.648 3.262a6.445 6.445 0 0 1 -1.395.61c-.548.174-1.145.324-1.793.448-.647.125-1.332.22-2.054.286-.722.067-1.44.1-2.154.1-1.196 0-2.312-.17-3.35-.51a6.943 6.943 0 0 1 -2.702-1.62c-.763-.738-1.365-1.692-1.805-2.863-.44-1.17-.66-2.586-.66-4.246v-14.642h-7.072v-3.561h7.072v-6.525zm29.609 23.906 1.195 3.263 8.218-20.644h5.155l-13.672 31.103a18.716 18.716 0 0 1 -1.207 2.216 11.24 11.24 0 0 1 -1.781 2.167 9.472 9.472 0 0 1 -2.44 1.668c-.93.448-2 .672-3.213.672a7.8 7.8 0 0 1 -.722-.037 13.054 13.054 0 0 1 -1.544-.237 80.2 80.2 0 0 1 -.573-.124l.747-3.76c.117 0 .274.008.474.025l.622.05a17.775 17.775 0 0 0 1.096.05c.63 0 1.208-.175 1.73-.524a6.635 6.635 0 0 0 1.395-1.245c.407-.481.755-.98 1.046-1.494.29-.515.519-.938.685-1.27l1.843-3.586-11.605-25.674h5.155zm57.375 12.676h-4.134l15.14-39.37h4.11zm75.08-19.872h-15.14v12.85h17.656v3.909h-22.263v-36.258h22.038v3.935h-17.431v11.654h15.14zm17.532 16.759v-23.383h-7.421v-3.561h7.42v-1.893c0-1.726.254-3.241.76-4.545.507-1.303 1.22-2.394 2.142-3.274.921-.88 2.03-1.544 3.324-1.992 1.295-.449 2.74-.673 4.333-.673 1.096 0 2.163.092 3.2.274 1.038.183 2.104.415 3.2.697l-.548 3.81a17.896 17.896 0 0 0 -2.378-.61 15.328 15.328 0 0 0 -2.901-.261c-2.158.016-3.781.564-4.868 1.643-1.088 1.08-1.632 2.723-1.632 4.931v1.893h10.385v3.56h-10.385v23.384zm30.63 0v-23.383h-7.421v-3.561h7.42v-1.893c0-1.726.254-3.241.76-4.545.506-1.303 1.22-2.394 2.142-3.274.921-.88 2.03-1.544 3.324-1.992 1.295-.449 2.74-.673 4.333-.673 1.096 0 2.162.092 3.2.274 1.038.183 2.104.415 3.2.697l-.548 3.81a17.896 17.896 0 0 0 -2.378-.61 15.328 15.328 0 0 0 -2.901-.261c-2.158.016-3.781.564-4.869 1.643-1.087 1.08-1.63 2.723-1.63 4.931v1.893h10.384v3.56h-10.385v23.384zm24.479-26.944h13.77v22.96h8.791v3.984h-22.561v-3.984h9.164v-18.951h-9.164v-4.01zm8.566-7.073c0-.763.228-1.407.685-1.93.456-.522 1.15-.784 2.08-.784.912 0 1.601.262 2.066.784.465.523.697 1.167.697 1.93 0 .747-.232 1.37-.697 1.868s-1.154.747-2.067.747c-.93 0-1.623-.249-2.08-.747-.456-.498-.684-1.12-.684-1.868zm32.796 30.78c.83 0 1.64-.133 2.428-.399a7.166 7.166 0 0 0 2.105-1.108 5.772 5.772 0 0 0 1.481-1.668c.374-.64.569-1.333.585-2.08h4.358a7.144 7.144 0 0 1 -.933 3.424 9.837 9.837 0 0 1 -2.428 2.864 12.328 12.328 0 0 1 -3.487 1.967 11.65 11.65 0 0 1 -4.109.735c-2.042 0-3.826-.365-5.354-1.096-1.527-.73-2.801-1.714-3.822-2.95-1.021-1.237-1.789-2.665-2.304-4.284a16.788 16.788 0 0 1 -.772-5.117v-1.046c0-1.776.258-3.478.772-5.105.515-1.627 1.283-3.059 2.304-4.296 1.02-1.237 2.295-2.22 3.822-2.95 1.528-.731 3.312-1.096 5.354-1.096 1.594 0 3.06.253 4.396.76 1.336.505 2.49 1.194 3.461 2.066a9.36 9.36 0 0 1 2.279 3.1 9.094 9.094 0 0 1 .821 3.835h-4.358a5.611 5.611 0 0 0 -.535-2.303 6.268 6.268 0 0 0 -1.382-1.905 6.39 6.39 0 0 0 -2.08-1.295 7.07 7.07 0 0 0 -2.602-.473c-1.427 0-2.627.286-3.598.859a6.997 6.997 0 0 0 -2.353 2.241 9.45 9.45 0 0 0 -1.283 3.1 15.746 15.746 0 0 0 -.386 3.462v1.046c0 1.178.129 2.345.386 3.499a9.603 9.603 0 0 0 1.27 3.112 6.882 6.882 0 0 0 2.341 2.242c.971.572 2.179.859 3.623.859zm19.847-23.707h13.771v22.96h8.791v3.984h-22.562v-3.984h9.165v-18.951h-9.165v-4.01zm8.567-7.073c0-.763.228-1.407.685-1.93.456-.522 1.15-.784 2.08-.784.912 0 1.601.262 2.066.784.465.523.697 1.167.697 1.93 0 .747-.232 1.37-.697 1.868s-1.154.747-2.067.747c-.93 0-1.623-.249-2.08-.747-.456-.498-.684-1.12-.684-1.868zm33.22 34.515c-1.893 0-3.632-.324-5.217-.971-1.586-.648-2.943-1.552-4.072-2.714-1.129-1.163-2.009-2.54-2.64-4.134-.63-1.594-.946-3.329-.946-5.205v-1.046c0-2.175.349-4.121 1.046-5.84.697-1.718 1.623-3.17 2.777-4.357a12.114 12.114 0 0 1 3.934-2.727 11.35 11.35 0 0 1 4.52-.946c1.942 0 3.64.336 5.092 1.008 1.453.673 2.66 1.602 3.624 2.79.963 1.186 1.68 2.585 2.154 4.195.473 1.61.71 3.354.71 5.23v2.067h-19.25c.05 1.228.286 2.382.71 3.461a8.991 8.991 0 0 0 1.743 2.826 8.054 8.054 0 0 0 2.652 1.906c1.03.464 2.167.697 3.412.697 1.643 0 3.104-.332 4.382-.996a9.507 9.507 0 0 0 3.188-2.64l2.814 2.191a10.69 10.69 0 0 1 -1.681 1.955 11.604 11.604 0 0 1 -2.328 1.656c-.88.482-1.876.868-2.989 1.158-1.112.29-2.324.436-3.635.436zm-.598-24.155c-.93 0-1.81.17-2.64.51s-1.577.839-2.24 1.494c-.665.656-1.225 1.461-1.682 2.416-.456.955-.776 2.054-.959 3.3h14.494v-.35c-.05-.896-.22-1.784-.51-2.664a7.423 7.423 0 0 0 -1.283-2.365 6.417 6.417 0 0 0 -2.13-1.694c-.854-.431-1.871-.647-3.05-.647zm23.433-3.287.324 3.984c.98-1.394 2.183-2.486 3.61-3.275 1.428-.788 3.022-1.19 4.782-1.207 1.411 0 2.693.199 3.847.597a7.354 7.354 0 0 1 2.951 1.868c.814.847 1.44 1.922 1.88 3.225s.66 2.851.66 4.644v17.108h-4.607v-17.008c0-1.196-.132-2.208-.398-3.038s-.66-1.503-1.183-2.017a4.621 4.621 0 0 0 -1.917-1.121c-.756-.233-1.623-.349-2.603-.349-1.544 0-2.9.386-4.071 1.158a8.539 8.539 0 0 0 -2.802 3.05v19.325h-4.607v-26.944zm37.951 23.707c.83 0 1.64-.133 2.428-.399a7.166 7.166 0 0 0 2.104-1.108 5.772 5.772 0 0 0 1.482-1.668c.374-.64.569-1.333.585-2.08h4.358a7.144 7.144 0 0 1 -.934 3.424 9.837 9.837 0 0 1 -2.428 2.864 12.328 12.328 0 0 1 -3.486 1.967 11.65 11.65 0 0 1 -4.109.735c-2.042 0-3.826-.365-5.354-1.096-1.527-.73-2.801-1.714-3.822-2.95-1.021-1.237-1.79-2.665-2.304-4.284a16.788 16.788 0 0 1 -.772-5.117v-1.046c0-1.776.258-3.478.772-5.105.515-1.627 1.283-3.059 2.304-4.296 1.02-1.237 2.295-2.22 3.822-2.95 1.528-.731 3.312-1.096 5.354-1.096 1.594 0 3.06.253 4.396.76 1.336.505 2.49 1.194 3.46 2.066a9.36 9.36 0 0 1 2.28 3.1 9.094 9.094 0 0 1 .821 3.835h-4.358a5.611 5.611 0 0 0 -.535-2.303 6.268 6.268 0 0 0 -1.382-1.905 6.39 6.39 0 0 0 -2.08-1.295 7.07 7.07 0 0 0 -2.602-.473c-1.427 0-2.627.286-3.598.859a6.997 6.997 0 0 0 -2.353 2.241 9.45 9.45 0 0 0 -1.283 3.1 15.746 15.746 0 0 0 -.386 3.462v1.046c0 1.178.129 2.345.386 3.499a9.603 9.603 0 0 0 1.27 3.112 6.882 6.882 0 0 0 2.341 2.242c.971.572 2.179.859 3.623.859zm31.029 3.735c-1.893 0-3.632-.324-5.217-.971-1.586-.648-2.943-1.552-4.072-2.714-1.129-1.163-2.009-2.54-2.64-4.134-.63-1.594-.946-3.329-.946-5.205v-1.046c0-2.175.349-4.121 1.046-5.84.697-1.718 1.623-3.17 2.777-4.357a12.114 12.114 0 0 1 3.934-2.727 11.35 11.35 0 0 1 4.52-.946c1.942 0 3.64.336 5.092 1.008 1.453.673 2.66 1.602 3.624 2.79.963 1.186 1.68 2.585 2.154 4.195.473 1.61.71 3.354.71 5.23v2.067h-19.25c.05 1.228.286 2.382.71 3.461a8.991 8.991 0 0 0 1.743 2.826 8.054 8.054 0 0 0 2.652 1.906c1.03.464 2.166.697 3.412.697 1.643 0 3.104-.332 4.382-.996a9.507 9.507 0 0 0 3.188-2.64l2.814 2.191a10.69 10.69 0 0 1 -1.681 1.955 11.604 11.604 0 0 1 -2.328 1.656c-.88.482-1.876.868-2.989 1.158-1.112.29-2.324.436-3.635.436zm-.598-24.155c-.93 0-1.81.17-2.64.51s-1.577.839-2.241 1.494c-.664.656-1.224 1.461-1.68 2.416-.457.955-.777 2.054-.96 3.3h14.494v-.35c-.05-.896-.22-1.784-.51-2.664a7.423 7.423 0 0 0 -1.283-2.365 6.417 6.417 0 0 0 -2.13-1.694c-.855-.431-1.871-.647-3.05-.647zm55.98 26.77h-4.133l15.14-39.37h4.11zm-747.755 51.98c-.216 1.677-.647 3.216-1.295 4.62-.647 1.402-1.49 2.606-2.527 3.61-1.038 1.004-2.266 1.785-3.686 2.34-1.42.557-3 .835-4.744.835-1.494 0-2.851-.212-4.071-.635a11.206 11.206 0 0 1 -3.262-1.756 11.653 11.653 0 0 1 -2.466-2.64 16.032 16.032 0 0 1 -1.718-3.311 19.91 19.91 0 0 1 -1.021-3.76 25.485 25.485 0 0 1 -.361-3.985v-5.055c.016-1.345.137-2.673.361-3.984a19.91 19.91 0 0 1 1.021-3.76 16.345 16.345 0 0 1 1.718-3.325 11.54 11.54 0 0 1 2.466-2.652 11.244 11.244 0 0 1 3.25-1.756c1.211-.423 2.573-.635 4.083-.635 1.81 0 3.429.278 4.856.834 1.428.557 2.656 1.345 3.686 2.366s1.855 2.245 2.478 3.673c.622 1.428 1.033 3.005 1.232 4.732h-4.607a13.571 13.571 0 0 0 -.772-3.063 8.438 8.438 0 0 0 -1.469-2.49 6.503 6.503 0 0 0 -2.254-1.681c-.888-.407-1.938-.61-3.15-.61-1.095 0-2.062.178-2.9.535a6.682 6.682 0 0 0 -2.167 1.457 8.324 8.324 0 0 0 -1.52 2.141 14.027 14.027 0 0 0 -.983 2.59 18.55 18.55 0 0 0 -.535 2.802c-.108.954-.162 1.88-.162 2.776v5.105c0 .897.054 1.822.162 2.777.107.954.286 1.892.535 2.814.249.921.573 1.789.971 2.602a8.139 8.139 0 0 0 1.52 2.154 6.762 6.762 0 0 0 2.166 1.47c.83.356 1.801.535 2.913.535 1.212 0 2.262-.191 3.15-.573a6.316 6.316 0 0 0 2.254-1.606 7.974 7.974 0 0 0 1.47-2.44c.365-.939.622-1.956.771-3.051zm5.827-2.814c0-1.943.283-3.748.847-5.416.565-1.669 1.374-3.117 2.428-4.346a11.307 11.307 0 0 1 3.847-2.901c1.511-.706 3.213-1.058 5.105-1.058 1.91 0 3.624.352 5.143 1.058a11.275 11.275 0 0 1 3.86 2.901c1.054 1.229 1.863 2.677 2.428 4.346.564 1.668.846 3.473.846 5.416v.548c0 1.942-.282 3.743-.846 5.403-.565 1.66-1.374 3.105-2.428 4.333a11.17 11.17 0 0 1 -3.848 2.89c-1.51.696-3.212 1.045-5.105 1.045-1.909 0-3.623-.349-5.142-1.046a11.139 11.139 0 0 1 -3.86-2.889c-1.054-1.228-1.863-2.672-2.428-4.333-.564-1.66-.847-3.46-.847-5.403zm4.607.548c0 1.328.158 2.594.473 3.797.316 1.204.793 2.262 1.432 3.175a7.068 7.068 0 0 0 2.403 2.167c.963.531 2.084.797 3.362.797 1.262 0 2.37-.266 3.325-.797a7.105 7.105 0 0 0 2.39-2.167c.64-.913 1.117-1.971 1.432-3.175.316-1.203.473-2.47.473-3.797v-.548c0-1.312-.161-2.57-.485-3.773-.324-1.204-.805-2.262-1.445-3.175a7.23 7.23 0 0 0 -2.39-2.179c-.955-.54-2.071-.81-3.35-.81-1.278 0-2.39.27-3.336.81a7.272 7.272 0 0 0 -2.379 2.18c-.639.912-1.116 1.97-1.432 3.174a14.822 14.822 0 0 0 -.473 3.773zm31.427-13.771.324 3.984c.98-1.394 2.183-2.486 3.61-3.275 1.428-.788 3.022-1.19 4.782-1.207 1.411 0 2.694.199 3.847.597a7.354 7.354 0 0 1 2.951 1.868c.814.847 1.44 1.922 1.88 3.225s.66 2.851.66 4.644v17.108h-4.607v-17.008c0-1.196-.132-2.208-.398-3.038s-.66-1.503-1.183-2.017a4.621 4.621 0 0 0 -1.917-1.121c-.756-.233-1.623-.349-2.603-.349-1.544 0-2.9.386-4.071 1.158a8.539 8.539 0 0 0 -2.802 3.05v19.325h-4.607v-26.944zm33.344 26.944v-23.383h-7.42v-3.561h7.42v-1.893c0-1.726.253-3.241.76-4.545.506-1.303 1.22-2.394 2.141-3.274.922-.88 2.03-1.544 3.325-1.992 1.295-.449 2.74-.673 4.333-.673 1.096 0 2.162.092 3.2.274 1.037.183 2.104.415 3.2.697l-.548 3.81a17.896 17.896 0 0 0 -2.378-.61 15.328 15.328 0 0 0 -2.901-.261c-2.159.016-3.781.564-4.869 1.643-1.087 1.08-1.63 2.723-1.63 4.931v1.893h10.383v3.56h-10.384v23.384zm24.48-26.944h13.77v22.96h8.79v3.984h-22.56v-3.984h9.163v-18.951h-9.164v-4.01zm8.566-7.073c0-.763.228-1.407.685-1.93.456-.522 1.15-.784 2.079-.784.913 0 1.602.262 2.067.784.465.523.697 1.167.697 1.93 0 .747-.232 1.37-.697 1.868s-1.154.747-2.067.747c-.93 0-1.623-.249-2.08-.747-.456-.498-.684-1.12-.684-1.868zm20.445 20.32c0-2.008.253-3.855.76-5.54.505-1.685 1.228-3.134 2.166-4.346a10.061 10.061 0 0 1 3.399-2.838c1.328-.681 2.814-1.021 4.457-1.021 1.61 0 3.018.27 4.221.809a8.816 8.816 0 0 1 3.125 2.353v-13.97h4.607v38.25h-4.233l-.2-2.839a8.811 8.811 0 0 1 -3.212 2.49c-1.245.565-2.697.847-4.358.847-1.626 0-3.1-.349-4.42-1.046a10.128 10.128 0 0 1 -3.374-2.889c-.93-1.228-1.652-2.677-2.166-4.345-.515-1.668-.772-3.466-.772-5.391v-.523zm4.606.524c0 1.311.142 2.556.424 3.735s.718 2.216 1.307 3.113a6.58 6.58 0 0 0 2.254 2.129c.913.523 2.009.784 3.287.784.78 0 1.486-.09 2.117-.274a6.237 6.237 0 0 0 3.088-2.004c.398-.473.747-1 1.045-1.581v-12.501a7.796 7.796 0 0 0 -2.415-2.702c-1.013-.706-2.274-1.059-3.785-1.059-1.295 0-2.403.266-3.325.797a6.617 6.617 0 0 0 -2.266 2.154c-.59.905-1.025 1.95-1.307 3.138a16.155 16.155 0 0 0 -.424 3.748zm38.773 13.671c-1.892 0-3.631-.324-5.217-.971-1.585-.648-2.942-1.552-4.071-2.714-1.129-1.163-2.009-2.54-2.64-4.134-.63-1.594-.946-3.329-.946-5.205v-1.046c0-2.175.349-4.121 1.046-5.84.697-1.718 1.623-3.17 2.776-4.357a12.114 12.114 0 0 1 3.935-2.727 11.35 11.35 0 0 1 4.52-.946c1.942 0 3.64.336 5.092 1.008 1.453.673 2.66 1.602 3.624 2.79.963 1.186 1.68 2.585 2.154 4.195.473 1.61.71 3.354.71 5.23v2.067h-19.25c.05 1.228.286 2.382.71 3.461a8.991 8.991 0 0 0 1.743 2.826 8.054 8.054 0 0 0 2.652 1.906c1.03.464 2.166.697 3.411.697 1.644 0 3.105-.332 4.383-.996a9.507 9.507 0 0 0 3.188-2.64l2.814 2.191a10.69 10.69 0 0 1 -1.681 1.955 11.604 11.604 0 0 1 -2.329 1.656c-.88.482-1.876.868-2.988 1.158s-2.324.436-3.636.436zm-.597-24.155c-.93 0-1.81.17-2.64.51s-1.577.839-2.241 1.494c-.664.656-1.224 1.461-1.681 2.416s-.776 2.054-.959 3.3h14.493v-.35c-.05-.896-.22-1.784-.51-2.664a7.423 7.423 0 0 0 -1.283-2.365 6.417 6.417 0 0 0 -2.129-1.694c-.855-.431-1.871-.647-3.05-.647zm23.433-3.287.324 3.984c.98-1.394 2.183-2.486 3.61-3.275 1.428-.788 3.022-1.19 4.782-1.207 1.41 0 2.693.199 3.847.597a7.354 7.354 0 0 1 2.951 1.868c.814.847 1.44 1.922 1.88 3.225s.66 2.851.66 4.644v17.108h-4.607v-17.008c0-1.196-.133-2.208-.398-3.038-.266-.83-.66-1.503-1.183-2.017a4.621 4.621 0 0 0 -1.918-1.121c-.755-.233-1.622-.349-2.602-.349-1.544 0-2.901.386-4.071 1.158a8.539 8.539 0 0 0 -2.802 3.05v19.325h-4.607v-26.944zm37.378-6.525v6.525h10.26v3.56h-10.26v14.643c0 1.046.133 1.91.399 2.59.265.68.63 1.224 1.095 1.631s1 .693 1.607.86c.606.165 1.249.248 1.93.248.498 0 1.012-.029 1.544-.087.53-.058 1.05-.128 1.556-.211s.98-.17 1.42-.262c.44-.091.8-.17 1.083-.236l.647 3.262a6.445 6.445 0 0 1 -1.394.61c-.548.174-1.146.324-1.793.448-.648.125-1.333.22-2.055.286-.722.067-1.44.1-2.154.1-1.195 0-2.312-.17-3.35-.51a6.943 6.943 0 0 1 -2.701-1.62c-.764-.738-1.366-1.692-1.806-2.863-.44-1.17-.66-2.586-.66-4.246v-14.642h-7.072v-3.561h7.072v-6.525zm20.42 6.525h13.771v22.96h8.79v3.984h-22.56v-3.984h9.163v-18.951h-9.164v-4.01zm8.567-7.073c0-.763.228-1.407.684-1.93.457-.522 1.15-.784 2.08-.784.913 0 1.602.262 2.067.784.465.523.697 1.167.697 1.93 0 .747-.232 1.37-.697 1.868s-1.154.747-2.067.747c-.93 0-1.623-.249-2.08-.747-.456-.498-.684-1.12-.684-1.868zm39.022 34.017c-.183-.349-.328-.784-.436-1.307a14.277 14.277 0 0 1 -.237-1.631c-.465.464-.983.904-1.556 1.32-.573.414-1.204.78-1.893 1.095s-1.423.565-2.204.747c-.78.183-1.61.274-2.49.274-1.428 0-2.718-.207-3.872-.623-1.154-.415-2.133-.975-2.939-1.68a7.329 7.329 0 0 1 -1.867-2.516 7.544 7.544 0 0 1 -.66-3.15c0-1.477.294-2.772.884-3.884a7.702 7.702 0 0 1 2.503-2.777c1.079-.739 2.378-1.29 3.897-1.656 1.519-.365 3.216-.548 5.092-.548h5.03v-2.117c0-.813-.149-1.544-.448-2.191a4.685 4.685 0 0 0 -1.27-1.656c-.548-.457-1.216-.81-2.004-1.058-.789-.25-1.673-.374-2.652-.374-.914 0-1.731.116-2.453.349-.723.232-1.333.54-1.83.921a4.096 4.096 0 0 0 -1.159 1.357 3.471 3.471 0 0 0 -.41 1.631h-4.632c.016-.98.27-1.942.76-2.888.489-.947 1.194-1.797 2.116-2.553.921-.755 2.042-1.365 3.362-1.83s2.818-.697 4.495-.697c1.527 0 2.946.186 4.258.56 1.311.373 2.444.938 3.399 1.693a8.01 8.01 0 0 1 2.254 2.827c.548 1.129.821 2.448.821 3.96v12.525c0 .897.083 1.847.25 2.851.166 1.005.398 1.88.697 2.628v.398zm-8.143-3.511c.896 0 1.734-.116 2.515-.349.78-.232 1.49-.54 2.129-.921a7.731 7.731 0 0 0 1.656-1.308c.465-.49.83-1 1.096-1.531v-5.454h-4.284c-2.69 0-4.78.399-6.275 1.196-1.494.796-2.241 2.05-2.241 3.76 0 .664.112 1.278.336 1.843a3.87 3.87 0 0 0 1.008 1.456c.449.407 1.013.727 1.694.96.68.232 1.47.348 2.366.348zm21.764-34.739h13.771v34.266h8.79v3.984h-22.56v-3.984h9.163v-30.257h-9.164zm30.605 11.306h13.771v22.96h8.79v3.984h-22.56v-3.984h9.163v-18.951h-9.164v-4.01zm8.567-7.073c0-.763.228-1.407.684-1.93.457-.522 1.15-.784 2.08-.784.913 0 1.602.262 2.067.784.464.523.697 1.167.697 1.93 0 .747-.233 1.37-.697 1.868-.465.498-1.154.747-2.067.747-.93 0-1.623-.249-2.08-.747-.456-.498-.684-1.12-.684-1.868zm32.223.548v6.525h10.26v3.56h-10.26v14.643c0 1.046.133 1.91.399 2.59.265.68.63 1.224 1.095 1.631s1 .693 1.607.86c.606.165 1.249.248 1.93.248.498 0 1.012-.029 1.543-.087.532-.058 1.05-.128 1.557-.211.506-.083.98-.17 1.42-.262.44-.091.8-.17 1.083-.236l.647 3.262a6.445 6.445 0 0 1 -1.395.61c-.547.174-1.145.324-1.793.448-.647.125-1.332.22-2.054.286-.722.067-1.44.1-2.154.1-1.195 0-2.312-.17-3.35-.51a6.943 6.943 0 0 1 -2.701-1.62c-.764-.738-1.366-1.692-1.806-2.863-.44-1.17-.66-2.586-.66-4.246v-14.642h-7.072v-3.561h7.072v-6.525zm29.61 23.906 1.194 3.263 8.218-20.644h5.155l-13.671 31.103a18.716 18.716 0 0 1 -1.208 2.216 11.24 11.24 0 0 1 -1.78 2.167 9.472 9.472 0 0 1 -2.441 1.668c-.93.448-2 .672-3.213.672a7.8 7.8 0 0 1 -.722-.037 13.053 13.053 0 0 1 -1.544-.237 80.2 80.2 0 0 1 -.572-.124l.747-3.76c.116 0 .274.008.473.025l.622.05a17.775 17.775 0 0 0 1.096.05c.63 0 1.208-.175 1.73-.524a6.635 6.635 0 0 0 1.395-1.245c.407-.481.756-.98 1.046-1.494.29-.515.519-.938.685-1.27l1.843-3.586-11.605-25.674h5.155l7.396 17.381zm57.374 12.676h-4.134l15.14-39.37h4.11zm74.11-12.277c0-1.112-.254-2.05-.76-2.814a6.77 6.77 0 0 0 -1.955-1.93 12.722 12.722 0 0 0 -2.627-1.307 73.272 73.272 0 0 0 -2.752-.947 41.445 41.445 0 0 1 -3.897-1.494 16.992 16.992 0 0 1 -3.61-2.141 10.79 10.79 0 0 1 -2.665-3.001c-.69-1.154-1.034-2.511-1.034-4.072 0-1.56.345-2.955 1.034-4.183a10.042 10.042 0 0 1 2.702-3.113 12.172 12.172 0 0 1 3.785-1.93c1.41-.44 2.83-.66 4.258-.66 1.577 0 3.096.262 4.557.785a12.595 12.595 0 0 1 3.885 2.203 10.789 10.789 0 0 1 2.714 3.437c.68 1.345 1.038 2.847 1.071 4.507h-4.731c-.133-1.046-.39-1.996-.772-2.851a7.052 7.052 0 0 0 -1.52-2.204 6.662 6.662 0 0 0 -2.253-1.432c-.872-.34-1.855-.51-2.951-.51-.88 0-1.739.124-2.577.373a6.93 6.93 0 0 0 -2.242 1.12 5.598 5.598 0 0 0 -1.568 1.844c-.39.73-.586 1.577-.586 2.54.017 1.046.283 1.93.797 2.652a6.879 6.879 0 0 0 1.955 1.83c.789.498 1.644.913 2.565 1.245s1.789.623 2.602.872c.897.282 1.802.602 2.715.959.913.356 1.793.767 2.64 1.232.846.465 1.635.988 2.365 1.569s1.37 1.241 1.917 1.98a9.018 9.018 0 0 1 1.283 2.44c.307.888.46 1.872.46 2.951 0 1.627-.36 3.047-1.083 4.258a9.766 9.766 0 0 1 -2.801 3.026c-1.146.805-2.44 1.411-3.885 1.818a15.92 15.92 0 0 1 -4.333.61 15.32 15.32 0 0 1 -4.731-.747 13.584 13.584 0 0 1 -4.147-2.154 11.283 11.283 0 0 1 -2.975-3.437c-.764-1.353-1.17-2.892-1.22-4.619h4.706c.15 1.129.456 2.13.921 3a7.32 7.32 0 0 0 1.793 2.217 7.523 7.523 0 0 0 2.528 1.37c.954.307 1.996.46 3.125.46.897 0 1.78-.112 2.652-.336a7.165 7.165 0 0 0 2.329-1.046 5.747 5.747 0 0 0 1.668-1.793c.432-.722.647-1.581.647-2.577zm23.109 5.927c.83 0 1.64-.133 2.428-.399a7.166 7.166 0 0 0 2.104-1.108 5.772 5.772 0 0 0 1.482-1.668c.373-.64.568-1.333.585-2.08h4.358a7.144 7.144 0 0 1 -.934 3.424 9.837 9.837 0 0 1 -2.428 2.864 12.328 12.328 0 0 1 -3.486 1.967 11.65 11.65 0 0 1 -4.11.735c-2.041 0-3.826-.365-5.353-1.096-1.528-.73-2.802-1.714-3.823-2.95-1.02-1.237-1.788-2.665-2.303-4.284a16.788 16.788 0 0 1 -.772-5.117v-1.046c0-1.776.257-3.478.772-5.105s1.282-3.059 2.303-4.296 2.295-2.22 3.823-2.95c1.527-.731 3.312-1.096 5.354-1.096 1.594 0 3.059.253 4.395.76 1.337.505 2.49 1.194 3.462 2.066a9.36 9.36 0 0 1 2.278 3.1 9.094 9.094 0 0 1 .822 3.835h-4.358a5.611 5.611 0 0 0 -.535-2.303 6.268 6.268 0 0 0 -1.383-1.905 6.39 6.39 0 0 0 -2.079-1.295 7.07 7.07 0 0 0 -2.602-.473c-1.428 0-2.627.286-3.599.859a6.997 6.997 0 0 0 -2.353 2.241 9.45 9.45 0 0 0 -1.282 3.1 15.746 15.746 0 0 0 -.386 3.462v1.046c0 1.178.128 2.345.386 3.499a9.603 9.603 0 0 0 1.27 3.112 6.882 6.882 0 0 0 2.34 2.242c.972.572 2.18.859 3.624.859zm36.83 3.237c-.182-.349-.327-.784-.435-1.307a14.277 14.277 0 0 1 -.237-1.631c-.465.464-.984.904-1.556 1.32-.573.414-1.204.78-1.893 1.095s-1.423.565-2.204.747c-.78.183-1.61.274-2.49.274-1.428 0-2.719-.207-3.872-.623-1.154-.415-2.134-.975-2.939-1.68a7.329 7.329 0 0 1 -1.867-2.516 7.544 7.544 0 0 1 -.66-3.15c0-1.477.294-2.772.884-3.884a7.702 7.702 0 0 1 2.502-2.777c1.08-.739 2.378-1.29 3.898-1.656 1.519-.365 3.216-.548 5.092-.548h5.03v-2.117c0-.813-.15-1.544-.448-2.191a4.685 4.685 0 0 0 -1.27-1.656c-.548-.457-1.216-.81-2.005-1.058-.788-.25-1.672-.374-2.652-.374-.913 0-1.73.116-2.453.349-.722.232-1.332.54-1.83.921a4.096 4.096 0 0 0 -1.158 1.357 3.471 3.471 0 0 0 -.41 1.631h-4.633c.017-.98.27-1.942.76-2.888.49-.947 1.195-1.797 2.117-2.553.921-.755 2.042-1.365 3.361-1.83 1.32-.465 2.819-.697 4.495-.697 1.528 0 2.947.186 4.259.56 1.311.373 2.444.938 3.399 1.693a8.01 8.01 0 0 1 2.254 2.827c.547 1.129.821 2.448.821 3.96v12.525c0 .897.083 1.847.25 2.851.165 1.005.398 1.88.697 2.628v.398zm-8.143-3.511c.897 0 1.735-.116 2.515-.349.78-.232 1.49-.54 2.13-.921a7.731 7.731 0 0 0 1.656-1.308c.464-.49.83-1 1.095-1.531v-5.454h-4.283c-2.69 0-4.781.399-6.275 1.196-1.494.796-2.241 2.05-2.241 3.76 0 .664.112 1.278.336 1.843a3.87 3.87 0 0 0 1.008 1.456c.449.407 1.013.727 1.694.96.68.232 1.469.348 2.365.348zm21.765-34.739h13.771v34.266h8.79v3.984h-22.561v-3.984h9.164v-30.257h-9.164zm47.588 38.25c-.182-.349-.328-.784-.435-1.307a14.277 14.277 0 0 1 -.237-1.631c-.465.464-.984.904-1.556 1.32-.573.414-1.204.78-1.893 1.095s-1.424.565-2.204.747c-.78.183-1.61.274-2.49.274-1.428 0-2.719-.207-3.872-.623-1.154-.415-2.134-.975-2.939-1.68a7.329 7.329 0 0 1 -1.868-2.516 7.544 7.544 0 0 1 -.66-3.15c0-1.477.295-2.772.885-3.884a7.702 7.702 0 0 1 2.502-2.777c1.08-.739 2.378-1.29 3.898-1.656 1.519-.365 3.216-.548 5.092-.548h5.03v-2.117c0-.813-.15-1.544-.448-2.191a4.685 4.685 0 0 0 -1.27-1.656c-.548-.457-1.216-.81-2.005-1.058-.788-.25-1.672-.374-2.652-.374-.913 0-1.73.116-2.453.349-.722.232-1.332.54-1.83.921a4.096 4.096 0 0 0 -1.158 1.357 3.471 3.471 0 0 0 -.41 1.631h-4.633c.017-.98.27-1.942.76-2.888.49-.947 1.195-1.797 2.117-2.553.921-.755 2.042-1.365 3.361-1.83 1.32-.465 2.819-.697 4.495-.697 1.528 0 2.947.186 4.259.56 1.311.373 2.444.938 3.399 1.693a8.01 8.01 0 0 1 2.253 2.827c.548 1.129.822 2.448.822 3.96v12.525c0 .897.083 1.847.25 2.851.165 1.005.398 1.88.697 2.628v.398zm-8.143-3.511c.897 0 1.735-.116 2.515-.349.78-.232 1.49-.54 2.13-.921a7.731 7.731 0 0 0 1.656-1.308c.464-.49.83-1 1.095-1.531v-5.454h-4.283c-2.69 0-4.781.399-6.275 1.196-1.494.796-2.241 2.05-2.241 3.76 0 .664.112 1.278.336 1.843a3.87 3.87 0 0 0 1.008 1.456c.448.407 1.013.727 1.694.96.68.232 1.469.348 2.365.348zm43.878-9.662c0 1.925-.232 3.723-.697 5.391s-1.146 3.117-2.042 4.345a9.654 9.654 0 0 1 -3.324 2.89c-1.32.696-2.835 1.045-4.545 1.045-1.727 0-3.225-.307-4.495-.921a9.14 9.14 0 0 1 -3.25-2.64l-.224 3.063h-4.233v-38.25h4.607v14.194a8.837 8.837 0 0 1 3.187-2.515c1.245-.58 2.698-.871 4.358-.871 1.727 0 3.254.34 4.582 1.02a9.478 9.478 0 0 1 3.337 2.84c.896 1.211 1.577 2.66 2.042 4.345s.697 3.532.697 5.54zm-4.607-.523c0-1.312-.128-2.561-.386-3.748-.257-1.187-.668-2.233-1.232-3.138a6.328 6.328 0 0 0 -2.217-2.154c-.913-.531-2.033-.797-3.361-.797a7.32 7.32 0 0 0 -2.192.312 6.241 6.241 0 0 0 -1.78.871 7.002 7.002 0 0 0 -1.395 1.32 8.278 8.278 0 0 0 -1.033 1.656v11.779c.298.597.651 1.15 1.058 1.656s.876.95 1.407 1.332a6.232 6.232 0 0 0 1.793.884 7.32 7.32 0 0 0 2.191.311c1.262 0 2.345-.261 3.25-.784a6.398 6.398 0 0 0 2.216-2.13c.573-.896.996-1.933 1.27-3.112a16.46 16.46 0 0 0 .411-3.735zm13.099-13.248h13.77v22.96h8.791v3.984h-22.561v-3.984h9.164v-18.951h-9.164v-4.01zm8.566-7.073c0-.763.229-1.407.685-1.93.457-.522 1.15-.784 2.08-.784.913 0 1.602.262 2.066.784.465.523.698 1.167.698 1.93 0 .747-.233 1.37-.698 1.868-.464.498-1.153.747-2.066.747-.93 0-1.623-.249-2.08-.747-.456-.498-.685-1.12-.685-1.868zm22.039-4.233h13.77v34.266h8.791v3.984h-22.561v-3.984h9.164v-30.257h-9.164zm30.605 11.306h13.77v22.96h8.791v3.984h-22.561v-3.984h9.164v-18.951h-9.164v-4.01zm8.566-7.073c0-.763.229-1.407.685-1.93.457-.522 1.15-.784 2.08-.784.913 0 1.602.262 2.066.784.465.523.698 1.167.698 1.93 0 .747-.233 1.37-.698 1.868-.464.498-1.153.747-2.067.747-.93 0-1.622-.249-2.079-.747-.456-.498-.685-1.12-.685-1.868zm32.224.548v6.525h10.26v3.56h-10.26v14.643c0 1.046.133 1.91.398 2.59.266.68.631 1.224 1.096 1.631s1 .693 1.606.86c.606.165 1.25.248 1.93.248.498 0 1.013-.029 1.544-.087s1.05-.128 1.557-.211c.506-.083.979-.17 1.419-.262.44-.091.801-.17 1.083-.236l.648 3.262a6.445 6.445 0 0 1 -1.395.61c-.548.174-1.145.324-1.793.448-.647.125-1.332.22-2.054.286-.722.067-1.44.1-2.154.1-1.196 0-2.312-.17-3.35-.51a6.943 6.943 0 0 1 -2.702-1.62c-.763-.738-1.365-1.692-1.805-2.863-.44-1.17-.66-2.586-.66-4.246v-14.642h-7.072v-3.561h7.072v-6.525zm29.609 23.906 1.195 3.263 8.218-20.644h5.155l-13.672 31.103a18.716 18.716 0 0 1 -1.207 2.216 11.24 11.24 0 0 1 -1.781 2.167 9.472 9.472 0 0 1 -2.44 1.668c-.93.448-2 .672-3.213.672a7.8 7.8 0 0 1 -.722-.037 13.054 13.054 0 0 1 -1.544-.237 80.2 80.2 0 0 1 -.573-.124l.747-3.76c.117 0 .274.008.474.025l.622.05a17.775 17.775 0 0 0 1.096.05c.63 0 1.208-.175 1.73-.524a6.635 6.635 0 0 0 1.395-1.245c.407-.481.755-.98 1.046-1.494.29-.515.519-.938.685-1.27l1.843-3.586-11.605-25.674h5.155z" fill="#fff"/><path d="m10.908 39.723a6.178 6.178 0 0 1 -.508 1.811 4.672 4.672 0 0 1 -.99 1.416c-.408.394-.89.7-1.446.918a5.061 5.061 0 0 1 -1.86.327 4.847 4.847 0 0 1 -1.597-.249 4.395 4.395 0 0 1 -1.28-.688 4.57 4.57 0 0 1 -.966-1.035 6.287 6.287 0 0 1 -.674-1.3 7.808 7.808 0 0 1 -.4-1.474 9.994 9.994 0 0 1 -.142-1.562v-1.983a9.994 9.994 0 0 1 .142-1.562 7.808 7.808 0 0 1 .4-1.475 6.41 6.41 0 0 1 .674-1.304 4.41 4.41 0 0 1 2.241-1.729 4.836 4.836 0 0 1 1.602-.248c.71 0 1.344.109 1.904.327s1.041.527 1.445.928c.404.4.728.88.972 1.44s.405 1.179.483 1.856h-1.806c-.059-.43-.16-.83-.303-1.201a3.31 3.31 0 0 0 -.576-.977 2.55 2.55 0 0 0 -.884-.66c-.348-.159-.76-.238-1.235-.238-.43 0-.81.07-1.138.21a2.62 2.62 0 0 0 -.85.57c-.237.242-.436.522-.595.84a5.5 5.5 0 0 0 -.386 1.016 7.275 7.275 0 0 0 -.21 1.099 9.696 9.696 0 0 0 -.064 1.089v2.002c0 .351.021.714.064 1.089.042.374.112.742.21 1.103.097.361.224.702.38 1.02.157.32.355.601.596.845s.524.437.85.577c.325.14.706.21 1.143.21.475 0 .887-.075 1.235-.225s.643-.36.884-.63c.24-.27.433-.59.576-.957.143-.368.244-.767.303-1.196zm2.285-1.104c0-.762.111-1.47.332-2.124a5.089 5.089 0 0 1 .953-1.704 4.434 4.434 0 0 1 1.508-1.138c.593-.276 1.26-.415 2.002-.415.749 0 1.421.139 2.017.415.596.277 1.1.656 1.514 1.138.413.482.73 1.05.952 1.704.221.654.332 1.362.332 2.124v.215c0 .762-.11 1.468-.332 2.12a5.097 5.097 0 0 1 -.952 1.698 4.38 4.38 0 0 1 -1.51 1.133c-.592.274-1.259.41-2.001.41-.749 0-1.421-.136-2.017-.41a4.368 4.368 0 0 1 -1.513-1.133 5.097 5.097 0 0 1 -.953-1.699 6.543 6.543 0 0 1 -.332-2.119zm1.807.215c0 .52.062 1.017.186 1.49.123.471.31.886.561 1.244.25.358.565.642.942.85.378.208.818.312 1.319.312.495 0 .93-.104 1.304-.312s.686-.492.937-.85c.25-.358.438-.773.562-1.245.123-.472.185-.968.185-1.489v-.215c0-.514-.063-1.007-.19-1.48a3.93 3.93 0 0 0 -.567-1.244 2.835 2.835 0 0 0 -.937-.855c-.375-.212-.812-.317-1.314-.317-.501 0-.937.105-1.308.317a2.852 2.852 0 0 0 -.933.855c-.25.358-.438.773-.561 1.245a5.813 5.813 0 0 0 -.186 1.48zm12.324-5.4.127 1.562a4.196 4.196 0 0 1 1.416-1.284 3.89 3.89 0 0 1 1.875-.474 4.6 4.6 0 0 1 1.509.235c.452.156.838.4 1.157.732.32.332.565.754.738 1.265.172.51.258 1.118.258 1.821v6.709h-1.806v-6.67c0-.469-.052-.866-.157-1.191a1.898 1.898 0 0 0 -.463-.791 1.812 1.812 0 0 0 -.752-.44 3.473 3.473 0 0 0 -1.02-.137c-.606 0-1.139.152-1.598.455a3.349 3.349 0 0 0 -1.098 1.196v7.578h-1.807v-10.566zm14.883 9.296a2.963 2.963 0 0 0 1.777-.59c.241-.186.435-.404.581-.655.147-.25.223-.522.23-.815h1.709a2.802 2.802 0 0 1 -.366 1.343c-.238.426-.555.8-.952 1.123-.398.322-.853.58-1.368.771a4.569 4.569 0 0 1 -1.611.288c-.8 0-1.5-.143-2.1-.43a4.343 4.343 0 0 1 -1.499-1.157 4.978 4.978 0 0 1 -.903-1.68 6.584 6.584 0 0 1 -.303-2.006v-.41c0-.697.101-1.364.303-2.002a4.97 4.97 0 0 1 .903-1.685c.4-.485.9-.87 1.5-1.157.598-.286 1.298-.43 2.099-.43.625 0 1.2.1 1.724.298.524.199.976.469 1.357.81.38.342.679.748.894 1.217.214.468.322.97.322 1.503h-1.71a2.2 2.2 0 0 0 -.209-.903 2.458 2.458 0 0 0 -1.357-1.255 2.773 2.773 0 0 0 -1.021-.185c-.56 0-1.03.112-1.411.337-.381.224-.689.517-.923.878a3.706 3.706 0 0 0 -.503 1.216c-.1.45-.151.902-.151 1.358v.41c0 .462.05.92.151 1.372s.267.86.498 1.22c.231.362.537.655.918.88.381.224.855.336 1.421.336zm12.168 1.465a5.361 5.361 0 0 1 -2.046-.38 4.642 4.642 0 0 1 -1.597-1.065 4.87 4.87 0 0 1 -1.035-1.621 5.496 5.496 0 0 1 -.37-2.041v-.41c0-.853.136-1.616.41-2.29a5.25 5.25 0 0 1 1.088-1.71 4.75 4.75 0 0 1 1.543-1.069 4.451 4.451 0 0 1 1.773-.37c.761 0 1.427.131 1.997.395a3.92 3.92 0 0 1 1.42 1.094c.378.465.66 1.014.845 1.645.186.632.279 1.315.279 2.05v.811h-7.55c.02.482.113.935.28 1.358.165.423.393.792.683 1.108a3.158 3.158 0 0 0 2.378 1.02c.644 0 1.217-.13 1.718-.39.502-.26.918-.605 1.25-1.035l1.104.86a4.192 4.192 0 0 1 -.66.766 4.55 4.55 0 0 1 -.912.65c-.345.188-.736.34-1.172.453-.436.114-.912.171-1.426.171zm-.234-9.472c-.365 0-.71.066-1.036.2a2.7 2.7 0 0 0 -.878.586c-.26.257-.48.573-.66.947a4.502 4.502 0 0 0 -.376 1.294h5.684v-.137c-.02-.351-.086-.7-.2-1.045a2.911 2.911 0 0 0 -.503-.927 2.517 2.517 0 0 0 -.835-.664c-.335-.17-.734-.254-1.196-.254zm16.484 4.111a7.85 7.85 0 0 1 -.273 2.114 5.252 5.252 0 0 1 -.801 1.704c-.352.482-.786.86-1.304 1.133-.518.274-1.108.41-1.772.41-.645 0-1.213-.104-1.704-.312a3.536 3.536 0 0 1 -1.265-.899v5.078h-1.807v-14.628h1.65l.089 1.152c.351-.436.776-.77 1.274-1.001s1.076-.347 1.733-.347c.677 0 1.276.134 1.797.4.521.268.957.639 1.309 1.114.351.475.618 1.043.8 1.704.183.66.274 1.385.274 2.173zm-1.807-.205c0-.514-.057-1.004-.17-1.47a3.824 3.824 0 0 0 -.528-1.23 2.668 2.668 0 0 0 -.903-.845c-.365-.208-.801-.313-1.309-.313-.58 0-1.066.136-1.46.406s-.708.617-.942 1.04v5.088c.234.416.547.757.937 1.02.391.264.886.396 1.485.396.501 0 .934-.106 1.299-.318.364-.211.664-.496.898-.854s.409-.772.522-1.24c.114-.47.171-.96.171-1.475zm9.17-7.754v2.559h4.024v1.396h-4.024v5.742c0 .41.052.749.157 1.016.104.267.247.48.43.64.182.159.391.271.63.336.237.066.489.098.756.098.195 0 .397-.011.605-.034a11.506 11.506 0 0 0 1.167-.186c.173-.035.315-.066.425-.092l.254 1.279c-.15.091-.332.17-.547.24-.215.068-.449.126-.703.175a9.22 9.22 0 0 1 -1.65.151 4.19 4.19 0 0 1 -1.314-.2 2.723 2.723 0 0 1 -1.06-.635c-.299-.29-.535-.664-.707-1.123-.173-.459-.26-1.014-.26-1.665v-5.742h-2.773v-1.396h2.774v-2.559zm14.746 10.322c0-.215-.042-.408-.127-.58a1.295 1.295 0 0 0 -.43-.474 3.392 3.392 0 0 0 -.8-.396 8.574 8.574 0 0 0 -1.24-.327 12.503 12.503 0 0 1 -1.656-.45 5.449 5.449 0 0 1 -1.279-.63 2.754 2.754 0 0 1 -.825-.859 2.204 2.204 0 0 1 -.293-1.147c0-.43.1-.832.303-1.206.202-.374.485-.702.85-.982.364-.28.798-.5 1.303-.664a5.4 5.4 0 0 1 1.665-.244c.651 0 1.237.085 1.758.254.52.17.963.404 1.328.703.365.3.646.65.845 1.05.198.4.298.832.298 1.294h-1.807c0-.228-.059-.45-.176-.669a1.916 1.916 0 0 0 -.488-.58 2.507 2.507 0 0 0 -.757-.411 3.005 3.005 0 0 0 -1-.156c-.385 0-.722.042-1.012.127-.29.084-.53.198-.722.341-.192.144-.337.31-.435.498a1.26 1.26 0 0 0 -.146.586c0 .209.039.394.117.557s.213.31.405.44.45.247.772.351.73.205 1.225.303c.651.137 1.234.294 1.748.473.515.18.947.394 1.299.645.352.25.62.542.806.874.185.332.278.716.278 1.152 0 .47-.106.895-.317 1.28a2.996 2.996 0 0 1 -.884.986c-.378.273-.83.485-1.358.635a6.31 6.31 0 0 1 -1.728.224c-.716 0-1.354-.096-1.914-.288a4.574 4.574 0 0 1 -1.421-.761 3.281 3.281 0 0 1 -.889-1.1 2.907 2.907 0 0 1 -.307-1.298h1.806c.026.371.126.684.298.938.173.253.388.459.645.615s.542.267.854.332c.313.065.622.097.928.097.762 0 1.364-.14 1.807-.42.442-.28.667-.65.673-1.113z" fill="#939393"/><path d="m0 0h964v1h-964z" fill="#fff" opacity=".6"/></g></svg>