<svg height="472" width="595" xmlns="http://www.w3.org/2000/svg" xmlns:xlink="http://www.w3.org/1999/xlink"><filter id="a" height="203.9%" width="112.3%" x="-6.1%" y="-39.7%"><feOffset dy="2" in="SourceAlpha" result="shadowOffsetOuter1"/><feGaussianBlur in="shadowOffsetOuter1" result="shadowBlurOuter1" stdDeviation="2.5"/><feColorMatrix in="shadowBlurOuter1" values="0 0 0 0 0 0 0 0 0 0 0 0 0 0 0 0 0 0 0.5 0"/></filter><filter id="b" height="203.9%" width="112.3%" x="-6.1%" y="-39.7%"><feOffset dy="2" in="SourceAlpha" result="shadowOffsetOuter1"/><feGaussianBlur in="shadowOffsetOuter1" result="shadowBlurOuter1" stdDeviation="2.5"/><feColorMatrix in="shadowBlurOuter1" values="0 0 0 0 0 0 0 0 0 0 0 0 0 0 0 0 0 0 0.5 0"/></filter><linearGradient id="c"><stop offset="0" stop-color="#2440d6"/><stop offset="1" stop-color="#3fceff"/></linearGradient><linearGradient id="d" x1="0%" xlink:href="#c" y1="0%" y2="100%"/><linearGradient id="e" x1="0%" xlink:href="#c" y1="100%" y2="0%"/><linearGradient id="f" x1="0%" y1="100%" y2="0%"><stop offset="0" stop-color="#2440d6" stop-opacity=".5"/><stop offset="1" stop-color="#3fceff"/></linearGradient><filter id="g" height="286.4%" width="286.3%" x="-93.2%" y="-93.2%"><feGaussianBlur in="SourceGraphic" stdDeviation="4.066"/></filter><filter id="h" height="286.4%" width="286.3%" x="-93.2%" y="-93.2%"><feGaussianBlur in="SourceGraphic" stdDeviation="4.066"/></filter><filter id="i" height="286.4%" width="286.3%" x="-93.2%" y="-93.2%"><feGaussianBlur in="SourceGraphic" stdDeviation="4.066"/></filter><filter id="j" height="286.4%" width="286.3%" x="-93.2%" y="-93.2%"><feGaussianBlur in="SourceGraphic" stdDeviation="4.066"/></filter><linearGradient id="k" x1="0%" y1="100%" y2="0%"><stop offset="0" stop-color="#3fceff"/><stop offset="1" stop-color="#cfd6ff"/></linearGradient><filter id="l" height="134.2%" width="131.7%" x="-15.9%" y="-17.1%"><feGaussianBlur in="SourceGraphic" stdDeviation="2.596"/></filter><g fill="none" fill-rule="evenodd" transform="translate(-3 -1)"><ellipse cx="518.527" cy="452.596" fill="#000" filter="url(#a)" opacity=".05" rx="69.283" ry="8.183" transform="matrix(.99939083 .0348995 -.0348995 .99939083 16.111245 -17.820622)"/><ellipse cx="83.527" cy="457.596" fill="#000" filter="url(#b)" opacity=".05" rx="69.283" ry="8.183" transform="matrix(-.99939083 .0348995 .0348995 .99939083 151.032458 -2.636281)"/><g fill-rule="nonzero" transform="matrix(.9998477 -.01745241 .01745241 .9998477 436.470381 4.817734)"><path d="m122.272.564-.411.116-96.665 23.676c-10.287 2.572-18.76 16.718-19.03 31.842l-.436 23.329-.257 14.57-5.466 296.689c-.257 14.455 6.288 26.801 15.263 29.746 4.898 1.93 10.8 2.328 15.725 2.572l95.893 4.579c18.72.103 27.644-9.195 27.747-39.687l1.389-353.66c-.09-28.524-21.744-36.716-33.752-33.77z" fill="url(#d)"/><path d="m88.364 17.745c0 1.78-1.003 3.462-2.217 3.756-1.213.295-2.17-.896-2.147-2.713.024-1.817 1.004-3.45 2.205-3.744 1.202-.295 2.182.92 2.159 2.7zm-10.637 2.64a1.967 1.967 0 0 1 -1.187 1.917l-18.423 4.312c-.632.152-1.125-.466-1.112-1.349a1.916 1.916 0 0 1 1.15-1.891l18.422-4.35c.645-.152 1.163.453 1.15 1.361z" fill="#e1f0ff"/><path d="m124.111 4.072c10.253-.939 12.816 7.372 12.97 17.716.41 48.31-3.537 373.543-3.665 375.563-.68 10.858-5.293 18.899-16.059 19.053-10.252.155-101.105-4.451-102.425-4.734-9.292-1.943-10.932-11.334-10.932-20.507-.013-45.492 5.703-336.53 5.895-338.55 1-11.386 7.1-22.9 13.726-25.126 1.282-.45 11.01-3.1 12.201-2.354.705.437.718 1.467.705 2.805v1.582c.205 7.9 5.126 7.102 7.472 6.806 6.33-.81 55.34-12.094 56.698-12.634 5.562-2.251 6.292-7.616 6.638-12.505.03-.522.09-1.042.18-1.557.256-1.286.884-1.775 2.768-2.354 1-.322 11.893-3.023 13.828-3.204z" fill="#000" fill-opacity=".5"/></g><g fill-rule="nonzero" transform="matrix(-.9998477 -.01745241 -.01745241 .9998477 573.53388 10.830932)"><path d="m531.272.564-.411.116-96.665 23.676c-10.287 2.572-18.76 16.718-19.03 31.842l-.437 23.329-.257 14.57-5.465 296.688c-.257 14.455 6.288 26.801 15.263 29.746 4.898 1.93 10.8 2.328 15.725 2.572l95.893 4.579c18.72.103 27.644-9.195 27.747-39.687l1.389-353.66c-.09-28.523-21.744-36.715-33.752-33.769z" fill="url(#d)"/><path d="m31.364 2.745c0 1.78-1.003 3.462-2.217 3.756-1.213.295-2.17-.896-2.147-2.713.024-1.817 1.004-3.45 2.205-3.744 1.202-.295 2.182.92 2.159 2.7zm-10.637 3.64a1.967 1.967 0 0 1 -1.187 1.917l-18.423 4.312c-.632.152-1.125-.466-1.112-1.349a1.916 1.916 0 0 1 1.15-1.891l18.422-4.35c.645-.152 1.163.453 1.15 1.361z" fill="#e1f0ff" transform="matrix(-1 0 0 -1 495.44 24.366)"/><path d="m531.111 5.072c10.253-.939 12.816 7.372 12.97 17.716.41 48.31-3.537 373.543-3.665 375.563-.68 10.858-5.293 18.899-16.059 19.053-10.252.155-101.105-4.451-102.425-4.734-9.292-1.943-10.932-11.334-10.932-20.507-.013-45.492 5.703-336.53 5.895-338.55 1-11.386 7.1-22.9 13.726-25.126 1.282-.45 11.01-3.1 12.201-2.354.705.437.718 1.467.705 2.805v1.582c.205 7.9 5.126 7.102 7.472 6.806 6.33-.81 55.34-12.094 56.698-12.634 5.562-2.251 6.292-7.616 6.638-12.505.03-.522.09-1.042.18-1.557.256-1.286.884-1.775 2.768-2.354 1-.322 11.893-3.023 13.828-3.204z" fill="#000" fill-opacity=".5"/><g fill="url(#e)"><path d="m46.423 130.926-40.953 4.057c-1.43.147-2.548-1.467-2.466-3.606s1.241-3.983 2.671-4.097l40.937-4.27c1.512-.156 2.695 1.492 2.654 3.696s-1.315 4.065-2.843 4.22zm-13.364 20.932-27.59 2.36c-1.43.123-2.547-1.508-2.465-3.655s1.241-3.983 2.671-4.097l27.573-2.459c1.488-.13 2.655 1.533 2.614 3.712-.041 2.18-1.34 4.016-2.803 4.139zm12.542 47.184-41.093 2.238c-1.43.081-2.556-1.64-2.506-3.762.049-2.122 1.249-3.966 2.679-4.056l41.092-2.459c1.512-.09 2.704 1.64 2.663 3.852s-1.323 4.138-2.835 4.187zm-14.442 21.942-27.689 1.123c-1.439.057-2.556-1.64-2.466-3.81.09-2.173 1.25-3.967 2.68-4.033l27.68-1.262c1.487-.073 2.662 1.64 2.613 3.868-.05 2.23-1.332 4.048-2.82 4.114zm12.614 49.12-41.257.345c-1.438 0-2.564-1.738-2.514-3.917.049-2.18 1.249-3.95 2.687-3.975l41.24-.557c1.52 0 2.72 1.778 2.68 4.024-.042 2.245-1.315 4.072-2.836 4.08zm-13.511 20.968-27.746-.156c-1.438 0-2.564-1.786-2.514-3.966.048-2.18 1.248-3.95 2.687-3.95h27.778c1.496 0 2.68 1.803 2.63 4.032-.049 2.229-1.34 4.048-2.835 4.04zm68.74-221.17-93.163 12.178c-1.644.213-2.901-1.902-2.836-4.72.066-2.82 1.455-5.286 3.09-5.516l93.124-12.824c1.85-.254 3.288 1.975 3.288 4.982 0 3.008-1.644 5.654-3.501 5.9zm-37.965 19.762-57.267 6.94c-1.019.124-1.816-1.212-1.767-2.974.05-1.762.904-3.278 1.932-3.434l57.265-7.186c1.101-.14 1.972 1.245 1.931 3.08-.04 1.836-1.01 3.443-2.095 3.574zm37.967-78.762-93.166 12.178c-1.644.213-2.901-1.902-2.836-4.72.066-2.82 1.455-5.286 3.09-5.516l93.125-12.824c1.85-.254 3.288 1.975 3.288 4.982 0 3.008-1.644 5.654-3.501 5.9zm-37.968 19.762-57.267 6.94c-1.019.124-1.816-1.212-1.767-2.974.05-1.762.904-3.278 1.932-3.434l57.266-7.186c1.101-.14 1.972 1.245 1.931 3.08-.04 1.836-1.01 3.443-2.095 3.574z" opacity=".1" transform="matrix(-.99939083 -.0348995 -.0348995 .99939083 113.27924 57.426662)"/><g opacity=".2" transform="matrix(.99939083 .0348995 -.0348995 .99939083 428.515351 51.191959)"><path d="m99.677 88.835-40.444 7.61c-1.411.271-2.665-1.24-2.77-3.377-.105-2.138.89-4.076 2.304-4.315l40.408-7.82c1.493-.288 2.816 1.25 2.967 3.45.15 2.199-.956 4.163-2.465 4.452z"/><path d="m102.423 228.926-40.953 4.057c-1.43.147-2.548-1.467-2.466-3.606s1.241-3.983 2.671-4.097l40.937-4.27c1.512-.156 2.695 1.492 2.654 3.696s-1.315 4.065-2.843 4.22zm-1-71-40.953 4.057c-1.43.147-2.548-1.467-2.466-3.606s1.241-3.983 2.671-4.097l40.937-4.27c1.512-.156 2.695 1.492 2.654 3.696s-1.315 4.065-2.843 4.22z"/><path d="m99.422 109.847-77.642 14.127c-1.411.272-2.666-1.24-2.77-3.377-.105-2.138.889-4.076 2.304-4.315l77.608-14.337c1.493-.287 2.815 1.25 2.966 3.45s-.955 4.164-2.465 4.452z"/><path d="m102.049 251.926-78.58 7.306c-1.43.148-2.547-1.467-2.465-3.606.082-2.138 1.241-3.982 2.671-4.097l78.563-7.519c1.512-.156 2.695 1.492 2.654 3.696-.04 2.204-1.315 4.065-2.843 4.22zm-1-71-78.58 7.306c-1.43.148-2.547-1.467-2.465-3.606.082-2.138 1.241-3.982 2.671-4.097l78.563-7.519c1.512-.156 2.695 1.492 2.654 3.696-.04 2.204-1.315 4.065-2.843 4.22z"/><path d="m99.513 50.53-85.22 16.458c-1.004.211-1.914-1.05-2.019-2.81-.104-1.759.615-3.344 1.625-3.588l85.198-16.704c1.085-.234 2.074 1.07 2.193 2.902s-.708 3.516-1.777 3.742z"/><path d="m96.685 11.895-91.749 20.25c-1.618.356-3.055-1.64-3.236-4.455-.18-2.814.989-5.392 2.598-5.763l91.652-20.892c1.82-.414 3.447 1.68 3.709 4.677.262 2.996-1.145 5.776-2.974 6.183z"/><path d="m98.847 31.543-56.443 11.905c-1.005.212-1.916-1.05-2.02-2.809-.104-1.76.615-3.344 1.625-3.589l56.421-12.15c1.085-.235 2.073 1.069 2.192 2.9.12 1.833-.707 3.518-1.776 3.743z"/></g></g></g><g transform="translate(90.468 125.326)"><path d="m165.479053 69.2795693h-50.199841l-50.2091206-63.2795693h-61.0700914" stroke="url(#f)" stroke-width="4.37"/><path d="m414.205829 69.2795693h-50.199841l-50.209121-63.2795693h-57.796867" stroke="url(#f)" stroke-width="4.37" transform="matrix(-1 0 0 1 670.206 0)"/><path d="m165.752277 188.279569h-56.149452l-56.1598309-63.279569h-52.4429941" stroke="url(#f)" stroke-width="4.37" transform="matrix(1 0 0 -1 0 313.28)"/><path d="m418.752277 188.279569h-56.149452l-56.159831-63.279569h-52.442994" stroke="url(#f)" stroke-width="4.37" transform="matrix(-1 0 0 -1 672.752 313.28)"/><g fill="#3fceff"><ellipse cx="6.546" cy="6.546" filter="url(#g)" rx="6.546" ry="6.546"/><ellipse cx="414.546" cy="6.546" filter="url(#h)" rx="6.546" ry="6.546"/><ellipse cx="6.546" cy="188.546" filter="url(#i)" rx="6.546" ry="6.546"/><ellipse cx="414.546" cy="188.546" filter="url(#j)" rx="6.546" ry="6.546"/><ellipse cx="6.546" cy="6.546" rx="6.546" ry="6.546"/><ellipse cx="414.546" cy="6.546" rx="6.546" ry="6.546"/><ellipse cx="6.546" cy="188.546" rx="6.546" ry="6.546"/><ellipse cx="414.546" cy="188.546" rx="6.546" ry="6.546"/></g><g transform="translate(160.388 45.823)"><path d="m5 5h88.377v89.464h-88.377z" fill="#000" opacity=".2"/><path d="m74.1195374 38.9975527h-21.3907663l21.3907663 34.5637372h-49.1195374l20.5985157-34.5637372h-20.5985157v-10.9975527h49.1195374z" fill="#3fceff"/><path d="m74.1195374 38.9975527h-21.3907663l21.3907663 34.5637372h-49.1195374l20.5985157-34.5637372h-20.5985157v-10.9975527h49.1195374z" fill="url(#k)" filter="url(#l)"/><path d="m5.546 5.499v87.98h87.94v-88.766l-87.94.787zm-5.546-5.499h99.031v98.192h-99.031z" fill="url(#d)" fill-rule="nonzero"/></g></g></g></svg>