<svg width="595px" height="472px" viewBox="0 0 595 472" version="1.1" xmlns="http://www.w3.org/2000/svg" xmlns:xlink="http://www.w3.org/1999/xlink">
    <defs>
        <ellipse id="path-1" cx="518.526609" cy="452.595669" rx="69.2832423" ry="8.18270292"></ellipse>
        <filter x="-6.1%" y="-39.7%" width="112.3%" height="203.9%" filterUnits="objectBoundingBox" id="filter-2">
            <feOffset dx="0" dy="2" in="SourceAlpha" result="shadowOffsetOuter1"></feOffset>
            <feGaussianBlur stdDeviation="2.5" in="shadowOffsetOuter1" result="shadowBlurOuter1"></feGaussianBlur>
            <feColorMatrix values="0 0 0 0 0   0 0 0 0 0   0 0 0 0 0  0 0 0 0.5 0" type="matrix" in="shadowBlurOuter1"></feColorMatrix>
        </filter>
        <ellipse id="path-3" cx="83.526609" cy="457.595669" rx="69.2832423" ry="8.18270292"></ellipse>
        <filter x="-6.1%" y="-39.7%" width="112.3%" height="203.9%" filterUnits="objectBoundingBox" id="filter-4">
            <feOffset dx="0" dy="2" in="SourceAlpha" result="shadowOffsetOuter1"></feOffset>
            <feGaussianBlur stdDeviation="2.5" in="shadowOffsetOuter1" result="shadowBlurOuter1"></feGaussianBlur>
            <feColorMatrix values="0 0 0 0 0   0 0 0 0 0   0 0 0 0 0  0 0 0 0.5 0" type="matrix" in="shadowBlurOuter1"></feColorMatrix>
        </filter>
        <linearGradient x1="0%" y1="1.72254642e-14%" x2="100%" y2="100%" id="linearGradient-5">
            <stop stop-color="#2440D6" offset="0%"></stop>
            <stop stop-color="#3FCEFF" offset="100%"></stop>
        </linearGradient>
        <linearGradient x1="1.11022302e-14%" y1="100%" x2="100%" y2="3.74939946e-31%" id="linearGradient-6">
            <stop stop-color="#2440D6" offset="0%"></stop>
            <stop stop-color="#3FCEFF" offset="100%"></stop>
        </linearGradient>
        <linearGradient x1="1.11022302e-14%" y1="100%" x2="100%" y2="3.74939946e-31%" id="linearGradient-7">
            <stop stop-color="#2440D6" stop-opacity="0.5" offset="0%"></stop>
            <stop stop-color="#3FCEFF" offset="100%"></stop>
        </linearGradient>
        <filter x="-93.2%" y="-93.2%" width="286.3%" height="286.4%" filterUnits="objectBoundingBox" id="filter-8">
            <feGaussianBlur stdDeviation="4.0663923" in="SourceGraphic"></feGaussianBlur>
        </filter>
        <filter x="-93.2%" y="-93.2%" width="286.3%" height="286.4%" filterUnits="objectBoundingBox" id="filter-9">
            <feGaussianBlur stdDeviation="4.0663923" in="SourceGraphic"></feGaussianBlur>
        </filter>
        <filter x="-93.2%" y="-93.2%" width="286.3%" height="286.4%" filterUnits="objectBoundingBox" id="filter-10">
            <feGaussianBlur stdDeviation="4.0663923" in="SourceGraphic"></feGaussianBlur>
        </filter>
        <filter x="-93.2%" y="-93.2%" width="286.3%" height="286.4%" filterUnits="objectBoundingBox" id="filter-11">
            <feGaussianBlur stdDeviation="4.0663923" in="SourceGraphic"></feGaussianBlur>
        </filter>
        <linearGradient x1="2.22044605e-14%" y1="100%" x2="100%" y2="1.05475548e-30%" id="linearGradient-12">
            <stop stop-color="#3FCEFF" offset="0%"></stop>
            <stop stop-color="#CFD6FF" offset="100%"></stop>
        </linearGradient>
        <filter x="-15.9%" y="-17.1%" width="131.7%" height="134.2%" filterUnits="objectBoundingBox" id="filter-13">
            <feGaussianBlur stdDeviation="2.59568733" in="SourceGraphic"></feGaussianBlur>
        </filter>
    </defs>
    <g id="TODA" stroke="none" stroke-width="1" fill="none" fill-rule="evenodd">
        <g id="Case-Study---Toda" transform="translate(-423.000000, -4937.000000)">
            <g id="Illustration" transform="translate(420.000000, 4936.000000)">
                <g id="shadown" opacity="0.05" transform="translate(518.526609, 452.595669) rotate(2.000000) translate(-518.526609, -452.595669) " fill="black" fill-opacity="1">
                    <use filter="url(#filter-2)" xlink:href="#path-1"></use>
                </g>
                <g id="shadown" opacity="0.05" transform="translate(83.526609, 457.595669) scale(-1, 1) rotate(2.000000) translate(-83.526609, -457.595669) " fill="black" fill-opacity="1">
                    <use filter="url(#filter-4)" xlink:href="#path-3"></use>
                </g>
                <g id="mobile-1" transform="translate(518.693240, 217.415134) rotate(-1.000000) translate(-518.693240, -217.415134) translate(440.193240, 3.415134)" fill-rule="nonzero">
                    <path d="M122.271995,0.564390496 L121.860546,0.680133491 L25.1957215,24.3560062 C14.9094939,26.9280727 6.43621383,41.0744388 6.16620036,56.1981902 L5.72903568,79.5268339 L5.47187999,94.097591 L0.00732155268,390.785469 C-0.249834139,405.240483 6.2947782,417.586402 15.2695118,420.531419 C20.1683277,422.460469 26.0700509,422.859139 30.9945823,423.103485 L126.88794,427.681764 C145.608874,427.784646 154.532176,418.486626 154.635039,387.994777 L156.023679,34.3356244 C155.933675,5.81140628 134.281166,-2.38062572 122.271995,0.564390496 Z" id="Shape" fill="url(#linearGradient-5)"></path>
                    <path d="M88.3638905,17.7448591 C88.3638905,19.5249458 87.3605251,21.2068208 86.1471531,21.5014558 C84.933781,21.7960909 83.9770838,20.6052743 84.0004179,18.7883582 C84.023752,16.9714422 85.0037833,15.338673 86.2054883,15.044038 C87.4071933,14.7494029 88.3872246,15.9647725 88.3638905,17.7448591 Z" id="Shape" fill="#E1F0FF"></path>
                    <path d="M77.7273009,20.3850474 C77.7736727,21.2093934 77.2992896,21.9749159 76.5395431,22.3017586 L58.1166611,26.6143588 C57.484875,26.7656781 56.9920818,26.1477909 57.0047176,25.265095 C56.9479031,24.4552005 57.4085507,23.6974403 58.1545682,23.3736036 L76.5774502,19.0231736 C77.221872,18.8718543 77.7399366,19.4771315 77.7273009,20.3850474 Z" id="Shape" fill="#E1F0FF"></path>
                    <path d="M124.111467,4.07248842 C134.364258,3.13332362 136.927456,11.4442889 137.081248,21.787967 C137.49136,70.0970606 133.544035,395.331118 133.415875,397.350966 C132.736628,408.209255 128.122872,416.250049 117.357441,416.404432 C107.10465,416.558816 16.2521067,411.953049 14.9320599,411.670013 C5.64046807,409.727357 4.00002152,400.335709 4.00002152,391.16277 C3.98720553,345.671171 9.70313648,54.6330045 9.89537631,52.6131569 C10.8950234,41.2273918 16.995434,29.7129741 23.6213002,27.4872821 C24.9028991,27.0369976 34.6302345,24.3867517 35.8221214,25.1329375 C36.5270008,25.5703567 36.5398168,26.5995784 36.5270008,27.9375666 C36.5270008,28.4264469 36.5270008,28.953923 36.5270008,29.519995 C36.7320566,37.4192715 41.6533963,36.6216247 43.9987222,36.3257235 C50.3298206,35.5152114 99.3381613,24.2323685 100.696656,23.6920271 C106.258795,21.4406046 106.989307,16.0757865 107.335338,11.1869834 C107.364915,10.665021 107.424824,10.1452372 107.514762,9.63028561 C107.771082,8.34375848 108.399065,7.85487817 110.283016,7.27594096 C111.282663,6.95430918 122.176253,4.25260222 124.111467,4.07248842 Z" id="Shape" fill-opacity="0.5" fill="#000000"></path>
                </g>
                <g id="mobile-#2" transform="translate(286.842162, 219.859311) scale(-1, 1) rotate(-1.000000) translate(-286.842162, -219.859311) translate(3.842162, 5.859311)" fill-rule="nonzero">
                    <path d="M531.271995,0.564390496 L530.860546,0.680133491 L434.195722,24.3560062 C423.909494,26.9280727 415.436214,41.0744388 415.1662,56.1981902 L414.729036,79.5268339 L414.47188,94.097591 L409.007322,390.785469 C408.750166,405.240483 415.294778,417.586402 424.269512,420.531419 C429.168328,422.460469 435.070051,422.859139 439.994582,423.103485 L535.88794,427.681764 C554.608874,427.784646 563.532176,418.486626 563.635039,387.994777 L565.023679,34.3356244 C564.933675,5.81140628 543.281166,-2.38062572 531.271995,0.564390496 Z" id="Shape" fill="url(#linearGradient-5)"></path>
                    <g id="Group-9" transform="translate(479.438980, 17.866703) scale(-1, -1) translate(-479.438980, -17.866703) translate(463.438980, 11.366703)" fill="#E1F0FF">
                        <path d="M31.3638905,2.74485913 C31.3638905,4.5249458 30.3605251,6.20682079 29.1471531,6.50145583 C27.933781,6.79609086 26.9770838,5.60527426 27.0004179,3.78835821 C27.023752,1.97144216 28.0037833,0.338673005 29.2054883,0.0440379695 C30.4071933,-0.250597066 31.3872246,0.964772455 31.3638905,2.74485913 Z" id="Shape"></path>
                        <path d="M20.7273009,6.38504735 C20.7736727,7.20939339 20.2992896,7.97491593 19.5395431,8.30175855 L1.11666106,12.6143588 C0.484874986,12.7656781 -0.00791815421,12.1477909 0.00471756732,11.265095 C-0.0520969457,10.4552005 0.408550708,9.69744033 1.15456823,9.37360363 L19.5774502,5.0231736 C20.221872,4.8718543 20.7399366,5.47713152 20.7273009,6.38504735 Z" id="Shape"></path>
                    </g>
                    <path d="M531.111467,5.07248842 C541.364258,4.13332362 543.927456,12.4442889 544.081248,22.787967 C544.49136,71.0970606 540.544035,396.331118 540.415875,398.350966 C539.736628,409.209255 535.122872,417.250049 524.357441,417.404432 C514.10465,417.558816 423.252107,412.953049 421.93206,412.670013 C412.640468,410.727357 411.000022,401.335709 411.000022,392.16277 C410.987206,346.671171 416.703136,55.6330045 416.895376,53.6131569 C417.895023,42.2273918 423.995434,30.7129741 430.6213,28.4872821 C431.902899,28.0369976 441.630234,25.3867517 442.822121,26.1329375 C443.527001,26.5703567 443.539817,27.5995784 443.527001,28.9375666 C443.527001,29.4264469 443.527001,29.953923 443.527001,30.519995 C443.732057,38.4192715 448.653396,37.6216247 450.998722,37.3257235 C457.329821,36.5152114 506.338161,25.2323685 507.696656,24.6920271 C513.258795,22.4406046 513.989307,17.0757865 514.335338,12.1869834 C514.364915,11.665021 514.424824,11.1452372 514.514762,10.6302856 C514.771082,9.34375848 515.399065,8.85487817 517.283016,8.27594096 C518.282663,7.95430918 529.176253,5.25260222 531.111467,5.07248842 Z" id="Shape" fill-opacity="0.5" fill="#000000"></path>
                    <g id="Screen" transform="translate(56.715285, 201.540383) scale(-1, 1) rotate(-2.000000) translate(-56.715285, -201.540383) translate(5.215285, 55.540383)" fill="url(#linearGradient-6)" opacity="0.1">
                        <path d="M46.4225124,130.926286 L5.46980355,134.982672 C4.03978723,135.130177 2.92207332,133.515817 3.00425817,131.376995 C3.08644302,129.238174 4.24524935,127.394362 5.67526567,127.279636 L46.6115375,123.010188 C48.1237387,122.854488 49.3072005,124.501626 49.2661081,126.706006 C49.2250156,128.910385 47.9511505,130.770586 46.4225124,130.926286 Z" id="Shape"></path>
                        <path d="M33.0592564,151.857788 L5.46980355,154.217867 C4.03978723,154.340788 2.92207332,152.710039 3.00425817,150.563023 C3.08644302,148.416007 4.24524935,146.58039 5.67526567,146.465664 L33.2482815,144.007248 C34.7358273,143.876132 35.9028521,145.53966 35.8617596,147.719456 C35.8206672,149.899251 34.5221467,151.734868 33.0592564,151.857788 Z" id="Shape"></path>
                        <path d="M45.6006207,199.042389 L4.50819769,201.279548 C3.07818136,201.361495 1.95224897,199.640604 2.00155988,197.518172 C2.05087079,195.39574 3.25076954,193.551928 4.68078586,193.461786 L45.7732089,191.00337 C47.2854101,190.913229 48.4770904,192.642314 48.4359979,194.854888 C48.3949055,197.067462 47.1128219,198.993221 45.6006207,199.042389 Z" id="Shape"></path>
                        <path d="M31.1587412,220.983951 L3.47066651,222.106627 C2.03243171,222.16399 0.9147178,220.467684 1.00512113,218.296083 C1.09552446,216.124483 2.25433079,214.329839 3.68434711,214.264282 L31.3642033,213.002295 C32.851749,212.928542 34.0269923,214.641239 33.9776814,216.870202 C33.9283705,219.099166 32.6462869,220.918393 31.1587412,220.983951 Z" id="Shape"></path>
                        <path d="M43.7732088,270.104577 L2.51641609,270.448755 C1.07818129,270.448755 -0.0477511046,268.711475 0.00155980312,266.531679 C0.0508707108,264.351884 1.25076946,262.581825 2.68900427,262.557241 L43.9293601,262 C45.4497797,262 46.6496785,263.778254 46.608586,266.023607 C46.5674936,268.26896 45.2936285,270.096382 43.7732088,270.104577 Z" id="Shape"></path>
                        <path d="M30.2620201,291.071798 L2.51641609,290.916098 C1.07818129,290.916098 -0.0477511046,289.12965 0.00155980311,286.949854 C0.0508707108,284.770059 1.25076946,283 2.68900427,283 L30.4674823,283 C31.9632465,283 33.1467082,284.802838 33.0973973,287.031802 C33.0480864,289.260765 31.7577843,291.079993 30.2620201,291.071798 Z" id="Shape"></path>
                        <path d="M99.0025835,69.9023136 L5.83784198,82.0796655 C4.19414506,82.2927282 2.93671692,80.1784908 3.00246479,77.3595076 C3.06821267,74.5405244 4.45713657,72.0739141 6.09261501,71.844462 L99.2162641,59.0197273 C101.065423,58.765691 102.503658,60.9946545 102.503658,64.0021162 C102.503658,67.009578 100.859961,69.6564721 99.0025835,69.9023136 Z" id="Shape"></path>
                        <path d="M61.035545,89.663766 L3.76914424,96.6046927 C2.75005215,96.7276135 1.95285914,95.3918744 2.00217005,93.6300099 C2.05148096,91.8681454 2.90620335,90.3521224 3.93351393,90.1964227 L61.1999147,83.0096545 C62.3011916,82.8703443 63.172351,84.2552517 63.1312586,86.0908687 C63.0901662,87.9264857 62.120385,89.5326505 61.035545,89.663766 Z" id="Shape"></path>
                        <path d="M99.0025835,10.9023136 L5.83784198,23.0796655 C4.19414506,23.2927282 2.93671692,21.1784908 3.00246479,18.3595076 C3.06821267,15.5405244 4.45713657,13.0739141 6.09261501,12.844462 L99.2162641,0.0197272854 C101.065423,-0.234308992 102.503658,1.99465448 102.503658,5.00211622 C102.503658,8.00957796 100.859961,10.6564721 99.0025835,10.9023136 Z" id="Shape"></path>
                        <path d="M61.035545,30.663766 L3.76914424,37.6046927 C2.75005215,37.7276135 1.95285914,36.3918744 2.00217005,34.6300099 C2.05148096,32.8681454 2.90620335,31.3521224 3.93351393,31.1964227 L61.1999147,24.0096545 C62.3011916,23.8703443 63.172351,25.2552517 63.1312586,27.0908687 C63.0901662,28.9264857 62.120385,30.5326505 61.035545,30.663766 Z" id="Shape"></path>
                    </g>
                    <g id="Screen" transform="translate(476.946133, 182.962438) rotate(2.000000) translate(-476.946133, -182.962438) translate(423.946133, 52.962438)" fill="url(#linearGradient-6)" opacity="0.2">
                        <path d="M99.5857522,90.6101517 L58.6330434,94.6665375 C57.2030271,94.8140424 56.0853132,93.1996828 56.167498,91.0608613 C56.2496829,88.9220397 57.4084892,87.078228 58.8385055,86.9635019 L99.7747774,82.6940535 C101.286979,82.5383539 102.47044,84.1854923 102.429348,86.3898716 C102.388255,88.5942509 101.11439,90.4544521 99.5857522,90.6101517 Z" id="Shape" transform="translate(79.296813, 88.679879) rotate(-5.000000) translate(-79.296813, -88.679879) "></path>
                        <path d="M102.422512,228.926286 L61.4698036,232.982672 C60.0397872,233.130177 58.9220733,231.515817 59.0042582,229.376995 C59.086443,227.238174 60.2452493,225.394362 61.6752657,225.279636 L102.611538,221.010188 C104.123739,220.854488 105.3072,222.501626 105.266108,224.706006 C105.225016,226.910385 103.951151,228.770586 102.422512,228.926286 Z" id="Shape-Copy-4"></path>
                        <path d="M101.422512,157.926286 L60.4698036,161.982672 C59.0397872,162.130177 57.9220733,160.515817 58.0042582,158.376995 C58.086443,156.238174 59.2452493,154.394362 60.6752657,154.279636 L101.611538,150.010188 C103.123739,149.854488 104.3072,151.501626 104.266108,153.706006 C104.225016,155.910385 102.951151,157.770586 101.422512,157.926286 Z" id="Shape-Copy-6"></path>
                        <path d="M99.5444452,113.256559 L20.9656776,120.562281 C19.5356612,120.709786 18.4179473,119.095427 18.5001322,116.956605 C18.582317,114.817783 19.7411234,112.973972 21.1711397,112.859246 L99.7334704,105.340461 C101.245672,105.184761 102.429133,106.831899 102.388041,109.036279 C102.346948,111.240658 101.073083,113.100859 99.5444452,113.256559 Z" id="Shape-Copy" transform="translate(60.442477, 112.950954) rotate(-5.000000) translate(-60.442477, -112.950954) "></path>
                        <path d="M102.048571,251.926286 L23.4698036,259.232008 C22.0397872,259.379513 20.9220733,257.765154 21.0042582,255.626332 C21.086443,253.487511 22.2452493,251.643699 23.6752657,251.528973 L102.237596,244.010188 C103.749798,243.854488 104.933259,245.501626 104.892167,247.706006 C104.851074,249.910385 103.577209,251.770586 102.048571,251.926286 Z" id="Shape-Copy-5"></path>
                        <path d="M101.048571,180.926286 L22.4698036,188.232008 C21.0397872,188.379513 19.9220733,186.765154 20.0042582,184.626332 C20.086443,182.487511 21.2452493,180.643699 22.6752657,180.528973 L101.237596,173.010188 C102.749798,172.854488 103.933259,174.501626 103.892167,176.706006 C103.851074,178.910385 102.577209,180.770586 101.048571,180.926286 Z" id="Shape-Copy-7"></path>
                        <path d="M99.7776097,54.2729321 L13.4478301,63.2412246 C12.428738,63.3641453 11.631545,62.0284062 11.6808559,60.2665417 C11.7301668,58.5046772 12.5848892,56.9886542 13.6121997,56.8329546 L99.9419794,47.6188205 C101.043256,47.4795103 101.914416,48.8644178 101.873323,50.7000347 C101.832231,52.5356517 100.86245,54.1418166 99.7776097,54.2729321 Z" id="Shape" transform="translate(56.776703, 55.429119) rotate(-5.000000) translate(-56.776703, -55.429119) "></path>
                        <path d="M96.9175206,15.9231376 L3.752779,28.1004895 C2.10908208,28.3135522 0.85165393,26.1993148 0.917401807,23.3803316 C0.983149684,20.5613484 2.37207358,18.0947381 4.00755202,17.8652859 L97.1312012,5.04055126 C98.9803602,4.78651498 100.418595,7.01547845 100.418595,10.0229402 C100.418595,13.0304019 98.7748981,15.6772961 96.9175206,15.9231376 Z" id="Shape" transform="translate(50.666766, 16.568051) rotate(-5.000000) translate(-50.666766, -16.568051) "></path>
                        <path d="M98.967849,34.023575 L41.7014483,40.9645017 C40.6823562,41.0874225 39.8851632,39.7516834 39.9344741,37.9898189 C39.983785,36.2279543 40.8385074,34.7119314 41.865818,34.5562317 L99.1322187,27.3694635 C100.233496,27.2301533 101.104655,28.6150607 101.063563,30.4506777 C101.02247,32.2862947 100.052689,33.8924595 98.967849,34.023575 Z" id="Shape" transform="translate(70.498631, 34.166079) rotate(-5.000000) translate(-70.498631, -34.166079) "></path>
                    </g>
                </g>
                <g id="connection" transform="translate(90.468124, 125.326477)">
                    <polyline id="Path-2-Copy-2" stroke="url(#linearGradient-7)" stroke-width="4.37" points="165.479053 69.2795693 115.279212 69.2795693 65.0700914 6 4 6"></polyline>
                    <polyline id="Path-2-Copy-6" stroke="url(#linearGradient-7)" stroke-width="4.37" transform="translate(335.102914, 37.639785) scale(-1, 1) translate(-335.102914, -37.639785) " points="414.205829 69.2795693 364.005988 69.2795693 313.796867 6 256 6"></polyline>
                    <polyline id="Path-2-Copy-3" stroke="url(#linearGradient-7)" stroke-width="4.37" transform="translate(83.376138, 156.639785) scale(1, -1) translate(-83.376138, -156.639785) " points="165.752277 188.279569 109.602825 188.279569 53.4429941 125 1 125"></polyline>
                    <polyline id="Path-2-Copy-7" stroke="url(#linearGradient-7)" stroke-width="4.37" transform="translate(336.376138, 156.639785) scale(-1, -1) translate(-336.376138, -156.639785) " points="418.752277 188.279569 362.602825 188.279569 306.442994 125 254 125"></polyline>
                    <ellipse id="dot" fill="#3FCEFF" filter="url(#filter-8)" cx="6.54644809" cy="6.54616234" rx="6.54644809" ry="6.54616234"></ellipse>
                    <ellipse id="dot-copy-2" fill="#3FCEFF" filter="url(#filter-9)" cx="414.546448" cy="6.54616234" rx="6.54644809" ry="6.54616234"></ellipse>
                    <ellipse id="dot-copy" fill="#3FCEFF" filter="url(#filter-10)" cx="6.54644809" cy="188.546162" rx="6.54644809" ry="6.54616234"></ellipse>
                    <ellipse id="dot-copy-3" fill="#3FCEFF" filter="url(#filter-11)" cx="414.546448" cy="188.546162" rx="6.54644809" ry="6.54616234"></ellipse>
                    <ellipse id="dot" fill="#3FCEFF" cx="6.54644809" cy="6.54616234" rx="6.54644809" ry="6.54616234"></ellipse>
                    <ellipse id="dot-copy-2" fill="#3FCEFF" cx="414.546448" cy="6.54616234" rx="6.54644809" ry="6.54616234"></ellipse>
                    <ellipse id="dot-copy" fill="#3FCEFF" cx="6.54644809" cy="188.546162" rx="6.54644809" ry="6.54616234"></ellipse>
                    <ellipse id="dot-copy-3" fill="#3FCEFF" cx="414.546448" cy="188.546162" rx="6.54644809" ry="6.54616234"></ellipse>
                    <g id="logo" transform="translate(160.387978, 45.823136)">
                        <rect id="Rectangle" fill="#000000" opacity="0.2" x="5" y="5" width="88.3770492" height="89.4642186"></rect>
                        <polygon id="Iso" fill="#3FCEFF" points="74.1195374 38.9975527 52.7287711 38.9975527 74.1195374 73.5612899 25 73.5612899 45.5985157 38.9975527 25 38.9975527 25 28 74.1195374 28"></polygon>
                        <polygon id="Iso" fill="url(#linearGradient-12)" filter="url(#filter-13)" points="74.1195374 38.9975527 52.7287711 38.9975527 74.1195374 73.5612899 25 73.5612899 45.5985157 38.9975527 25 38.9975527 25 28 74.1195374 28"></polygon>
                        <path d="M5.54575422,5.49877637 L5.54575422,93.4791982 L93.4855711,93.4791982 L93.4855711,4.71323688 L5.54575422,5.49877637 Z M0,0 L99.0313253,0 L99.0313253,98.1924351 L0,98.1924351 L0,0 Z" id="Container" fill="url(#linearGradient-5)" fill-rule="nonzero"></path>
                    </g>
                </g>
            </g>
        </g>
    </g>
</svg>