<svg height="905" width="965" xmlns="http://www.w3.org/2000/svg" xmlns:xlink="http://www.w3.org/1999/xlink"><linearGradient id="a" x1="0%" y1="100%" y2="0%"><stop offset="0" stop-color="#2440d6"/><stop offset="1" stop-color="#3fceff"/></linearGradient><g fill="none" fill-rule="evenodd"><g transform="translate(3 356)"><path d="m4 4h168.099v168h-168.099z" stroke="#2440d6" stroke-width="8"/><ellipse cx="88.553" cy="87.497" fill="#fff" rx="17.107" ry="17.097"/><g transform="translate(261.634)"><path d="m4 4h168.099v168h-168.099z" stroke="#fff" stroke-width="8"/><ellipse cx="87.547" cy="87.497" fill="#2440d6" rx="17.107" ry="17.097"/></g><g transform="translate(523.267)"><path d="m4 4h168.099v168h-168.099z" stroke="#3fceff" stroke-width="8"/><ellipse cx="87.547" cy="87.497" fill="#2440d6" rx="17.107" ry="17.097"/></g><g transform="translate(784.9)"><path d="m4 4h168.099v168h-168.099z" stroke="url(#a)" stroke-width="8"/><ellipse cx="87.547" cy="87.497" fill="url(#a)" rx="17.107" ry="17.097"/></g></g><g transform="translate(3 114)"><g transform="translate(784.9)"><path d="m0 0h176.099v176h-176.099z" fill="url(#a)"/><ellipse cx="88.553" cy="87.497" fill="#fff" rx="17.107" ry="17.097"/></g><g transform="translate(261.634)"><path d="m0 0h176.099v176h-176.099z" fill="#fff"/><ellipse cx="87.547" cy="87.497" fill="#2440d6" rx="17.107" ry="17.097"/></g><path d="m0 0h176.099v176h-176.099z" fill="#2440d6"/><ellipse cx="88.553" cy="87.497" fill="#fff" rx="17.107" ry="17.097"/><g transform="translate(523.267)"><path d="m0 0h176.099v176h-176.099z" fill="#3fceff"/><ellipse cx="88.553" cy="87.497" fill="#2440d6" rx="17.107" ry="17.097"/></g></g><g transform="translate(1 586)"><path d="m0 0h964v319h-964z" fill="url(#a)"/><path d="m41.338 162.996h-1.963l-.713 4.004h-1.748l.713-4.004h-2.227v-1.65h2.52l.508-2.832h-2.295v-1.67h2.588l.732-4.063h1.738l-.722 4.063h1.963l.722-4.063h1.758l-.732 4.063h2.119v1.67h-2.412l-.508 2.832h2.178v1.65h-2.471l-.713 4.004h-1.748zm-1.67-1.65h1.963l.498-2.832h-1.963zm18.008 5.654h-9.697v-1.855l4.6-4.942c.357-.39.66-.745.907-1.064.248-.32.448-.61.6-.874.154-.264.265-.51.333-.738a2.448 2.448 0 0 0 -.034-1.514 1.785 1.785 0 0 0 -.386-.63 1.661 1.661 0 0 0 -.596-.395 2.073 2.073 0 0 0 -.766-.136c-.749 0-1.307.208-1.675.625-.368.416-.552.999-.552 1.748h-2.724a4.509 4.509 0 0 1 1.381-3.272c.44-.423.97-.757 1.592-1 .622-.245 1.31-.367 2.066-.367.722 0 1.362.1 1.919.303a3.85 3.85 0 0 1 1.396.85c.374.364.66.802.855 1.313.195.51.292 1.076.292 1.694 0 .469-.073.916-.22 1.343a5.775 5.775 0 0 1 -.624 1.265c-.27.416-.594.841-.972 1.274s-.797.887-1.26 1.362l-2.675 2.832h6.24zm10.635-5.283h1.65v2.197h-1.65v3.086h-2.715v-3.086h-5.909l-.107-1.7 5.977-9.433h2.754zm-6.065 0h3.35v-5.283l-.264.468zm18.066 0h1.65v2.197h-1.65v3.086h-2.714v-3.086h-5.909l-.107-1.7 5.977-9.433h2.754v8.936zm-6.064 0h3.35v-5.283l-.264.468zm19.395-.127c0 .918-.106 1.727-.318 2.427-.211.7-.516 1.285-.913 1.757a3.798 3.798 0 0 1 -1.455 1.07c-.573.24-1.217.361-1.934.361-.71 0-1.35-.12-1.923-.361a3.84 3.84 0 0 1 -1.46-1.07c-.4-.472-.71-1.058-.928-1.757-.218-.7-.327-1.51-.327-2.427v-3.399c0-.918.107-1.726.322-2.426s.522-1.286.923-1.758c.4-.472.885-.829 1.455-1.07.57-.24 1.21-.36 1.919-.36.716 0 1.36.12 1.933.36a3.84 3.84 0 0 1 1.46 1.07c.4.472.708 1.058.923 1.758s.323 1.508.323 2.426zm-6.524-1.172 3.79-2.822c-.02-.957-.186-1.667-.499-2.13-.312-.461-.781-.693-1.406-.693-.632 0-1.104.245-1.416.733-.313.488-.469 1.24-.469 2.256zm3.79-.977-3.79 2.813c.033.937.205 1.632.518 2.085.312.452.774.679 1.386.679.638 0 1.112-.248 1.421-.743.31-.494.464-1.253.464-2.275v-2.559zm5.321 7.559v-14.219h3.682c.944 0 1.799.161 2.564.484a5.71 5.71 0 0 1 1.962 1.347 6.004 6.004 0 0 1 1.26 2.066c.296.8.445 1.68.445 2.636v1.172c0 .957-.149 1.835-.445 2.632a6.135 6.135 0 0 1 -1.245 2.06 5.558 5.558 0 0 1 -1.924 1.343c-.748.32-1.575.479-2.48.479zm2.764-11.992v9.785h1.055c.514 0 .975-.098 1.382-.293a2.829 2.829 0 0 0 1.035-.85c.283-.37.5-.822.65-1.352.149-.53.224-1.135.224-1.812v-1.191c0-.638-.073-1.22-.22-1.743a3.936 3.936 0 0 0 -.654-1.353 2.992 2.992 0 0 0 -1.074-.879c-.427-.208-.92-.312-1.48-.312zm16.602-2.344v2.256h-.157c-.716 0-1.349.094-1.899.283a4.072 4.072 0 0 0 -1.406.8 3.78 3.78 0 0 0 -.918 1.241 4.935 4.935 0 0 0 -.425 1.611c.15-.162.322-.323.518-.483.195-.16.415-.303.659-.43s.51-.23.796-.307c.286-.078.595-.117.927-.117.677 0 1.268.128 1.773.385.504.257.926.606 1.265 1.045.338.44.59.95.756 1.533s.25 1.197.25 1.841c0 .69-.111 1.332-.333 1.924a4.548 4.548 0 0 1 -.947 1.543c-.41.436-.908.78-1.494 1.03-.586.251-1.244.376-1.973.376-.761 0-1.448-.141-2.06-.424a4.497 4.497 0 0 1 -1.558-1.177 5.35 5.35 0 0 1 -.986-1.782 7.02 7.02 0 0 1 -.347-2.251v-1.045c0-1.127.153-2.17.46-3.13.305-.96.76-1.79 1.366-2.49a6.256 6.256 0 0 1 2.256-1.641c.899-.394 1.937-.59 3.115-.59h.362zm-2.696 7.031c-.488 0-.92.13-1.294.39-.374.261-.655.597-.844 1.007v.8c0 .521.053.977.16 1.368.108.39.26.714.455.971.195.258.426.451.693.582.267.13.557.195.87.195.318 0 .608-.067.869-.2.26-.134.481-.318.664-.552.182-.235.322-.513.42-.835a3.64 3.64 0 0 0 .146-1.06 3.69 3.69 0 0 0 -.146-1.064 2.6 2.6 0 0 0 -.42-.845 1.935 1.935 0 0 0 -.67-.556 1.973 1.973 0 0 0 -.903-.2zm728.438 3.301h-1.963l-.713 4.004h-1.748l.713-4.004h-2.227v-1.65h2.52l.508-2.832h-2.295v-1.67h2.588l.732-4.063h1.738l-.722 4.063h1.963l.722-4.063h1.758l-.732 4.063h2.119v1.67h-2.412l-.508 2.832h2.178v1.65h-2.471l-.713 4.004h-1.748zm-1.67-1.65h1.963l.498-2.832h-1.963zm11.445-2.647h1.475c.742 0 1.292-.187 1.65-.561.358-.375.537-.865.537-1.47 0-.28-.04-.536-.122-.767a1.595 1.595 0 0 0 -.366-.595 1.635 1.635 0 0 0 -.62-.386 2.553 2.553 0 0 0 -.874-.137c-.273 0-.529.04-.767.117-.237.079-.446.19-.625.337a1.55 1.55 0 0 0 -.581 1.235h-2.715c0-.579.12-1.106.357-1.581.238-.476.565-.884.981-1.226a4.594 4.594 0 0 1 1.47-.796 5.695 5.695 0 0 1 1.821-.283c.704 0 1.348.086 1.934.259.586.172 1.087.43 1.504.771.417.342.74.765.972 1.27.23.504.346 1.089.346 1.753 0 .306-.045.607-.136.903a3.288 3.288 0 0 1 -.4.845 3.56 3.56 0 0 1 -.655.737 4.06 4.06 0 0 1 -.899.581c.398.143.74.326 1.03.547s.53.474.718.757c.19.283.33.594.42.932.092.339.137.697.137 1.075 0 .664-.127 1.256-.38 1.777-.255.52-.603.959-1.046 1.313a4.667 4.667 0 0 1 -1.577.811 6.718 6.718 0 0 1 -1.968.278 6.37 6.37 0 0 1 -1.772-.249 4.739 4.739 0 0 1 -1.538-.752 3.758 3.758 0 0 1 -1.08-1.264c-.27-.508-.405-1.107-.405-1.797h2.715c0 .273.052.526.157.757.104.23.252.43.444.595.192.166.418.297.679.391.26.094.546.142.859.142.69 0 1.23-.183 1.621-.547.39-.365.586-.86.586-1.485 0-.384-.055-.713-.166-.986a1.676 1.676 0 0 0 -.483-.674 2.061 2.061 0 0 0 -.762-.39 3.643 3.643 0 0 0 -1.001-.127h-1.475zm18.194 2.412h-6.094v5.889h-2.754v-14.219h9.61v2.237h-6.856v3.867h6.094zm12.851 1.436c-.045.716-.2 1.36-.464 1.933a4.505 4.505 0 0 1 -1.06 1.465c-.442.404-.97.715-1.581.933a6.015 6.015 0 0 1 -2.032.327c-.84 0-1.585-.155-2.236-.464a4.575 4.575 0 0 1 -1.64-1.299c-.443-.556-.782-1.225-1.016-2.006-.234-.782-.352-1.641-.352-2.579v-1.914c0-.944.124-1.806.371-2.588.248-.78.6-1.451 1.055-2.011a4.746 4.746 0 0 1 1.655-1.304c.648-.31 1.376-.464 2.183-.464.781 0 1.476.11 2.085.332a4.401 4.401 0 0 1 1.558.947c.43.41.768.912 1.015 1.504.248.593.404 1.26.469 2.002h-2.734a4.655 4.655 0 0 0 -.19-1.113 2.113 2.113 0 0 0 -.44-.796 1.804 1.804 0 0 0 -.723-.478 2.997 2.997 0 0 0 -1.04-.161c-.423 0-.791.09-1.104.273-.312.182-.57.45-.776.8-.205.352-.356.784-.454 1.295a9.346 9.346 0 0 0 -.146 1.743v1.933c0 1.4.196 2.435.59 3.106.394.67 1.018 1.006 1.87 1.006.717 0 1.283-.19 1.7-.572.416-.38.647-.997.693-1.85zm10.88-1.777h-5.84v4.013h6.825v2.217h-9.58v-14.219h9.551v2.237h-6.797v3.584h5.84v2.168zm12.274.341h-6.093v5.889h-2.754v-14.219h9.61v2.237h-6.856v3.867h6.093zm12.002 0h-6.093v5.889h-2.754v-14.219h9.61v2.237h-6.856v3.867h6.093z" fill="#fff"/></g><path d="m10.908 39.723a6.178 6.178 0 0 1 -.508 1.811 4.672 4.672 0 0 1 -.99 1.416c-.408.394-.89.7-1.446.918a5.061 5.061 0 0 1 -1.86.327 4.847 4.847 0 0 1 -1.597-.249 4.395 4.395 0 0 1 -1.28-.688 4.57 4.57 0 0 1 -.966-1.035 6.287 6.287 0 0 1 -.674-1.3 7.808 7.808 0 0 1 -.4-1.474 9.994 9.994 0 0 1 -.142-1.562v-1.983a9.994 9.994 0 0 1 .142-1.562 7.808 7.808 0 0 1 .4-1.475 6.41 6.41 0 0 1 .674-1.304 4.41 4.41 0 0 1 2.241-1.729 4.836 4.836 0 0 1 1.602-.248c.71 0 1.344.109 1.904.327s1.041.527 1.445.928c.404.4.728.88.972 1.44s.405 1.179.483 1.856h-1.806c-.059-.43-.16-.83-.303-1.201a3.31 3.31 0 0 0 -.576-.977 2.55 2.55 0 0 0 -.884-.66c-.348-.159-.76-.238-1.235-.238-.43 0-.81.07-1.138.21a2.62 2.62 0 0 0 -.85.57c-.237.242-.436.522-.595.84a5.5 5.5 0 0 0 -.386 1.016 7.275 7.275 0 0 0 -.21 1.099 9.696 9.696 0 0 0 -.064 1.089v2.002c0 .351.021.714.064 1.089.042.374.112.742.21 1.103.097.361.224.702.38 1.02.157.32.355.601.596.845s.524.437.85.577c.325.14.706.21 1.143.21.475 0 .887-.075 1.235-.225s.643-.36.884-.63c.24-.27.433-.59.576-.957.143-.368.244-.767.303-1.196zm2.285-1.104c0-.762.111-1.47.332-2.124a5.089 5.089 0 0 1 .953-1.704 4.434 4.434 0 0 1 1.508-1.138c.593-.276 1.26-.415 2.002-.415.749 0 1.421.139 2.017.415.596.277 1.1.656 1.514 1.138.413.482.73 1.05.952 1.704.221.654.332 1.362.332 2.124v.215c0 .762-.11 1.468-.332 2.12a5.097 5.097 0 0 1 -.952 1.698 4.38 4.38 0 0 1 -1.51 1.133c-.592.274-1.259.41-2.001.41-.749 0-1.421-.136-2.017-.41a4.368 4.368 0 0 1 -1.513-1.133 5.097 5.097 0 0 1 -.953-1.699 6.543 6.543 0 0 1 -.332-2.119zm1.807.215c0 .52.062 1.017.186 1.49.123.471.31.886.561 1.244.25.358.565.642.942.85.378.208.818.312 1.319.312.495 0 .93-.104 1.304-.312s.686-.492.937-.85c.25-.358.438-.773.562-1.245.123-.472.185-.968.185-1.489v-.215c0-.514-.063-1.007-.19-1.48a3.93 3.93 0 0 0 -.567-1.244 2.835 2.835 0 0 0 -.937-.855c-.375-.212-.812-.317-1.314-.317-.501 0-.937.105-1.308.317a2.852 2.852 0 0 0 -.933.855c-.25.358-.438.773-.561 1.245a5.813 5.813 0 0 0 -.186 1.48zm10.986-9.834h5.4v13.438h3.448v1.562h-8.848v-1.563h3.594v-11.865h-3.594zm11.211 9.62c0-.763.11-1.47.332-2.125a5.089 5.089 0 0 1 .952-1.704 4.434 4.434 0 0 1 1.51-1.138c.592-.276 1.259-.415 2.001-.415.749 0 1.421.139 2.017.415.595.277 1.1.656 1.513 1.138.414.482.731 1.05.953 1.704.221.654.332 1.362.332 2.124v.215c0 .762-.111 1.468-.332 2.12a5.097 5.097 0 0 1 -.953 1.698 4.38 4.38 0 0 1 -1.508 1.133c-.593.274-1.26.41-2.002.41-.749 0-1.421-.136-2.017-.41a4.368 4.368 0 0 1 -1.514-1.133 5.097 5.097 0 0 1 -.952-1.699 6.543 6.543 0 0 1 -.332-2.119v-.215zm1.807.214c0 .52.062 1.017.185 1.49.124.471.311.886.562 1.244.25.358.565.642.942.85.378.208.817.312 1.319.312.495 0 .93-.104 1.303-.312.375-.208.687-.492.938-.85.25-.358.438-.773.561-1.245.124-.472.186-.968.186-1.489v-.215c0-.514-.063-1.007-.19-1.48a3.93 3.93 0 0 0 -.567-1.244 2.835 2.835 0 0 0 -.937-.855c-.375-.212-.813-.317-1.314-.317s-.937.105-1.308.317a2.852 2.852 0 0 0 -.933.855c-.25.358-.438.773-.562 1.245a5.813 5.813 0 0 0 -.185 1.48zm17.627-5.596c.17 0 .345.005.527.015s.357.026.523.049.319.05.459.083c.14.032.255.068.346.107l-.244 1.768a8.8 8.8 0 0 0 -1.992-.225c-.846 0-1.532.192-2.056.576s-.91.922-1.157 1.612v6.777h-1.816v-10.566h1.718l.088 1.68c.43-.58.946-1.038 1.548-1.373s1.288-.503 2.056-.503zm19.053 5.059v5.703h-1.807v-14.219h4.61a6.123 6.123 0 0 1 1.81.303c.57.189 1.07.462 1.5.82s.77.801 1.02 1.328c.251.528.376 1.133.376 1.817 0 .683-.125 1.287-.376 1.811-.25.524-.59.966-1.02 1.324s-.93.631-1.5.82a5.915 5.915 0 0 1 -1.81.293zm0-1.484h2.802c.417-.007.801-.074 1.153-.2.351-.128.657-.308.918-.543.26-.234.464-.519.61-.854a2.84 2.84 0 0 0 .22-1.148c0-.43-.074-.817-.22-1.162a2.555 2.555 0 0 0 -.605-.879 2.67 2.67 0 0 0 -.918-.556 3.495 3.495 0 0 0 -1.158-.205h-2.802zm16.972 7.187a1.968 1.968 0 0 1 -.17-.513 5.599 5.599 0 0 1 -.093-.64 5.057 5.057 0 0 1 -.61.518 4.338 4.338 0 0 1 -.743.43c-.27.124-.558.221-.864.293a4.276 4.276 0 0 1 -.977.107c-.56 0-1.066-.081-1.518-.244a3.55 3.55 0 0 1 -1.153-.659 2.874 2.874 0 0 1 -.732-.986 2.958 2.958 0 0 1 -.259-1.236c0-.58.116-1.087.347-1.523.23-.436.558-.8.981-1.089.423-.29.933-.506 1.529-.65a8.556 8.556 0 0 1 1.997-.214h1.972v-.83c0-.32-.058-.606-.175-.86a1.837 1.837 0 0 0 -.499-.65 2.289 2.289 0 0 0 -.786-.414 3.446 3.446 0 0 0 -1.04-.147c-.358 0-.678.046-.962.137a2.355 2.355 0 0 0 -.717.361c-.196.15-.347.328-.455.533a1.361 1.361 0 0 0 -.16.64h-1.817c.006-.385.106-.762.298-1.134.192-.37.469-.704.83-1 .361-.297.8-.536 1.318-.718.518-.183 1.105-.274 1.763-.274.599 0 1.156.074 1.67.22s.959.368 1.333.664.669.666.884 1.108c.215.443.322.96.322 1.553v4.912c0 .352.032.725.098 1.118.065.394.156.738.273 1.03v.157zm-3.193-1.377c.351 0 .68-.046.986-.137.306-.09.585-.211.835-.361s.467-.32.65-.513a2.5 2.5 0 0 0 .43-.6v-2.139h-1.68c-1.055 0-1.875.156-2.461.469-.586.312-.88.804-.88 1.474 0 .26.045.502.133.723.087.221.22.412.395.571.176.16.397.285.664.376s.576.137.928.137zm8.535-13.623h5.4v13.438h3.448v1.562h-8.848v-1.563h3.594v-11.865h-3.594zm16.387 15.195a5.361 5.361 0 0 1 -2.046-.38 4.642 4.642 0 0 1 -1.597-1.065 4.87 4.87 0 0 1 -1.035-1.621 5.496 5.496 0 0 1 -.371-2.041v-.41c0-.853.137-1.616.41-2.29a5.25 5.25 0 0 1 1.089-1.71 4.75 4.75 0 0 1 1.543-1.069 4.451 4.451 0 0 1 1.772-.37c.762 0 1.428.131 1.997.395a3.92 3.92 0 0 1 1.421 1.094c.378.465.66 1.014.845 1.645.186.632.278 1.315.278 2.05v.811h-7.548c.02.482.112.935.278 1.358s.394.792.683 1.108a3.158 3.158 0 0 0 2.378 1.02c.645 0 1.218-.13 1.72-.39.5-.26.917-.605 1.25-1.035l1.103.86a4.193 4.193 0 0 1 -.66.766 4.55 4.55 0 0 1 -.913.65c-.345.188-.735.34-1.171.453-.437.114-.912.171-1.426.171zm-.235-9.472c-.364 0-.71.066-1.035.2a2.7 2.7 0 0 0 -.879.586c-.26.257-.48.573-.659.947a4.502 4.502 0 0 0 -.376 1.294h5.684v-.137c-.02-.351-.086-.7-.2-1.045a2.911 2.911 0 0 0 -.503-.927 2.517 2.517 0 0 0 -.835-.664c-.336-.17-.734-.254-1.197-.254zm11.846-3.848v2.559h4.024v1.396h-4.024v5.742c0 .41.052.749.156 1.016.105.267.248.48.43.64.182.159.392.271.63.336.238.066.49.098.757.098.195 0 .397-.011.605-.034a11.506 11.506 0 0 0 1.167-.186c.173-.035.314-.066.425-.092l.254 1.279c-.15.091-.332.17-.547.24-.215.068-.45.126-.703.175a9.22 9.22 0 0 1 -1.65.151 4.19 4.19 0 0 1 -1.314-.2 2.723 2.723 0 0 1 -1.06-.635c-.299-.29-.535-.664-.708-1.123-.172-.459-.258-1.014-.258-1.665v-5.742h-2.774v-1.396h2.774v-2.559zm12.002 0v2.559h4.023v1.396h-4.023v5.742c0 .41.052.749.156 1.016s.248.48.43.64c.182.159.392.271.63.336.237.066.49.098.757.098.195 0 .397-.011.605-.034a11.506 11.506 0 0 0 1.167-.186c.173-.035.314-.066.425-.092l.254 1.279c-.15.091-.332.17-.547.24-.215.068-.45.126-.703.175a9.22 9.22 0 0 1 -1.65.151 4.19 4.19 0 0 1 -1.314-.2 2.723 2.723 0 0 1 -1.06-.635c-.299-.29-.535-.664-.708-1.123-.172-.459-.258-1.014-.258-1.665v-5.742h-2.774v-1.396h2.774v-2.559zm12.393 13.32a5.361 5.361 0 0 1 -2.046-.38 4.642 4.642 0 0 1 -1.597-1.065 4.87 4.87 0 0 1 -1.035-1.621 5.496 5.496 0 0 1 -.371-2.041v-.41c0-.853.137-1.616.41-2.29a5.25 5.25 0 0 1 1.089-1.71 4.75 4.75 0 0 1 1.543-1.069 4.451 4.451 0 0 1 1.772-.37c.762 0 1.428.131 1.997.395a3.92 3.92 0 0 1 1.421 1.094c.378.465.66 1.014.845 1.645.185.632.278 1.315.278 2.05v.811h-7.549c.02.482.113.935.279 1.358s.394.792.683 1.108a3.158 3.158 0 0 0 2.378 1.02c.645 0 1.218-.13 1.719-.39s.918-.605 1.25-1.035l1.104.86a4.192 4.192 0 0 1 -.66.766 4.55 4.55 0 0 1 -.913.65c-.345.188-.735.34-1.172.453-.436.114-.911.171-1.425.171zm-.235-9.472c-.364 0-.71.066-1.035.2a2.7 2.7 0 0 0 -.879.586c-.26.257-.48.573-.659.947a4.501 4.501 0 0 0 -.376 1.294h5.684v-.137c-.02-.351-.087-.7-.2-1.045a2.911 2.911 0 0 0 -.504-.927 2.516 2.516 0 0 0 -.834-.664c-.336-.17-.735-.254-1.197-.254z" fill="#939393"/><path d="m0 0h964v1h-964z" fill="#fff" opacity=".6"/></g></svg>