<svg width="1102" height="369" xmlns="http://www.w3.org/2000/svg"><defs><linearGradient x1="0%" y1="100%" y2="0%" id="a"><stop stop-color="#2440D6" offset="0%"/><stop stop-color="#3FCEFF" offset="100%"/></linearGradient><linearGradient x1="0%" y1="100%" y2="0%" id="b"><stop stop-color="#2440D6" stop-opacity=".5" offset="0%"/><stop stop-color="#3FCEFF" offset="100%"/></linearGradient><linearGradient x1="0%" y1="100%" y2="0%" id="c"><stop stop-color="#3FCEFF" offset="0%"/><stop stop-color="#CFD6FF" offset="100%"/></linearGradient><filter x="-30.8%" y="-51.1%" width="161.5%" height="202.2%" filterUnits="objectBoundingBox" id="d"><feGaussianBlur stdDeviation="6.114" in="SourceGraphic"/></filter><filter x="-30.8%" y="-51.1%" width="161.5%" height="202.2%" filterUnits="objectBoundingBox" id="e"><feGaussianBlur stdDeviation="6.114" in="SourceGraphic"/></filter><filter x="-30.8%" y="-51.1%" width="161.5%" height="202.2%" filterUnits="objectBoundingBox" id="f"><feGaussianBlur stdDeviation="6.114" in="SourceGraphic"/></filter><filter x="-30.8%" y="-51.1%" width="161.5%" height="202.2%" filterUnits="objectBoundingBox" id="g"><feGaussianBlur stdDeviation="6.114" in="SourceGraphic"/></filter><filter x="-30.8%" y="-51.1%" width="161.5%" height="202.2%" filterUnits="objectBoundingBox" id="h"><feGaussianBlur stdDeviation="6.114" in="SourceGraphic"/></filter><filter x="-30.8%" y="-51.1%" width="161.5%" height="202.2%" filterUnits="objectBoundingBox" id="i"><feGaussianBlur stdDeviation="6.114" in="SourceGraphic"/></filter><filter x="-30.8%" y="-51.1%" width="161.5%" height="202.2%" filterUnits="objectBoundingBox" id="j"><feGaussianBlur stdDeviation="6.114" in="SourceGraphic"/></filter><filter x="-30.8%" y="-51.1%" width="161.5%" height="202.2%" filterUnits="objectBoundingBox" id="k"><feGaussianBlur stdDeviation="6.114" in="SourceGraphic"/></filter><filter x="-30.8%" y="-51.1%" width="161.5%" height="202.2%" filterUnits="objectBoundingBox" id="l"><feGaussianBlur stdDeviation="6.114" in="SourceGraphic"/></filter><filter x="-30.8%" y="-51.1%" width="161.5%" height="202.2%" filterUnits="objectBoundingBox" id="m"><feGaussianBlur stdDeviation="6.114" in="SourceGraphic"/></filter><linearGradient x1="100%" y1="100%" x2="0%" y2="0%" id="n"><stop stop-color="#3FCEFF" offset="0%"/><stop stop-color="#2440D6" offset="100%"/></linearGradient><linearGradient x1="92.593%" y1="100%" x2="5.891%" y2="0%" id="o"><stop stop-color="#3FCEFF" offset="0%"/><stop stop-color="#2440D6" stop-opacity=".5" offset="100%"/></linearGradient><filter x="-30.8%" y="-51.1%" width="161.5%" height="202.2%" filterUnits="objectBoundingBox" id="p"><feGaussianBlur stdDeviation="6.114" in="SourceGraphic"/></filter><filter x="-30.8%" y="-51.1%" width="161.5%" height="202.2%" filterUnits="objectBoundingBox" id="q"><feGaussianBlur stdDeviation="6.114" in="SourceGraphic"/></filter><filter x="-30.8%" y="-51.1%" width="161.5%" height="202.2%" filterUnits="objectBoundingBox" id="r"><feGaussianBlur stdDeviation="6.114" in="SourceGraphic"/></filter><filter x="-30.8%" y="-51.1%" width="161.5%" height="202.2%" filterUnits="objectBoundingBox" id="s"><feGaussianBlur stdDeviation="6.114" in="SourceGraphic"/></filter><filter x="-30.8%" y="-51.1%" width="161.5%" height="202.2%" filterUnits="objectBoundingBox" id="t"><feGaussianBlur stdDeviation="6.114" in="SourceGraphic"/></filter><filter x="-30.8%" y="-51.1%" width="161.5%" height="202.2%" filterUnits="objectBoundingBox" id="u"><feGaussianBlur stdDeviation="6.114" in="SourceGraphic"/></filter><filter x="-30.8%" y="-51.1%" width="161.5%" height="202.2%" filterUnits="objectBoundingBox" id="v"><feGaussianBlur stdDeviation="6.114" in="SourceGraphic"/></filter><filter x="-30.8%" y="-51.1%" width="161.5%" height="202.2%" filterUnits="objectBoundingBox" id="w"><feGaussianBlur stdDeviation="6.114" in="SourceGraphic"/></filter><filter x="-30.8%" y="-51.1%" width="161.5%" height="202.2%" filterUnits="objectBoundingBox" id="x"><feGaussianBlur stdDeviation="6.114" in="SourceGraphic"/></filter><filter x="-30.8%" y="-51.1%" width="161.5%" height="202.2%" filterUnits="objectBoundingBox" id="y"><feGaussianBlur stdDeviation="6.114" in="SourceGraphic"/></filter><filter x="-14.5%" y="-24%" width="129%" height="148%" filterUnits="objectBoundingBox" id="z"><feGaussianBlur stdDeviation="6.114" in="SourceGraphic"/></filter></defs><g fill="none" fill-rule="evenodd"><path fill="url(#a)" fill-rule="nonzero" d="M300.856 212.785v-3.3H422.34v3.3z" transform="translate(-1 3.67)"/><path stroke="url(#b)" stroke-width="3.3" transform="matrix(1 0 0 -1 -1 537.832)" d="M245.848 305.55H184.89l-60.968-76.937H66.988"/><path stroke="url(#b)" stroke-width="3.3" d="M244.748 173.658h-60.957L122.82 96.72H65.889" transform="translate(-1 3.67)"/><path fill="#2440D6" d="M106.88 90.087V75.57l-48.821 27.715v15.837z"/><path fill="#3FCEFF" d="M7.918 75.57v14.517l50.14 29.035v-17.157z"/><path fill="url(#a)" d="M0 29.035L48.821 0l50.141 29.035-50.14 27.715z" transform="matrix(-1 0 0 1 106.88 46.535)"/><path fill="url(#c)" d="M71.385 32.334L58.19 24.548l-6.07 21.908-33.647-19.137 35.363-5.41L41.3 14.516l6.73-3.959 30.084 17.685z" transform="matrix(-1 0 0 1 106.88 46.535)"/><path fill="url(#c)" filter="url(#d)" d="M72.704 32.334L59.51 24.548l-6.07 21.908-33.647-19.137 35.363-5.41-12.535-7.392 6.73-3.959 30.084 17.685z" transform="matrix(-1 0 0 1 106.88 46.535)"/><g><path fill="#2440D6" d="M307.924 216.746V202.23l-48.821 27.715v15.837z"/><path fill="#3FCEFF" d="M208.962 202.229v14.517l50.14 29.035v-17.157z"/><path fill="url(#a)" d="M0 29.035L48.821 0l50.141 29.035-50.14 27.715z" transform="matrix(-1 0 0 1 307.924 173.194)"/><path fill="url(#c)" d="M71.385 32.334L58.19 24.548l-6.07 21.908-33.647-19.137 35.363-5.41L41.3 14.516l6.73-3.959 30.084 17.685z" transform="matrix(-1 0 0 1 307.924 173.194)"/><path fill="url(#c)" filter="url(#e)" d="M72.704 32.334L59.51 24.548l-6.07 21.908-33.647-19.137 35.363-5.41-12.535-7.392 6.73-3.959 30.084 17.685z" transform="matrix(-1 0 0 1 307.924 173.194)"/><g><path fill="#2440D6" d="M307.924 195.63v-14.517l-48.821 27.715v15.837z"/><path fill="#3FCEFF" d="M208.962 181.113v14.517l50.14 29.035v-17.157z"/><path fill="url(#a)" d="M0 29.035L48.821 0l50.141 29.035-50.14 27.715z" transform="matrix(-1 0 0 1 307.924 152.078)"/><path fill="url(#c)" d="M71.385 32.334L58.19 24.548l-6.07 21.908-33.647-19.137 35.363-5.41L41.3 14.516l6.73-3.959 30.084 17.685z" transform="matrix(-1 0 0 1 307.924 152.078)"/><path fill="url(#c)" filter="url(#f)" d="M72.704 32.334L59.51 24.548l-6.07 21.908-33.647-19.137 35.363-5.41-12.535-7.392 6.73-3.959 30.084 17.685z" transform="matrix(-1 0 0 1 307.924 152.078)"/></g><g><path fill="#2440D6" d="M307.924 171.874v-14.517l-48.821 27.715v15.837z"/><path fill="#3FCEFF" d="M208.962 157.357v14.517l50.14 29.035v-17.157z"/><path fill="url(#a)" d="M0 29.035L48.821 0l50.141 29.035-50.14 27.715z" transform="matrix(-1 0 0 1 307.924 128.322)"/><path fill="url(#c)" d="M71.385 32.334L58.19 24.548l-6.07 21.908-33.647-19.137 35.363-5.41L41.3 14.516l6.73-3.959 30.084 17.685z" transform="matrix(-1 0 0 1 307.924 128.322)"/><path fill="url(#c)" filter="url(#g)" d="M72.704 32.334L59.51 24.548l-6.07 21.908-33.647-19.137 35.363-5.41-12.535-7.392 6.73-3.959 30.084 17.685z" transform="matrix(-1 0 0 1 307.924 128.322)"/></g><g><path fill="#2440D6" d="M310.563 149.438v-14.517l-48.821 27.715v15.837z"/><path fill="#3FCEFF" d="M211.6 134.92v14.518l50.142 29.035v-17.157z"/><path fill="url(#a)" d="M0 29.035L48.821 0l50.141 29.035-50.14 27.715z" transform="matrix(-1 0 0 1 310.563 105.886)"/><path fill="url(#c)" d="M71.385 32.334L58.19 24.548l-6.07 21.908-33.647-19.137 35.363-5.41L41.3 14.516l6.73-3.959 30.084 17.685z" transform="matrix(-1 0 0 1 310.563 105.886)"/><path fill="url(#c)" filter="url(#h)" d="M72.704 32.334L59.51 24.548l-6.07 21.908-33.647-19.137 35.363-5.41-12.535-7.392 6.73-3.959 30.084 17.685z" transform="matrix(-1 0 0 1 310.563 105.886)"/></g></g><g><path fill="#2440D6" d="M106.661 68.368V53.851L57.84 81.566v15.837z"/><path fill="#3FCEFF" d="M7.699 53.85v14.518l50.14 29.035V80.246z"/><path fill="url(#a)" d="M0 29.035L48.821 0l50.141 29.035-50.14 27.715z" transform="matrix(-1 0 0 1 106.661 24.816)"/><path fill="url(#c)" d="M71.385 32.334L58.19 24.548l-6.07 21.908-33.647-19.137 35.363-5.41L41.3 14.516l6.73-3.959 30.084 17.685z" transform="matrix(-1 0 0 1 106.661 24.816)"/><path fill="url(#c)" filter="url(#i)" d="M72.704 32.334L59.51 24.548l-6.07 21.908-33.647-19.137 35.363-5.41-12.535-7.392 6.73-3.959 30.084 17.685z" transform="matrix(-1 0 0 1 106.661 24.816)"/><g><path fill="#2440D6" d="M106.661 47.252V32.735L57.84 60.45v15.837z"/><path fill="#3FCEFF" d="M7.699 32.735v14.517l50.14 29.035V59.13z"/><path fill="url(#a)" d="M0 29.035L48.821 0l50.141 29.035-50.14 27.715z" transform="matrix(-1 0 0 1 106.661 3.7)"/><path fill="url(#c)" d="M71.385 32.334L58.19 24.548l-6.07 21.908-33.647-19.137 35.363-5.41L41.3 14.516l6.73-3.959 30.084 17.685z" transform="matrix(-1 0 0 1 106.661 3.7)"/><path fill="url(#c)" filter="url(#j)" d="M72.704 32.334L59.51 24.548l-6.07 21.908-33.647-19.137 35.363-5.41-12.535-7.392 6.73-3.959 30.084 17.685z" transform="matrix(-1 0 0 1 106.661 3.7)"/></g></g><g><path fill="#2440D6" d="M98.962 339.522v-14.517L50.141 352.72v15.837z"/><path fill="#3FCEFF" d="M0 325.005v14.517l50.14 29.035V351.4z"/><path fill="url(#a)" d="M0 29.035L48.821 0l50.141 29.035-50.14 27.715z" transform="matrix(-1 0 0 1 98.962 295.97)"/><path fill="url(#c)" d="M71.385 32.334L58.19 24.548l-6.07 21.908-33.647-19.137 35.363-5.41L41.3 14.516l6.73-3.959 30.084 17.685z" transform="matrix(-1 0 0 1 98.962 295.97)"/><path fill="url(#c)" filter="url(#k)" d="M72.704 32.334L59.51 24.548l-6.07 21.908-33.647-19.137 35.363-5.41-12.535-7.392 6.73-3.959 30.084 17.685z" transform="matrix(-1 0 0 1 98.962 295.97)"/><g><path fill="#2440D6" d="M98.962 317.863v-14.517L50.141 331.06v15.837z"/><path fill="#3FCEFF" d="M0 303.346v14.517l50.14 29.035v-17.157z"/><path fill="url(#a)" d="M0 29.035L48.821 0l50.141 29.035-50.14 27.715z" transform="matrix(-1 0 0 1 98.962 274.311)"/><path fill="url(#c)" d="M71.385 32.334L58.19 24.548l-6.07 21.908-33.647-19.137 35.363-5.41L41.3 14.516l6.73-3.959 30.084 17.685z" transform="matrix(-1 0 0 1 98.962 274.311)"/><path fill="url(#c)" filter="url(#l)" d="M72.704 32.334L59.51 24.548l-6.07 21.908-33.647-19.137 35.363-5.41-12.535-7.392 6.73-3.959 30.084 17.685z" transform="matrix(-1 0 0 1 98.962 274.311)"/></g><g><path fill="#2440D6" d="M98.962 296.747V282.23l-48.821 27.715v15.837z"/><path fill="#3FCEFF" d="M0 282.23v14.517l50.14 29.035v-17.157z"/><path fill="url(#a)" d="M0 29.035L48.821 0l50.141 29.035-50.14 27.715z" transform="matrix(-1 0 0 1 98.962 253.195)"/><path fill="url(#c)" d="M71.385 32.334L58.19 24.548l-6.07 21.908-33.647-19.137 35.363-5.41L41.3 14.516l6.73-3.959 30.084 17.685z" transform="matrix(-1 0 0 1 98.962 253.195)"/><path fill="url(#c)" filter="url(#m)" d="M72.704 32.334L59.51 24.548l-6.07 21.908-33.647-19.137 35.363-5.41-12.535-7.392 6.73-3.959 30.084 17.685z" transform="matrix(-1 0 0 1 98.962 253.195)"/></g></g><g><path fill="url(#n)" fill-rule="nonzero" transform="translate(379.804 4.1)" d="M300.856 212.785v-3.3H422.34v3.3z"/><path stroke="url(#o)" stroke-width="3.3" transform="rotate(180 551.5 269.131)" d="M245.848 305.55H184.89l-60.968-76.937H66.988"/><path stroke="url(#o)" stroke-width="3.3" d="M244.748 173.658h-60.957L122.82 96.72H65.889" transform="matrix(-1 0 0 1 1103 4.1)"/><path fill="#2440D6" d="M890.399 217.176V202.66l-48.821 27.715v15.837z"/><path fill="#3FCEFF" d="M791.437 202.659v14.517l50.14 29.035v-17.157z"/><path fill="url(#a)" d="M0 29.035L48.821 0l50.141 29.035-50.14 27.715z" transform="matrix(-1 0 0 1 890.399 173.624)"/><path fill="url(#c)" d="M71.385 32.334L58.19 24.548l-6.07 21.908-33.647-19.137 35.363-5.41L41.3 14.516l6.73-3.959 30.084 17.685z" transform="matrix(-1 0 0 1 890.399 173.624)"/><path fill="url(#c)" filter="url(#p)" d="M72.704 32.334L59.51 24.548l-6.07 21.908-33.647-19.137 35.363-5.41-12.535-7.392 6.73-3.959 30.084 17.685z" transform="matrix(-1 0 0 1 890.399 173.624)"/><g><path fill="#2440D6" d="M890.399 196.06v-14.517l-48.821 27.715v15.837z"/><path fill="#3FCEFF" d="M791.437 181.543v14.517l50.14 29.035v-17.157z"/><path fill="url(#a)" d="M0 29.035L48.821 0l50.141 29.035-50.14 27.715z" transform="matrix(-1 0 0 1 890.399 152.508)"/><path fill="url(#c)" d="M71.385 32.334L58.19 24.548l-6.07 21.908-33.647-19.137 35.363-5.41L41.3 14.516l6.73-3.959 30.084 17.685z" transform="matrix(-1 0 0 1 890.399 152.508)"/><path fill="url(#c)" filter="url(#q)" d="M72.704 32.334L59.51 24.548l-6.07 21.908-33.647-19.137 35.363-5.41-12.535-7.392 6.73-3.959 30.084 17.685z" transform="matrix(-1 0 0 1 890.399 152.508)"/></g><g><path fill="#2440D6" d="M890.399 172.304v-14.517l-48.821 27.715v15.837z"/><path fill="#3FCEFF" d="M791.437 157.787v14.517l50.14 29.035v-17.157z"/><path fill="url(#a)" d="M0 29.035L48.821 0l50.141 29.035-50.14 27.715z" transform="matrix(-1 0 0 1 890.399 128.752)"/><path fill="url(#c)" d="M71.385 32.334L58.19 24.548l-6.07 21.908-33.647-19.137 35.363-5.41L41.3 14.516l6.73-3.959 30.084 17.685z" transform="matrix(-1 0 0 1 890.399 128.752)"/><path fill="url(#c)" filter="url(#r)" d="M72.704 32.334L59.51 24.548l-6.07 21.908-33.647-19.137 35.363-5.41-12.535-7.392 6.73-3.959 30.084 17.685z" transform="matrix(-1 0 0 1 890.399 128.752)"/></g><g><path fill="#2440D6" d="M893.038 149.868v-14.517l-48.821 27.715v15.837z"/><path fill="#3FCEFF" d="M794.076 135.35v14.518l50.14 29.035v-17.157z"/><path fill="url(#a)" d="M0 29.035L48.821 0l50.141 29.035-50.14 27.715z" transform="matrix(-1 0 0 1 893.038 106.316)"/><path fill="url(#c)" d="M71.385 32.334L58.19 24.548l-6.07 21.908-33.647-19.137 35.363-5.41L41.3 14.516l6.73-3.959 30.084 17.685z" transform="matrix(-1 0 0 1 893.038 106.316)"/><path fill="url(#c)" filter="url(#s)" d="M72.704 32.334L59.51 24.548l-6.07 21.908-33.647-19.137 35.363-5.41-12.535-7.392 6.73-3.959 30.084 17.685z" transform="matrix(-1 0 0 1 893.038 106.316)"/></g><g><path fill="#2440D6" d="M1094.5 90.517V76l-48.821 27.715v15.837z"/><path fill="#3FCEFF" d="M995.538 76v14.517l50.14 29.035v-17.157z"/><path fill="url(#a)" d="M0 29.035L48.821 0l50.141 29.035-50.14 27.715z" transform="matrix(-1 0 0 1 1094.5 46.965)"/><path fill="url(#c)" d="M71.385 32.334L58.19 24.548l-6.07 21.908-33.647-19.137 35.363-5.41L41.3 14.516l6.73-3.959 30.084 17.685z" transform="matrix(-1 0 0 1 1094.5 46.965)"/><path fill="url(#c)" filter="url(#t)" d="M72.704 32.334L59.51 24.548l-6.07 21.908-33.647-19.137 35.363-5.41-12.535-7.392 6.73-3.959 30.084 17.685z" transform="matrix(-1 0 0 1 1094.5 46.965)"/><g><path fill="#2440D6" d="M1094.282 68.798V54.281l-48.821 27.715v15.837z"/><path fill="#3FCEFF" d="M995.32 54.28v14.518l50.14 29.035V80.676z"/><path fill="url(#a)" d="M0 29.035L48.821 0l50.141 29.035-50.14 27.715z" transform="matrix(-1 0 0 1 1094.282 25.246)"/><path fill="url(#c)" d="M71.385 32.334L58.19 24.548l-6.07 21.908-33.647-19.137 35.363-5.41L41.3 14.516l6.73-3.959 30.084 17.685z" transform="matrix(-1 0 0 1 1094.282 25.246)"/><path fill="url(#c)" filter="url(#u)" d="M72.704 32.334L59.51 24.548l-6.07 21.908-33.647-19.137 35.363-5.41-12.535-7.392 6.73-3.959 30.084 17.685z" transform="matrix(-1 0 0 1 1094.282 25.246)"/></g><g><path fill="#2440D6" d="M1094.282 47.682V33.165l-48.821 27.715v15.837z"/><path fill="#3FCEFF" d="M995.32 33.165v14.517l50.14 29.035V59.56z"/><path fill="url(#a)" d="M0 29.035L48.821 0l50.141 29.035-50.14 27.715z" transform="matrix(-1 0 0 1 1094.282 4.13)"/><path fill="url(#c)" d="M71.385 32.334L58.19 24.548l-6.07 21.908-33.647-19.137 35.363-5.41L41.3 14.516l6.73-3.959 30.084 17.685z" transform="matrix(-1 0 0 1 1094.282 4.13)"/><path fill="url(#c)" filter="url(#v)" d="M72.704 32.334L59.51 24.548l-6.07 21.908-33.647-19.137 35.363-5.41-12.535-7.392 6.73-3.959 30.084 17.685z" transform="matrix(-1 0 0 1 1094.282 4.13)"/></g></g><g><path fill="#2440D6" d="M1101.98 339.952v-14.517l-48.821 27.715v15.837z"/><path fill="#3FCEFF" d="M1003.018 325.435v14.517l50.14 29.035V351.83z"/><path fill="url(#a)" d="M0 29.035L48.821 0l50.141 29.035-50.14 27.715z" transform="matrix(-1 0 0 1 1101.98 296.4)"/><path fill="url(#c)" d="M71.385 32.334L58.19 24.548l-6.07 21.908-33.647-19.137 35.363-5.41L41.3 14.516l6.73-3.959 30.084 17.685z" transform="matrix(-1 0 0 1 1101.98 296.4)"/><path fill="url(#c)" filter="url(#w)" d="M72.704 32.334L59.51 24.548l-6.07 21.908-33.647-19.137 35.363-5.41-12.535-7.392 6.73-3.959 30.084 17.685z" transform="matrix(-1 0 0 1 1101.98 296.4)"/><g><path fill="#2440D6" d="M1101.98 318.293v-14.517l-48.821 27.715v15.837z"/><path fill="#3FCEFF" d="M1003.018 303.776v14.517l50.14 29.035v-17.157z"/><path fill="url(#a)" d="M0 29.035L48.821 0l50.141 29.035-50.14 27.715z" transform="matrix(-1 0 0 1 1101.98 274.741)"/><path fill="url(#c)" d="M71.385 32.334L58.19 24.548l-6.07 21.908-33.647-19.137 35.363-5.41L41.3 14.516l6.73-3.959 30.084 17.685z" transform="matrix(-1 0 0 1 1101.98 274.741)"/><path fill="url(#c)" filter="url(#x)" d="M72.704 32.334L59.51 24.548l-6.07 21.908-33.647-19.137 35.363-5.41-12.535-7.392 6.73-3.959 30.084 17.685z" transform="matrix(-1 0 0 1 1101.98 274.741)"/></g><g><path fill="#2440D6" d="M1101.98 297.177V282.66l-48.821 27.715v15.837z"/><path fill="#3FCEFF" d="M1003.018 282.66v14.517l50.14 29.035v-17.157z"/><path fill="url(#a)" d="M0 29.035L48.821 0l50.141 29.035-50.14 27.715z" transform="matrix(-1 0 0 1 1101.98 253.625)"/><path fill="url(#c)" d="M71.385 32.334L58.19 24.548l-6.07 21.908-33.647-19.137 35.363-5.41L41.3 14.516l6.73-3.959 30.084 17.685z" transform="matrix(-1 0 0 1 1101.98 253.625)"/><path fill="url(#c)" filter="url(#y)" d="M72.704 32.334L59.51 24.548l-6.07 21.908-33.647-19.137 35.363-5.41-12.535-7.392 6.73-3.959 30.084 17.685z" transform="matrix(-1 0 0 1 1101.98 253.625)"/></g></g></g><g><path stroke="url(#a)" stroke-width="3.3" opacity=".1" d="M0 258.123l132.163-78.635 135.734 78.635-135.734 75.061z" transform="translate(416.962 29.378)"/><path stroke="url(#a)" stroke-width="3.3" transform="matrix(-1 0 0 1 684.859 29.378)" d="M0 185.538l132.163-78.637 135.734 78.637-135.734 75.063z"/><path stroke="url(#a)" stroke-width="3.3" opacity=".35" d="M0 219.85l132.163-78.635 135.734 78.635-135.734 75.061z" transform="translate(416.962 29.378)"/><path stroke="url(#a)" stroke-width="3.3" opacity=".35" d="M0 124.827l132.163-78.635 135.734 78.635-135.734 75.06z" transform="translate(416.962 29.378)"/><path stroke="url(#a)" stroke-width="3.3" opacity=".1" d="M0 78.635L132.163 0l135.734 78.635-135.734 75.06z" transform="translate(416.962 29.378)"/><path fill="#2440D6" d="M655.792 211.77v-30.883l-103.501 58.958v33.69z"/><path fill="#3FCEFF" d="M445.992 180.887v30.883l106.299 61.765v-36.498z"/><path fill="url(#a)" d="M0 61.765L103.501 0l106.3 61.765-106.3 58.958z" transform="matrix(-1 0 0 1 655.792 119.122)"/><path fill="url(#c)" d="M151.336 64.61l-27.973-16.564-12.868 46.605-71.332-40.709 74.968-11.51-26.574-15.723 14.266-8.422 63.78 37.62z" transform="matrix(-1 0 0 1 655.792 119.122)"/><path fill="url(#c)" filter="url(#z)" d="M153.855 64.408l-27.973-16.564-12.868 46.605-71.332-40.71 74.969-11.51-26.575-15.722 14.267-8.423 63.779 37.621z" transform="matrix(-1 0 0 1 655.792 119.122)"/></g></g></svg>