<svg version="1" xmlns="http://www.w3.org/2000/svg" width="933.333" height="933.333" viewBox="0 0 700 700"><g><path d="M0 350v350h700V0H0v350zm267-116.9v82.1l3.8-4.9c18.7-23.6 47.4-36.3 82.1-36.3 22.7 0 40.2 3.9 57.6 12.8 21.4 11 36.6 26.6 48.1 49.5 21.9 43.3 21.5 109.7-.8 155.3-6.7 13.7-13.3 23-23.8 33.5-13.7 13.7-26.3 21.7-43.6 27.5-25.9 8.7-58.6 8.3-81.6-1-15.5-6.3-30.4-18.1-38.7-30.5l-3.6-5.5-.6 7.5c-.4 4.1-.7 11.7-.8 17 0 5.3-.4 11.1-.7 12.8l-.6 3.1H188V151h79v82.1zM565 528v30h-60v-60h60v30z"/><path d="M323.5 339.9c-27.3 4.5-47.5 23.2-54.5 50.6-1.6 6.4-2 11-2 25.4 0 21.4 1.3 28.3 7.6 41 8.7 17.7 24.2 30.2 42.4 34.5 8.3 2 22.9 2 30.5.1 18.4-4.7 32.7-17.8 40.9-37.4 10.4-24.6 9-61.5-3.2-84.6-6.9-12.9-20.1-23.8-34-27.9-6.5-1.9-20.9-2.8-27.7-1.7z"/></g></svg>